<svg width="60" height="60" viewBox="0 0 60 60" fill="none" xmlns="http://www.w3.org/2000/svg">
<path d="M26.9801 0.515808C22.6745 1.02866 19.5498 1.95893 16.0553 3.77179C12.6681 5.52501 9.63871 7.92226 7.26531 10.7012C6.6809 11.3929 6.13227 12.0131 6.06071 12.0966C5.9653 12.2039 5.94145 11.3929 5.9653 8.94796C5.98915 7.1351 5.97723 5.46537 5.92952 5.25069L5.85796 4.85711H4.45062C3.30566 4.85711 3.01942 4.89289 2.95978 5.03601C2.8763 5.27454 2.86437 17.6663 2.95978 18.0361L3.03134 18.3342H9.69834H16.3653V16.8434V15.3526H11.9525C9.53137 15.3526 7.53962 15.3168 7.53962 15.2572C7.53962 15.0305 9.26898 12.8957 10.402 11.7269C14.5644 7.42134 19.4543 4.79748 25.2507 3.77179C27.0516 3.44977 30.7966 3.3305 32.5975 3.53325C38.8232 4.24885 44.4526 6.94427 48.7939 11.3094C53.827 16.3783 56.5701 23.0095 56.582 30.1416C56.582 33.3857 56.2242 35.6517 55.2343 38.6573C53.2783 44.6087 49.2352 49.7371 43.8444 53.0647C37.1177 57.2271 28.7691 58.1812 21.2553 55.6647C12.6562 52.7784 5.98915 45.5747 3.78272 36.8325C3.18639 34.4471 3.00749 32.9086 3.00749 30.2967C2.99556 27.9948 3.12676 26.7187 3.56804 24.5003C3.73502 23.6535 3.85428 22.9498 3.83043 22.926C3.7708 22.8783 1.06345 22.1508 1.02767 22.1865C1.01574 22.1985 0.860693 22.8306 0.693719 23.582C-0.355826 28.3288 -0.212706 33.7435 1.11115 38.3591C3.43685 46.505 9.10201 53.2793 16.6516 56.9766C19.5975 58.4078 22.2571 59.2307 25.5608 59.7317C27.9819 60.0894 31.5838 60.0894 34.0049 59.7317C40.3379 58.7775 45.8361 56.094 50.3682 51.7646C56.7728 45.6224 60.0646 37.2141 59.5279 28.4003C59.0747 21.0416 56.0572 14.3388 50.8453 9.15071C48.3526 6.68189 46.1223 5.08372 43.0214 3.54518C40.8269 2.45985 39.3599 1.8993 37.392 1.38646C34.7443 0.706635 33.3847 0.539661 30.2599 0.503883C28.6856 0.48003 27.2067 0.491955 26.9801 0.515808Z" fill="#293389"/>
<path d="M28.2927 7.89906V9.38989H29.7836H31.2744V7.89906V6.40823H29.7836H28.2927V7.89906Z" fill="#293389"/>
<path d="M17.7988 9.58031C17.1786 9.95004 16.6419 10.2601 16.6181 10.284C16.5823 10.3317 17.6676 12.2638 17.9419 12.6455C18.097 12.8482 18.1804 12.8244 19.385 12.1326C20.6254 11.417 20.6612 11.3812 20.5061 11.1308C20.4107 10.9996 20.0887 10.439 19.7786 9.8904C19.4685 9.3537 19.1465 8.91242 19.0749 8.91242C18.9915 8.92434 18.419 9.22251 17.7988 9.58031Z" fill="#293389"/>
<path d="M39.6472 10.1528L38.9316 11.4051L40.172 12.1326C40.8638 12.5262 41.472 12.8244 41.5197 12.7886C41.5794 12.7647 41.9372 12.1923 42.3069 11.5244C42.8555 10.5583 42.9628 10.2959 42.8317 10.2124C42.3546 9.89041 40.5656 8.91243 40.4702 8.91243C40.4105 8.91243 40.0408 9.47298 39.6472 10.1528Z" fill="#293389"/>
<path d="M48.3899 17.7377C47.734 18.1313 47.1973 18.4891 47.1973 18.5368C47.1973 18.5845 47.5074 19.1808 47.9009 19.8606L48.5927 21.0771L49.0936 20.8028C49.356 20.6359 49.9404 20.3019 50.3936 20.0515C50.8349 19.801 51.1808 19.5625 51.1688 19.5267C51.0138 19.1808 49.7019 17.0221 49.6542 17.034C49.6184 17.034 49.0459 17.356 48.3899 17.7377Z" fill="#293389"/>
<path d="M18.9436 26.8856L16.3555 32.9443L16.3674 34.5783V36.2241L20.1004 36.248L23.8216 36.2838L23.7858 37.381C23.7619 37.9893 23.7738 38.6453 23.8216 38.848L23.905 39.2058H25.3243H26.7436L26.7674 38.037C26.7794 37.4049 26.7913 36.7489 26.8032 36.5819C26.8151 36.2957 26.8509 36.2838 27.5546 36.248L28.2941 36.2122V34.7333V33.2544L27.5546 33.2186C26.8151 33.1828 26.8032 33.1828 26.7913 32.825C26.7913 32.6223 26.7674 31.2984 26.7674 29.8672L26.7436 27.2792H25.2528C24.4298 27.2792 23.7738 27.3149 23.7738 27.3626C23.7858 27.4223 23.7858 28.7581 23.7738 30.3443L23.7619 33.2425H21.6748C20.172 33.2425 19.5876 33.2067 19.5876 33.0994C19.5876 33.0278 20.6133 30.5709 21.8656 27.6489C23.1179 24.7269 24.1794 22.2461 24.2032 22.1388C24.239 21.9956 23.9289 21.8167 22.939 21.3993C22.2115 21.0892 21.6032 20.8388 21.5793 20.8388C21.5555 20.8388 20.3748 23.558 18.9436 26.8856Z" fill="#293389"/>
<path d="M34.0293 21.5067C32.0972 22.0195 30.6779 23.57 30.3082 25.5617C30.0697 26.8379 30.3917 28.3764 31.0954 29.426L31.5128 30.0462L31.0238 30.5829C29.3183 32.4434 29.4376 35.6994 31.2862 37.5242C32.3596 38.5857 33.8862 39.1343 35.7468 39.1343C37.0229 39.1343 37.8578 38.9554 38.8954 38.4545C41.8294 37.0352 42.6165 33.0517 40.4578 30.5829L39.9807 30.0462L40.3982 29.426C41.1138 28.3526 41.4239 26.8379 41.1853 25.5498C40.8037 23.4984 39.4321 22.0195 37.4165 21.4948C36.5459 21.2682 34.888 21.2801 34.0293 21.5067ZM37.0706 24.5241C37.9293 24.9177 38.3945 25.8003 38.2633 26.7544C38.1082 27.9709 37.3926 28.5911 36.0688 28.6746C35.055 28.7581 34.3752 28.5673 33.8504 28.0783C33.1229 27.3865 33.0036 26.0984 33.5761 25.2278C34.1605 24.3572 35.9137 23.9994 37.0706 24.5241ZM37.5358 32.1095C38.3587 32.5031 38.6807 32.9921 38.6807 33.8746C38.7046 35.3297 37.6431 36.1526 35.7468 36.1526C34.4229 36.1526 33.4091 35.6875 33.0036 34.9122C32.5743 34.0774 32.8724 32.7177 33.6 32.2407C34.5422 31.6205 36.4266 31.5609 37.5358 32.1095Z" fill="#293389"/>
<path d="M5.99044 28.9127C5.97852 29.4017 5.97852 31.4054 5.97852 31.5366C5.99044 31.6559 6.3721 31.6917 7.48127 31.6917H8.98403L8.94825 30.2247L8.91247 28.7696L7.45742 28.7338C6.12164 28.71 5.99044 28.7219 5.99044 28.9127Z" fill="#293389"/>
<path d="M50.6681 29.1155C50.6204 29.354 50.5966 30.0219 50.6085 30.6183L50.6204 31.6917H52.1709H53.7094L53.6737 30.2247L53.6379 28.7696L52.1948 28.7338L50.7397 28.6981L50.6681 29.1155Z" fill="#293389"/>
<path d="M9.8662 39.993C9.2818 40.3388 8.69739 40.6728 8.59005 40.7443C8.41115 40.8636 8.45886 41.0067 9.1029 42.1278C9.49648 42.8196 9.8662 43.3801 9.91391 43.3801C9.98547 43.3801 11.5121 42.5214 12.168 42.104L12.4424 41.937L12.0011 41.1379C11.7506 40.6966 11.4167 40.1242 11.2497 39.8498L10.9396 39.3608L9.8662 39.993Z" fill="#293389"/>
<path d="M48.4001 39.7068C47.8515 40.6013 47.1597 41.8894 47.2074 41.961C47.3028 42.128 49.6643 43.4041 49.7239 43.3326C49.9267 43.1417 51.1551 40.9234 51.1194 40.8518C51.0478 40.7445 48.7698 39.4445 48.6505 39.4445C48.6028 39.4445 48.4955 39.5637 48.4001 39.7068Z" fill="#293389"/>
<path d="M17.333 48.7952C16.9275 49.475 16.6055 50.0713 16.6055 50.0952C16.6055 50.1667 19.1339 51.6337 19.1697 51.586C19.1936 51.5502 20.5413 49.2245 20.6128 49.0933C20.6367 49.0576 20.2908 48.819 19.8495 48.5686C19.4082 48.3181 18.8238 47.9842 18.5614 47.8291L18.0605 47.5429L17.333 48.7952Z" fill="#293389"/>
<path d="M40.2196 48.2823C39.5278 48.6759 38.9554 49.0099 38.9434 49.0218C38.9315 49.0456 40.3269 51.4906 40.3985 51.586C40.4462 51.6337 42.9627 50.1667 42.9627 50.0952C42.9627 50.0356 41.5196 47.5548 41.4957 47.5548C41.4838 47.5548 40.9113 47.8888 40.2196 48.2823Z" fill="#293389"/>
<path d="M28.2927 52.6234V54.1143H29.7836H31.2744V52.6234V51.1326H29.7836H28.2927V52.6234Z" fill="#293389"/>
</svg>
