<svg width="29" height="23" viewBox="0 0 29 23" fill="none" xmlns="http://www.w3.org/2000/svg">
<g clip-path="url(#clip0_467_1058)">
<path d="M15.6344 14.1123C14.5556 14.9725 13.4626 15.8229 12.327 16.5996C11.1915 17.3763 10.0322 18.0841 8.7878 18.5904C7.52919 19.1016 6.25166 19.544 4.88895 19.5981C4.11297 19.6325 3.35592 19.4998 2.71242 19.023C2.19194 18.6396 1.82288 18.0743 1.66673 17.4352C1.53425 16.8847 1.55317 16.2801 1.7519 15.7492C1.73297 15.8033 1.80395 15.9655 1.82288 16.0196C2.2014 17.1059 3.29914 17.6908 4.3117 17.971C5.60816 18.3299 6.97559 18.2414 8.26732 17.9071C9.59217 17.563 10.8224 16.9437 12.0479 16.3341C12.6204 16.049 13.1929 15.7541 13.7418 15.4149C14.3947 15.0168 15.0288 14.5744 15.6439 14.1172L15.6344 14.1123Z" fill="#F7B11A"/>
<path d="M28.9433 0.0491886C28.9433 0.0491886 28.9149 0.0737665 28.9007 0.0885132C28.8581 0.137669 28.8297 0.19174 28.7966 0.245812C28.7871 0.260559 28.7777 0.275305 28.7682 0.290052C28.7682 0.290052 28.7493 0.324461 28.7445 0.324461C28.7256 0.353955 28.7067 0.383448 28.6878 0.412942C28.6783 0.427688 28.6641 0.447351 28.6546 0.462097C28.5884 0.565324 28.5222 0.663636 28.4607 0.761948C28.3991 0.860259 28.3282 0.963487 28.2619 1.0618C27.9165 1.58285 27.5758 2.1039 27.2162 2.61021C26.5444 3.57366 25.8393 4.52237 24.9735 5.30394C24.5855 5.65295 24.1076 5.97246 23.5871 6.04128C21.5998 6.31655 19.5889 6.45419 17.5685 6.82777C19.1962 7.2456 21.1267 7.72241 22.8064 8.15007C22.002 9.05945 21.1693 9.93934 20.3081 10.7897C19.9769 11.1191 19.6457 11.4435 19.305 11.763C18.9643 12.0874 18.6236 12.407 18.2735 12.7216C15.2642 15.4694 12.0751 17.9419 8.33714 19.5395C6.97444 20.1195 5.58808 20.6111 4.08343 20.5422C2.21445 20.4587 1.15457 19.4067 1.1451 17.4651C1.13564 16.4132 1.36749 15.3563 1.48105 14.3486C0.57258 16.2018 0.00951911 18.1877 5.59015e-05 19.6476C-0.00940731 21.8744 1.18296 23.2163 3.30745 22.9705C4.83575 22.7985 6.42084 22.3954 7.8072 21.7171C12.1224 19.5985 15.8793 16.595 19.2861 13.159C20.7056 11.7286 22.0872 10.2392 23.3884 8.67603C24.188 10.2834 25.0965 12.1464 25.8772 13.7047C25.8677 13.5523 25.863 13.3999 25.8535 13.2426C25.7778 11.9793 25.6264 10.7209 25.4845 9.46253C25.4135 8.85791 25.3615 8.24838 25.2857 7.64376C25.2432 7.3095 25.2621 6.91625 25.3756 6.59674C25.4892 6.27231 25.6312 5.96263 25.792 5.66278C26.1848 4.93036 26.6674 4.24709 27.098 3.53925C27.4197 3.00837 27.7414 2.47257 28.049 1.93186C28.3471 1.4108 28.6546 0.894668 28.8912 0.344123C28.9149 0.290052 28.9433 0.235981 28.9622 0.176994C28.9717 0.1475 28.9811 0.118007 28.9859 0.0885132C28.9906 0.0590197 28.9906 0.0246107 28.9953 -0.00488281C28.9811 0.00986393 28.9622 0.0246107 28.9385 0.044273L28.9433 0.0491886Z" fill="#2B3386"/>
</g>
<defs>
<clipPath id="clip0_467_1058">
<rect width="29" height="23" fill="white"/>
</clipPath>
</defs>
</svg>
