<svg width="48" height="39" viewBox="0 0 48 39" fill="none" xmlns="http://www.w3.org/2000/svg">
<path d="M26.0874 20.8888H22.6328C22.5758 20.8888 22.5301 20.9116 22.4921 20.9458C22.454 20.9839 22.435 21.0333 22.435 21.0866V28.3686C22.435 28.4257 22.4578 28.4713 22.4921 28.5094C22.5301 28.5474 22.5796 28.5664 22.6328 28.5664H26.0836C26.1407 28.5664 26.1863 28.5436 26.2244 28.5094C26.2624 28.4713 26.2814 28.4218 26.2814 28.3686V21.0866C26.2814 21.0295 26.2586 20.9839 26.2244 20.9458C26.1901 20.904 26.1407 20.8888 26.0874 20.8888ZM3.64034 5.43073H15.621V1.99519C15.621 1.47396 15.834 1.006 16.1727 0.667388C16.5151 0.32878 16.9868 0.115723 17.5005 0.115723H31.2198C31.741 0.115723 32.2052 0.32878 32.5476 0.667388C32.8862 1.006 33.0993 1.48157 33.0993 1.99519V5.43073H45.0799C45.8142 5.43073 46.4762 5.73129 46.9518 6.21448C47.4349 6.69766 47.7355 7.35966 47.7355 8.08633V14.5009C44.7337 16.5591 41.6368 18.3131 38.4447 19.7436C35.2336 21.1817 31.9236 22.2965 28.4995 23.065V20.5007C28.4995 19.9148 28.2598 19.3745 27.8756 18.9865C27.4913 18.6022 26.951 18.3625 26.3613 18.3625H22.3551C21.7692 18.3625 21.2289 18.6022 20.8409 18.9865C20.4566 19.3707 20.2169 19.911 20.2169 20.5007V23.0079C16.8841 22.2432 13.654 21.1475 10.5228 19.7436C7.24329 18.275 4.06646 16.4602 0.984741 14.3297V8.08633C0.984741 7.35205 1.2853 6.69005 1.76849 6.21448C2.24786 5.73129 2.91367 5.43073 3.64034 5.43073ZM47.7355 18.3055V35.7152C47.7355 36.4495 47.4349 37.1115 46.9518 37.5871C46.4686 38.0703 45.8066 38.3708 45.0799 38.3708H3.64034C2.90606 38.3708 2.24406 38.0703 1.76849 37.5871C1.2853 37.1039 0.984741 36.4419 0.984741 35.7152V18.1457C3.6061 19.8273 6.30355 21.2959 9.0771 22.54C12.6572 24.1455 16.3705 25.3744 20.2207 26.1962V28.9545C20.2207 29.5404 20.4604 30.0806 20.8447 30.4687C21.2289 30.853 21.773 31.0927 22.3589 31.0927H26.3651C26.951 31.0927 27.4913 30.853 27.8794 30.4687C28.2636 30.0844 28.5033 29.5442 28.5033 28.9545V26.063L28.5452 26.238C32.4677 25.4124 36.2495 24.1721 39.8942 22.5362C42.5803 21.3339 45.194 19.9186 47.7355 18.3055ZM29.7893 2.67621H18.9386C18.8739 2.67621 18.8206 2.69904 18.7712 2.7485C18.7331 2.78654 18.6989 2.85122 18.6989 2.9159V5.35844H30.0175V2.9159C30.0175 2.85122 29.9947 2.79796 29.9453 2.7485C29.9072 2.71045 29.8425 2.67621 29.7779 2.67621H29.7893Z" fill="white"/>
</svg>
