<svg width="78" height="95" viewBox="0 0 78 95" fill="none" xmlns="http://www.w3.org/2000/svg">
<path fill-rule="evenodd" clip-rule="evenodd" d="M25.639 55.401C25.6386 54.1026 25.8253 52.811 26.1932 51.5669H51.6807C52.2303 53.4159 52.379 55.3628 52.1165 57.275C51.854 59.1872 51.1866 61.0199 50.1597 62.6481C49.1327 64.2763 47.7704 65.6619 46.1656 66.7104C44.5607 67.759 42.7509 68.4459 40.8595 68.7244C38.9681 69.0028 37.0395 68.8663 35.205 68.3242C33.3705 67.782 31.6733 66.8469 30.2289 65.5825C28.7844 64.3181 27.6268 62.7542 26.8347 60.9972C26.0427 59.2403 25.6348 57.3315 25.639 55.401ZM33.33 30.0498C32.0241 28.8766 30.9916 28.0254 30.7714 25.5869H30.6271C30.3025 25.5881 29.9831 25.5035 29.7009 25.3415C29.2347 25.0494 28.8771 24.61 28.6835 24.0916C28.2128 22.995 27.8408 20.1271 29.0252 19.2989L28.805 19.1532V18.8312C28.7594 18.256 28.7518 17.5582 28.7367 16.8221C28.7367 14.1229 28.638 10.8485 26.459 10.189L25.5479 9.90532L26.1553 9.1385C27.7488 7.10632 29.5562 5.25507 31.5458 3.61736C33.3335 2.07474 35.4817 1.01892 37.7867 0.550059C38.8619 0.374842 39.9619 0.437701 41.0107 0.734286C42.0594 1.03087 43.0318 1.5541 43.8606 2.26775C44.4559 2.76044 45.0003 3.31282 45.4854 3.91642C46.4496 4.0219 47.3809 4.3319 48.2182 4.82613C49.0556 5.32036 49.7802 5.98766 50.3445 6.78434C51.0605 7.75471 51.5956 8.84867 51.9237 10.0127C52.266 11.1969 52.4097 12.4306 52.3488 13.6628C52.2986 15.9038 51.4023 18.0408 49.8434 19.6363C50.1077 19.6468 50.3667 19.7148 50.6026 19.8357C51.4985 20.3188 51.5289 21.3693 51.2935 22.2589C51.0581 23.0257 50.762 23.8539 50.4811 24.5593C50.1395 25.5332 49.646 25.7172 48.6893 25.6099C48.6362 28.0101 47.5429 28.6772 46.0624 30.0805C46.1231 33.6922 33.2617 33.2705 33.3376 30.0805L33.33 30.0498ZM32.6619 33.0251L36.496 43.1778L38.4548 37.6414L37.5134 36.6062C36.7997 35.5556 37.0427 34.367 38.3637 34.1523C38.8364 34.1175 39.3109 34.1175 39.7835 34.1523C40.3055 34.1148 40.83 34.1354 41.3475 34.2137C42.5699 34.4821 42.699 35.6783 42.1068 36.6292L41.1577 37.6644L43.0103 43.1778L46.4724 33.0251C48.9702 35.3256 56.3424 35.755 59.1136 37.304C62.9098 39.4587 62.8187 43.6226 63.669 47.4797H15.4804C16.308 43.6456 16.2397 39.4281 20.0358 37.304C23.422 35.4022 29.9059 35.5479 32.6771 33.0251H32.6619ZM9.23194 30.3719C8.579 29.329 7.37182 27.918 7.37182 26.6988C7.38647 26.3029 7.51891 25.9207 7.75186 25.602C7.98481 25.2832 8.30745 25.0428 8.6777 24.9121C8.61696 23.8845 8.57141 22.8417 8.57141 21.8064C8.57141 21.193 8.57141 20.5718 8.57141 19.9661C8.6304 19.5931 8.72186 19.2262 8.84474 18.8695C9.31662 17.3131 10.3487 15.9917 11.7374 15.1657C12.2289 14.8521 12.7534 14.5949 13.3014 14.3989C14.296 14.0308 13.8177 12.3438 14.9034 12.3208C17.4469 12.2518 21.6302 14.6213 23.255 16.3927C24.295 17.5535 24.8877 19.0528 24.9253 20.6179L24.7886 25.1191C25.0294 25.1689 25.2538 25.2794 25.441 25.4403C25.6281 25.6012 25.772 25.8072 25.8592 26.0393C26.2084 27.4656 24.7507 29.2293 24.0674 30.3642C23.7865 30.832 23.1487 31.7752 22.5489 32.6647C21.16 32.9766 19.8138 33.4581 18.5401 34.0986L18.3352 34.206C13.7798 36.7519 13.104 40.7087 12.4283 44.7192C12.3296 45.3096 12.2309 45.9001 12.0867 46.5672C12.0101 46.8652 11.9718 47.1719 11.9728 47.4797H0.493164C0.493164 37.2196 8.25253 40.4786 11.9576 35.3256C12.1398 35.0572 12.2233 34.9115 12.2233 34.7888C12.2233 34.6661 9.4749 30.7936 9.23194 30.3719ZM68.6496 30.3719C69.2949 29.329 70.5097 27.918 70.5097 26.6988C70.495 26.3029 70.3626 25.9207 70.1297 25.602C69.8967 25.2832 69.5741 25.0428 69.2038 24.9121C69.2646 23.8845 69.3025 22.8417 69.3025 21.8064C69.3025 21.193 69.3025 20.5718 69.3025 19.9661C69.2524 19.5949 69.1737 19.2283 69.0672 18.8695C68.59 17.3159 67.5593 15.9962 66.1745 15.1657C65.6796 14.8535 65.1526 14.5964 64.6029 14.3989C63.6083 14.0308 64.0942 12.3438 63.0009 12.3208C60.4574 12.2518 56.2741 14.6213 54.6493 16.3927C53.608 17.552 53.0173 19.0528 52.9866 20.6179L53.0853 25.1191C52.8451 25.1702 52.6213 25.2812 52.4343 25.4419C52.2474 25.6026 52.1031 25.808 52.0148 26.0393C51.6731 27.4656 53.1308 29.2293 53.8066 30.3642C54.0571 30.7783 54.5658 31.5758 55.1428 32.3733C57.1126 32.7278 59.0273 33.3441 60.8371 34.206C65.3925 36.7749 66.0378 40.6703 66.7135 44.6808C66.8198 45.325 66.9261 45.9768 67.0856 46.7129C67.1402 46.9648 67.1682 47.2219 67.1691 47.4797H77.3732C77.3732 37.2196 69.6138 40.4786 65.9011 35.3256C65.7189 35.0572 65.6354 34.9115 65.6354 34.7888C65.6354 34.6661 68.3914 30.7936 68.6724 30.4025L68.6496 30.3719ZM77.3428 55.9071V58.7444C77.3329 60.0056 76.8319 61.2121 75.9482 62.1032C75.0645 62.9943 73.8691 63.4983 72.6204 63.5064H67.7613C67.1564 66.2311 66.175 68.8564 64.8458 71.305L68.065 74.5716C68.9473 75.4731 69.4421 76.6896 69.4421 77.9572C69.4421 79.2248 68.9473 80.4412 68.065 81.3427L64.1245 85.3225C63.2339 86.2174 62.0288 86.7197 60.7725 86.7197C59.5163 86.7197 58.3111 86.2174 57.4205 85.3225L54.4671 82.3396C51.9852 83.8997 49.2886 85.0806 46.4648 85.844V89.9081C46.4608 91.1759 45.9603 92.3907 45.0727 93.2872C44.1851 94.1837 42.9824 94.6891 41.7271 94.6931H36.1771C34.9219 94.6891 33.7192 94.1837 32.8316 93.2872C31.944 92.3907 31.4435 91.1759 31.4395 89.9081V85.8976C28.5867 85.1567 25.8608 83.9857 23.3537 82.4239L20.4762 85.3225C19.5869 86.2169 18.383 86.7191 17.128 86.7191C15.873 86.7191 14.6691 86.2169 13.7798 85.3225L9.83174 81.3427C8.94941 80.4412 8.45458 79.2248 8.45458 77.9572C8.45458 76.6896 8.94941 75.4731 9.83174 74.5716L12.937 71.443C11.5685 68.9551 10.5587 66.2826 9.93803 63.5064H5.27634C4.025 63.5024 2.8257 63.0001 1.93874 62.1086C1.05177 61.2171 0.548707 60.0082 0.538718 58.7444V53.0929C0.541085 52.5708 0.628292 52.0527 0.796858 51.5592H20.0586C19.8661 52.6734 19.7696 53.8023 19.7701 54.9333C19.7701 55.2707 19.7701 55.6004 19.7701 55.9301C19.7701 56.2599 19.7701 56.5973 19.7701 56.927C19.7701 62.0337 21.7787 66.9313 25.3539 70.5423C28.9292 74.1533 33.7783 76.182 38.8345 76.182C43.8906 76.182 48.7397 74.1533 52.315 70.5423C55.8903 66.9313 57.8988 62.0337 57.8988 56.927C57.8988 56.5973 57.8988 56.2599 57.8988 55.9301C57.8988 55.6004 57.8988 55.2707 57.8988 54.9333C57.8993 53.8023 57.8028 52.6734 57.6103 51.5592H77.0771C77.2513 52.0515 77.3411 52.5701 77.3428 53.0929V55.9071Z" fill="white"/>
</svg>
