<svg width="47" height="46" viewBox="0 0 47 46" fill="none" xmlns="http://www.w3.org/2000/svg">
<path fill-rule="evenodd" clip-rule="evenodd" d="M1.44298 8.30369C5.02879 10.6868 8.58607 13.0835 11.5888 16.1694C9.86756 23.5244 16.7372 29.4008 23.0024 32.8629C25.455 34.2182 26.5391 35.1683 29.2694 34.7116L40.0219 44.9034C19.7866 51.4779 -2.92261 23.8954 1.44298 8.30369ZM32.0412 32.0912L34.4 29.7736C35.0801 29.1042 36.2029 29.0958 36.8949 29.7541L45.591 38.0371C46.2826 38.6955 46.2913 39.7818 45.6112 40.4508L43.2517 42.7687C42.5712 43.4377 41.4483 43.4462 40.7564 42.7879L32.0603 34.5048C31.3684 33.8469 31.36 32.7606 32.0412 32.0912ZM3.56244 3.42895L5.27413 1.41827C6.00788 0.556437 7.33768 0.432057 8.22852 1.14191L17.1312 8.23709C18.0221 8.94767 18.1495 10.2334 17.4165 11.0964L15.7041 13.1059C14.9699 13.9689 13.6405 14.0921 12.7493 13.3823L3.8481 6.28712C2.95726 5.57727 2.82793 4.29078 3.56244 3.42895Z" fill="white"/>
</svg>
