<svg width="55" height="55" viewBox="0 0 55 55" fill="none" xmlns="http://www.w3.org/2000/svg">
<g clip-path="url(#clip0_614_3595)">
<path d="M32.5118 9.43894H38.6146C39.599 9.43894 41.295 11.0076 41.295 12.0011V27.7743H54.4697C54.7272 27.7743 55.0686 28.3449 54.9878 28.6233L54.933 54.5448C54.8217 54.8871 54.4758 55.0103 54.133 54.9982L24.873 54.9342C24.8029 54.8703 24.5286 54.6269 24.5286 54.595V38.3653H2.79922C1.51008 38.3653 0 36.7678 0 35.4669L0.0060952 12.2293C0 11.0578 1.54361 9.43741 2.68493 9.43741H8.78775V4.9384C8.78775 2.431 11.6098 0.258321 13.9717 0.0940013C18.3328 -0.208773 23.0414 0.334395 27.4406 0.0940013C29.7049 0.0498783 32.5118 2.69878 32.5118 4.9384V9.43741V9.43894ZM31.1434 9.43894V5.05403C31.1434 3.14153 28.9933 1.58505 27.2135 1.46181C22.7168 1.14991 17.7111 1.60179 13.1915 1.59418C11.8338 1.81175 10.1561 3.71056 10.1561 5.05555V9.44046H12.2087V4.94144C12.2087 4.22786 13.6014 3.3028 14.3207 3.40626C18.3831 3.61471 22.729 3.12175 26.7564 3.39866C27.5488 3.45343 28.172 3.55841 28.6809 4.21113C28.7754 4.33285 29.0893 4.84102 29.0893 4.94144V9.44046H31.1419L31.1434 9.43894ZM27.7225 9.43894V5.16814C27.7225 4.88362 26.8707 4.78016 26.6436 4.76495C22.7259 4.49108 18.4959 4.98252 14.5431 4.76495C14.3329 4.71322 13.5786 4.98252 13.5786 5.16814V9.43894H27.7225ZM15.7454 21.7386V19.9159C14.9088 20.0802 13.9382 19.4731 14.6544 18.6545L26.1895 18.542C27.567 18.6774 26.7305 20.2719 25.5556 19.9159V21.7386L39.9159 17.6275L39.9007 12.1411C39.698 11.5584 39.1845 10.9863 38.5643 10.8554L3.1375 10.8007C2.3817 10.7778 1.49485 11.5005 1.38209 12.2369C1.13675 13.8284 1.54513 15.9813 1.37904 17.6352L15.7454 21.7401V21.7386ZM1.37294 19.0045V35.5749C1.37294 36.1029 2.3756 36.999 2.9135 36.999H24.3579L24.5286 36.8286V28.1729C24.5286 28.144 24.8989 27.7743 24.9278 27.7743H39.9266V19.0045L25.7354 23.2281C25.3972 23.4746 25.6029 24.3145 25.5434 24.745C25.4383 25.524 24.7038 26.3578 23.9358 26.5571C23.0002 26.799 19.0932 26.723 17.9641 26.6393C16.0197 26.4947 15.5671 24.9352 15.7332 23.2296L1.37294 19.0045ZM24.1857 19.9159H17.1138V24.6416C17.1138 24.8226 17.6182 25.2912 17.862 25.2608C19.5869 25.1543 21.5221 25.4267 23.2212 25.273C23.5473 25.2441 24.1857 25.0174 24.1857 24.6416V19.9159ZM53.6133 29.1406H25.897V37.1131H53.6133V29.1406ZM53.6133 38.4794H25.897V53.6273H53.6133V38.4794Z" fill="white"/>
<path d="M42.066 31.7898C41.7719 31.5038 40.8637 31.6513 40.9536 32.0439C41.0267 32.3634 43.2042 32.7544 43.4389 33.7784C43.9616 36.056 40.754 36.8487 39.7909 35.0305C39.506 34.4935 39.6385 33.7723 40.3304 33.8042C40.9307 33.8331 40.9673 34.6395 41.4823 34.6928C41.7307 34.7186 42.1879 34.5421 42.0858 34.2181C41.9562 33.8073 39.9845 33.6475 39.6629 32.4227C39.2043 30.6822 41.3818 29.681 42.7441 30.5985C43.2835 30.9621 43.8976 32.1656 43.0381 32.4197C42.1787 32.6738 42.3265 32.0424 42.0644 31.7883L42.066 31.7898Z" fill="white"/>
<path d="M47.5531 34.965L45.9333 34.9681C45.624 35.0685 45.6834 35.9616 44.9581 36.0362C44.2906 36.1046 44.219 35.4778 44.3379 34.9711C44.5543 34.0567 45.4838 31.8703 45.9181 30.9681C46.2533 30.2697 46.8156 29.8544 47.323 30.6973C47.5881 31.1385 48.9306 34.5466 49.0236 35.035C49.3039 36.4972 47.6247 36.2461 47.5516 34.9666L47.5531 34.965Z" fill="white"/>
<path d="M33.0848 33.6977C33.3819 33.751 33.2616 33.6551 33.3225 33.5364C33.6029 32.9887 34.5157 30.6974 34.7884 30.4463C35.4254 29.8575 36.1629 30.4052 35.8459 31.3896C35.6174 32.1032 34.3115 34.8845 33.9031 35.4854C33.4353 36.1777 33.0513 36.2857 32.5317 35.5585C32.2726 35.1948 30.566 31.6072 30.4852 31.2238C30.2978 30.3383 30.8463 30.0036 31.6067 30.4463L33.0848 33.6977Z" fill="white"/>
<path d="M38.188 30.4204C38.5339 30.7643 38.2216 34.8053 38.3267 35.5722C38.1941 36.2462 37.097 36.1777 36.9675 35.3409C36.8593 34.641 36.8532 31.6026 36.9675 30.9119C37.0574 30.3626 37.7477 29.9822 38.188 30.4204Z" fill="white"/>
<path d="M38.6452 52.4621C38.4684 52.5899 38.2581 52.5914 38.0494 52.6082C34.6802 52.882 30.9515 52.3891 27.5443 52.6112C27.1588 52.6477 26.8251 52.3815 26.8037 51.9844C27.0719 48.24 26.467 44.0468 26.8037 40.3572C26.8632 39.7121 27.0018 39.563 27.6586 39.5037C30.9576 39.2039 34.7031 39.7441 38.0509 39.5021L38.6238 39.7273L38.6436 52.4652L38.6452 52.4621ZM37.417 40.8715H28.1782V51.2358C28.5195 51.2936 28.358 51.146 28.419 50.968C30.0814 46.0445 35.846 46.0978 37.1884 50.9558C37.2387 51.1399 37.065 51.2921 37.417 51.2358V40.8715ZM35.82 51.2358C35.2456 47.8703 30.4517 47.8916 29.7751 51.2358H35.82Z" fill="white"/>
<path d="M43.2606 52.4622C43.1326 52.2857 43.1311 52.0757 43.1143 51.8673C43.0717 51.3454 43.0503 48.339 43.1783 48.0499C43.2256 47.9419 43.3688 47.8415 43.4633 47.7654L52.3318 47.7882C52.443 47.8323 52.5055 47.9114 52.5634 48.0119C52.76 48.3512 52.7661 51.3211 52.7021 51.8642C52.6701 52.1427 52.5908 52.3724 52.3577 52.5459L43.2591 52.4622H43.2606ZM51.3322 49.0723H44.4888V51.2359H51.3322V49.0723Z" fill="white"/>
<path d="M52.4446 39.6483C52.8804 40.0621 52.635 40.9202 51.9631 40.8731C48.3654 40.5596 44.0667 41.2854 40.5528 40.8731C39.5532 40.7559 39.6645 39.5631 40.5528 39.5052C44.2039 39.7426 48.248 39.1903 51.8518 39.5007C52.0377 39.5174 52.3059 39.5159 52.4446 39.6483Z" fill="white"/>
<path d="M52.4446 45.2291C52.8804 45.6429 52.635 46.501 51.9631 46.4539C48.3654 46.1404 44.0667 46.8662 40.5528 46.4539C39.5532 46.3367 39.6645 45.1439 40.5528 45.0861C44.2039 45.3234 48.248 44.7711 51.8518 45.0815C52.0377 45.0982 52.3059 45.0967 52.4446 45.2291Z" fill="white"/>
<path d="M40.2343 42.3748L52.4247 42.4584L52.6929 42.9788C52.6106 43.5113 52.2159 43.665 51.7314 43.7197C48.3348 44.1001 44.251 43.4352 40.7814 43.7197C39.9524 43.6969 39.4252 42.9073 40.2328 42.3748H40.2343Z" fill="white"/>
<path d="M35.1372 43.904C35.1372 45.182 34.0995 46.2166 32.8211 46.2166C31.5426 46.2166 30.5049 45.1805 30.5049 43.904C30.5049 42.6274 31.5426 41.5913 32.8211 41.5913C34.0995 41.5913 35.1372 42.6274 35.1372 43.904ZM33.7673 43.91C33.7673 43.3882 33.3437 42.9652 32.8211 42.9652C32.2984 42.9652 31.8748 43.3882 31.8748 43.91C31.8748 44.4319 32.2984 44.8549 32.8211 44.8549C33.3437 44.8549 33.7673 44.4319 33.7673 43.91Z" fill="white"/>
</g>
<defs>
<clipPath id="clip0_614_3595">
<rect width="55" height="55" fill="white"/>
</clipPath>
</defs>
</svg>
