<svg width="107" height="81" viewBox="0 0 107 81" fill="none" xmlns="http://www.w3.org/2000/svg">
<path fill-rule="evenodd" clip-rule="evenodd" d="M3.4163 74.8789H13.2924C12.9675 74.5259 12.7915 74.0597 12.8016 73.5786V32.8351C12.8016 32.3408 12.9967 31.8667 13.3439 31.5172C13.691 31.1676 14.1619 30.9713 14.6529 30.9713H92.2327C92.723 30.9736 93.1925 31.1706 93.5392 31.5197C93.8859 31.8687 94.0816 32.3415 94.0839 32.8351V73.5786C94.0803 74.0637 93.8923 74.5289 93.5587 74.8789H103.891C104.599 74.8789 105.278 75.162 105.779 75.666C106.279 76.17 106.56 76.8535 106.56 77.5662C106.56 78.279 106.279 78.9625 105.779 79.4665C105.278 79.9704 104.599 80.2536 103.891 80.2536H3.4163C2.70837 80.2536 2.02945 79.9704 1.52887 79.4665C1.02829 78.9625 0.74707 78.279 0.74707 77.5662C0.74707 76.8535 1.02829 76.17 1.52887 75.666C2.02945 75.162 2.70837 74.8789 3.4163 74.8789ZM76.6048 19.1383H71.3524V27.4257H67.6758V17.2832C67.6747 17.0392 67.7215 16.7975 67.8137 16.5719C67.9059 16.3463 68.0416 16.1413 68.2129 15.9689C68.3843 15.7964 68.5879 15.6598 68.8119 15.5669C69.036 15.4741 69.2761 15.4269 69.5184 15.4281H76.6306C77.0808 14.2304 77.9359 13.2309 79.0456 12.6052C80.1552 11.9794 81.4485 11.7675 82.698 12.0067C83.9475 12.2459 85.0732 12.9209 85.8774 13.913C86.6815 14.9051 87.1126 16.1509 87.0947 17.4312C87.0769 18.7116 86.6113 19.9447 85.7799 20.9137C84.9485 21.8828 83.8044 22.5257 82.5487 22.7295C81.293 22.9334 80.0062 22.6851 78.9144 22.0283C77.8225 21.3714 76.9956 20.3482 76.5789 19.1383H76.6048ZM38.6329 20.4386V27.4257H34.939V22.2938H30.7113C30.277 23.4969 29.4355 24.5075 28.3345 25.148C27.2336 25.7884 25.9437 26.0178 24.6915 25.7959C23.4392 25.5739 22.3048 24.9147 21.4873 23.9342C20.6699 22.9536 20.2218 21.7144 20.2218 20.4343C20.2218 19.1542 20.6699 17.915 21.4873 16.9344C22.3048 15.9539 23.4392 15.2947 24.6915 15.0728C25.9437 14.8508 27.2336 15.0802 28.3345 15.7206C29.4355 16.3611 30.277 17.3717 30.7113 18.5748H36.8247C37.0665 18.5746 37.306 18.6228 37.5292 18.7165C37.7524 18.8103 37.9549 18.9478 38.1249 19.121C38.4595 19.476 38.6419 19.9493 38.6329 20.4386ZM29.2131 0.0668945C28.239 0.0672341 27.2831 0.332481 26.4464 0.834607C25.6096 1.33673 24.9232 2.05709 24.4595 2.91956C23.9958 3.78203 23.7722 4.75459 23.8122 5.73446C23.8522 6.71433 24.1543 7.66513 24.6867 8.48639C25.2191 9.30765 25.962 9.96887 26.8368 10.4002C27.7117 10.8315 28.686 11.0169 29.6568 10.9367C30.6276 10.8566 31.5589 10.5139 32.3523 9.94493C33.1457 9.37593 33.7716 8.60173 34.1641 7.70413H44.9787V27.4257H48.664V5.85767C48.6663 5.61301 48.6203 5.37032 48.5286 5.14372C48.4369 4.91712 48.3014 4.71113 48.1299 4.53772C47.9585 4.3643 47.7545 4.22692 47.5299 4.13356C47.3052 4.0402 47.0644 3.99271 46.8214 3.99387H34.4052C34.0813 2.86508 33.4029 1.87232 32.4715 1.16436C31.5401 0.456396 30.4059 0.0713434 29.2389 0.0668945L29.2131 0.0668945ZM59.1687 0.153583C57.8943 0.15025 56.6597 0.600182 55.6827 1.42399C54.7057 2.24781 54.0491 3.39255 53.8288 4.65627C53.6084 5.91998 53.8385 7.22144 54.4783 8.33102C55.1182 9.44061 56.1268 10.287 57.3261 10.7209V27.4257H61.0199V10.7209C62.22 10.2868 63.229 9.43965 63.8688 8.32916C64.5086 7.21866 64.7381 5.91625 64.5166 4.65197C64.2951 3.38769 63.637 2.24288 62.6584 1.41977C61.6798 0.59665 60.4438 0.148184 59.1687 0.153583ZM44.7635 41.6773C44.759 40.009 45.2248 38.3738 46.1067 36.9614H61.1921C62.0749 38.3734 62.5408 40.0089 62.5354 41.6773C62.5354 44.05 61.5992 46.3255 59.9327 48.0032C58.2663 49.681 56.0061 50.6235 53.6494 50.6235C51.2927 50.6235 49.0326 49.681 47.3661 48.0032C45.6997 46.3255 44.7635 44.05 44.7635 41.6773ZM79.2998 42.0154V43.8878C79.2976 44.7317 78.9642 45.5405 78.3723 46.138C77.7804 46.7355 76.978 47.0734 76.1398 47.078H72.8937C72.4887 48.8957 71.8307 50.6468 70.9391 52.2793L73.0745 54.4118C73.665 55.0095 73.9964 55.8183 73.9964 56.6614C73.9964 57.5044 73.665 58.3132 73.0745 58.9109L70.4914 61.5636C69.8962 62.1586 69.0915 62.4925 68.2527 62.4925C67.4139 62.4925 66.6092 62.1586 66.014 61.5636L64.0422 59.5784C62.3859 60.6209 60.5834 61.407 58.6951 61.9103V64.615C58.6906 65.4597 58.3553 66.2684 57.7621 66.8657C57.1688 67.463 56.3655 67.8006 55.5265 67.8051H51.7896C50.9506 67.8006 50.1473 67.463 49.554 66.8657C48.9608 66.2684 48.6255 65.4597 48.6209 64.615V61.945C46.7158 61.4518 44.8957 60.6714 43.2222 59.6304L41.3021 61.5636C40.7084 62.1581 39.9051 62.4917 39.0677 62.4917C38.2303 62.4917 37.427 62.1581 36.8333 61.5636L34.1985 58.9109C33.608 58.3132 33.2766 57.5044 33.2766 56.6614C33.2766 55.8183 33.608 55.0095 34.1985 54.4118L36.265 52.3226C35.3496 50.6691 34.6768 48.8909 34.2674 47.0433H31.159C30.3209 47.0387 29.5184 46.7009 28.9265 46.1033C28.3347 45.5058 28.0013 44.697 27.999 43.8531V40.0995C28.0025 39.2828 28.3169 38.4985 28.8776 37.9083C29.4382 37.318 30.2024 36.9667 31.0127 36.9268H41.6121C41.1058 38.3331 40.8465 39.8174 40.8457 41.3132C40.8457 41.5386 40.8457 41.7553 40.8457 41.9807C40.8457 42.2061 40.8457 42.4228 40.8457 42.6395C40.8457 46.0399 42.1874 49.301 44.5757 51.7055C46.9639 54.1099 50.2031 55.4607 53.5805 55.4607C56.958 55.4607 60.1972 54.1099 62.5854 51.7055C64.9736 49.301 66.3153 46.0399 66.3153 42.6395C66.3153 42.4228 66.3153 42.1974 66.3153 41.9807C66.3153 41.764 66.3153 41.5386 66.3153 41.3132C66.3146 39.8174 66.0553 38.3331 65.549 36.9268H76.2862C77.0965 36.9667 77.8606 37.318 78.4213 37.9083C78.982 38.4985 79.2964 39.2828 79.2998 40.0995V41.9807V42.0154ZM15.9358 33.8753H91.1564V73.0584H15.9358V33.8753ZM50.6013 76.2052H56.7147C56.9807 76.2117 57.2341 76.3204 57.423 76.509C57.6119 76.6976 57.722 76.9518 57.7308 77.2195C57.7342 77.3572 57.7106 77.4943 57.6614 77.6229C57.6122 77.7515 57.5383 77.8691 57.444 77.9689C57.3496 78.0687 57.2366 78.1488 57.1115 78.2047C56.9864 78.2606 56.8516 78.291 56.7147 78.2944H50.6013C50.4631 78.2933 50.3264 78.2645 50.1992 78.2096C50.0721 78.1548 49.9571 78.075 49.861 77.975C49.7648 77.8749 49.6894 77.7566 49.6391 77.6269C49.5888 77.4972 49.5647 77.3587 49.5681 77.2195C49.5681 76.9436 49.677 76.679 49.8707 76.4839C50.0645 76.2888 50.3273 76.1792 50.6013 76.1792V76.2052Z" fill="white"/>
</svg>
