<svg width="24" height="27" viewBox="0 0 24 27" fill="none" xmlns="http://www.w3.org/2000/svg">
<path d="M12.5346 0.481731C12.5575 0.611685 12.5804 0.802794 12.5804 0.90217C12.5804 1.07799 12.5881 1.07799 12.8939 0.97097C13.0697 0.909815 13.2226 0.856304 13.2379 0.856304C13.2531 0.856304 13.192 0.978615 13.1079 1.12386L12.9474 1.39141H13.1538C13.3602 1.39141 13.3602 1.39905 13.3067 1.74305L13.2531 2.09469L13.429 1.97238C13.6965 1.78892 13.7271 1.81949 13.7271 2.23229V2.60686L13.9488 2.47691C14.0711 2.40811 14.1934 2.36989 14.2163 2.38518C14.2316 2.40811 14.2316 2.70624 14.2087 3.04259L14.1628 3.66943L13.6354 3.32543C12.5269 2.60686 11.4949 2.25522 10.7305 2.33931C10.0731 2.40811 9.28572 2.84384 9.81318 2.84384C10.4935 2.84384 10.6158 2.95086 10.7152 3.64649C10.7611 3.98285 10.7764 4.00578 10.8452 3.85289C10.9445 3.64649 11.0516 3.63121 11.0516 3.8376C11.0516 3.92169 11.0898 3.99049 11.128 3.99049C11.1739 3.99049 11.2045 3.91405 11.2045 3.81467C11.2045 3.71529 11.2503 3.57005 11.3115 3.48596C11.4109 3.35601 11.4338 3.35601 11.5408 3.45539C11.602 3.51654 11.7625 3.79174 11.9001 4.06693L12.1524 4.56382L12.2059 4.19689C12.2364 3.99049 12.2823 3.80703 12.2976 3.78409C12.3205 3.7688 12.397 3.9064 12.4658 4.09751C12.5957 4.44151 12.6034 4.44151 12.7333 4.28098C12.8633 4.12045 12.8633 4.12045 12.955 4.49502C13.062 4.91546 13.2455 5.23652 13.3372 5.17537C13.3755 5.16008 13.4443 4.97661 13.4901 4.7855C13.5436 4.58675 13.5971 4.44915 13.6201 4.47208C13.6736 4.52559 13.9717 5.67989 13.9411 5.71047C13.9258 5.72576 13.6965 5.68754 13.4213 5.63403C12.5728 5.45821 11.3497 5.34354 10.7764 5.38941C10.0731 5.44292 9.67558 5.61874 9.07932 6.16913C8.49071 6.70424 8.2996 7.05588 8.2996 7.59098C8.2996 7.9732 8.30724 7.98084 8.4372 7.86618C8.55186 7.7668 8.59773 7.75916 8.67417 7.8356C8.75826 7.91204 8.76591 7.86618 8.72768 7.59863C8.67417 7.22405 8.75062 7.18583 8.97995 7.47632L9.14048 7.68271V7.32343C9.14048 7.13232 9.16341 6.97179 9.20163 6.97179C9.23221 6.97179 9.35452 7.11703 9.48448 7.29285L9.71381 7.62156L9.76732 7.27756C9.86669 6.69659 9.89727 6.68895 10.1648 7.24699L10.4171 7.77445L10.5165 7.25463C10.6082 6.76539 10.7458 6.49019 10.7458 6.80361C10.7458 6.8877 10.8222 7.19348 10.9063 7.47632C11.0363 7.89676 11.0821 7.9732 11.1357 7.85089C11.1662 7.7668 11.1968 7.60627 11.1968 7.48396C11.2045 7.18583 11.2962 7.22405 11.5485 7.65978C11.6784 7.86618 11.8007 8.042 11.8236 8.042C11.8466 8.042 11.9001 7.88147 11.9383 7.67507L12.0071 7.31578L12.2517 7.64449C12.5116 7.99613 12.5193 7.99613 12.6263 7.40752C12.6875 7.06352 12.7792 7.04059 12.848 7.35401C12.9168 7.66743 12.9856 7.69036 13.3907 7.51454C13.8723 7.3005 13.8953 7.31578 13.536 7.62156C13.3525 7.78209 13.2761 7.88911 13.3449 7.88911C13.406 7.89676 13.5666 7.94262 13.6889 7.99613L13.9182 8.09551L13.4978 8.23311C12.9244 8.41657 12.504 8.63061 12.2594 8.86759C12.0224 9.08163 12.0453 9.18865 12.3205 9.18865C12.5728 9.18865 12.5499 9.27274 12.2288 9.49443C12.0759 9.5938 11.9001 9.76198 11.8389 9.85371C11.7319 10.0142 11.7319 10.0448 11.8542 10.1824C11.9842 10.3277 11.9842 10.3429 11.7931 10.6334L11.5943 10.9392L11.8007 10.9621C11.9918 10.9851 12.0071 11.0157 12.03 11.3367C12.0453 11.5584 11.9918 11.8642 11.8924 12.1394C10.7076 15.3882 10.1572 17.7503 10.0119 20.1812C9.98136 20.6552 9.93549 21.0374 9.91256 21.0374C9.88198 21.0374 9.81318 20.9074 9.75967 20.7546C9.54563 20.1507 8.84235 18.7517 8.30724 17.865C7.6957 16.8483 7.58868 16.5502 7.79507 16.4355C7.91738 16.3667 7.91738 16.3514 7.7645 16.2444C7.64219 16.1603 7.61161 16.0762 7.64219 15.9463C7.68041 15.7934 7.64983 15.7399 7.4205 15.6328C7.1453 15.5029 7.06886 15.3806 7.26761 15.3806C7.46637 15.3806 7.38992 15.22 7.13766 15.1207C7.00006 15.0595 6.70193 14.9907 6.4726 14.9601L6.05216 14.9066L6.27385 14.792L6.49553 14.6697L6.2662 14.5703L6.04452 14.4633L6.32736 14.4938C6.57198 14.5244 6.6102 14.5091 6.65606 14.3257L6.70957 14.1193L6.84717 14.3868C6.93126 14.5321 6.99242 14.6161 7.00006 14.5703C7.00006 14.5321 7.04593 14.425 7.10708 14.3409C7.2141 14.2033 7.22175 14.2033 7.30583 14.425L7.39757 14.6544L7.49694 14.3868C7.59632 14.0963 7.68805 14.0658 7.77214 14.2874C7.84094 14.4709 7.90209 14.318 7.93267 13.8899L7.9556 13.5842L8.10085 13.8899L8.24609 14.1957L8.32253 13.867C8.36075 13.6912 8.42191 13.5459 8.44484 13.5459C8.47542 13.5459 8.53658 13.6606 8.59773 13.7906L8.69711 14.0428L8.77355 13.8288C8.81177 13.7141 8.88057 13.6224 8.91879 13.6224C8.95702 13.6224 8.98759 13.7141 8.98759 13.8288V14.0428L9.14048 13.8517L9.29337 13.6606V13.8517C9.29337 13.997 9.33159 14.0505 9.4539 14.0505C9.5915 14.0505 9.60678 14.0122 9.56856 13.8211C9.46919 13.3319 8.66653 12.7815 8.03969 12.7815C7.60396 12.7815 6.93891 12.942 6.25856 13.2172C5.99101 13.3242 5.75403 13.4007 5.73874 13.3778C5.71581 13.3625 5.72345 13.1637 5.75403 12.942L5.7999 12.5292L5.92985 12.7815C6.07509 13.0567 6.11331 13.0338 6.18976 12.6133C6.22798 12.4069 6.27385 12.3381 6.35029 12.3763C6.43438 12.4069 6.46496 12.3611 6.46496 12.2158C6.46496 11.9559 6.58727 11.9636 6.65606 12.2235C6.70957 12.4299 6.71722 12.4146 6.8166 12.0629C6.94655 11.5584 7.03828 11.4896 7.18352 11.7572C7.27526 11.9253 7.29819 11.9483 7.30583 11.8336C7.30583 11.7113 7.32112 11.7036 7.43579 11.7954C7.55045 11.8948 7.5581 11.8795 7.51223 11.6578C7.44343 11.3138 7.50459 11.1991 7.81801 11.0921C8.16965 10.9774 8.01676 10.8704 7.49694 10.8704C6.96184 10.8704 6.4038 11.1533 5.81519 11.7189L5.32595 12.1852L5.24186 11.8642C5.19599 11.6884 5.13484 11.4972 5.1119 11.4284C5.07368 11.3291 5.10426 11.3138 5.25715 11.352C5.43297 11.3979 5.44061 11.3826 5.41003 11.1609C5.37946 10.9469 5.39475 10.9316 5.53234 10.9621C5.67759 11.0004 5.68523 10.9851 5.62408 10.8704C5.51706 10.664 5.53234 10.5646 5.67759 10.5646C5.78461 10.5646 5.78461 10.5493 5.6623 10.4117C5.5247 10.2589 5.53234 10.2589 5.72345 10.2589C5.89927 10.2589 5.92985 10.2283 5.92985 10.0295C5.92985 9.89958 5.89163 9.8002 5.83812 9.8002C5.69288 9.8002 4.60738 10.4117 4.37805 10.6258C4.26338 10.7405 4.11814 11.0004 4.05698 11.2068C3.93467 11.6196 3.91174 12.621 4.01112 13.1408C4.04934 13.3242 4.06463 13.4695 4.04934 13.4695C4.03405 13.4695 3.88116 13.3166 3.70534 13.1255C3.25433 12.6439 2.37523 12.2082 1.95479 12.2693C1.64901 12.3075 1.34324 12.4987 1.34324 12.6515C1.34324 12.6898 1.48848 12.6974 1.71017 12.6668L2.06945 12.6133L1.88599 12.8121L1.70252 13.0108H2.02359H2.34465L2.22234 13.2402C2.06181 13.5459 2.0771 13.5689 2.34465 13.4313C2.59691 13.3013 2.73451 13.3319 2.58162 13.4848C2.44403 13.6224 2.46696 13.6912 2.63513 13.6453C2.72687 13.6224 2.82624 13.6835 2.94091 13.8364C3.025 13.9664 3.10144 14.081 3.10144 14.0963C3.10144 14.104 2.74215 14.104 2.30643 14.0963C1.14448 14.0581 0.288317 14.3104 0.0436977 14.7767C-0.0327458 14.9066 -0.0174571 14.9143 0.158363 14.8455C0.448849 14.7308 0.578803 14.7537 0.578803 14.899C0.578803 14.9984 0.617024 14.9754 0.724045 14.8149L0.869288 14.6009L0.968665 14.8761C1.08333 15.1971 1.15213 15.22 1.22093 14.9754L1.26679 14.8073L1.37382 14.9831L1.47319 15.1665L1.57257 14.9296C1.69488 14.6238 1.77132 14.6314 1.88599 14.9601C1.9395 15.1054 2.0083 15.2277 2.03123 15.2277C2.05416 15.2277 2.13825 15.1207 2.20705 14.9984C2.37523 14.7155 2.45931 14.7079 2.55105 14.9754L2.62749 15.1895L2.72687 14.9372C2.84153 14.662 2.94855 14.6161 2.94855 14.8455C2.94855 14.9296 3.00206 14.9984 3.06322 14.9984C3.24668 14.9984 3.20082 15.0977 2.8186 15.457C2.12296 16.1374 1.64137 17.1235 1.62608 17.9491C1.61079 18.3925 1.74074 18.8205 1.89363 18.8205C1.93185 18.8205 1.9395 18.7823 1.91656 18.7441C1.88599 18.6982 1.89363 18.553 1.91656 18.423L1.97008 18.1784L2.0771 18.3695C2.17647 18.5453 2.17647 18.5301 2.18412 18.1708C2.19176 17.8191 2.19941 17.7962 2.29878 17.9338C2.4058 18.079 2.41345 18.0714 2.41345 17.8038C2.41345 17.5286 2.51282 17.4216 2.58927 17.6127C2.6122 17.6662 2.63513 17.5822 2.63513 17.414C2.64278 17.1846 2.66571 17.1311 2.75744 17.1694C2.84918 17.1999 2.87211 17.1464 2.87211 16.9324C2.87211 16.7031 2.8874 16.6725 2.98677 16.7566C3.07851 16.833 3.10908 16.8254 3.14731 16.7336C3.17788 16.6572 3.26962 16.619 3.41486 16.6266C3.53717 16.6343 3.63654 16.6495 3.63654 16.6648C3.63654 16.6801 3.53717 16.833 3.4225 17.0088C3.10908 17.4675 3.07851 17.5974 3.22375 17.758C3.33841 17.8803 3.33841 17.9185 3.23904 18.0714C3.05557 18.3542 3.01735 18.6524 3.10908 18.9964C3.19317 19.3021 3.20082 19.3098 3.26962 19.134C3.30784 19.0269 3.37664 18.897 3.4225 18.8358C3.49895 18.7517 3.52952 18.7594 3.59832 18.897C3.68241 19.0499 3.69005 19.0422 3.82765 18.7441C3.91939 18.5453 4.00347 18.446 4.07227 18.4689C4.14107 18.4995 4.17165 18.4383 4.17165 18.2854C4.17165 18.0255 4.21751 18.0026 4.41627 18.1861C4.56151 18.316 4.56151 18.3084 4.52329 18.1096C4.38569 17.4751 4.38569 17.5057 4.54622 17.5592C4.68382 17.5974 4.69146 17.5822 4.62267 17.3528C4.53093 17.0088 4.53093 16.963 4.67618 17.0165C4.76791 17.047 4.7832 17.0241 4.75262 16.9095C4.72969 16.8254 4.68382 16.6878 4.66089 16.6037C4.63795 16.5119 4.65324 16.4508 4.70675 16.4508C4.76791 16.4508 4.76026 16.3896 4.67618 16.2673C4.56916 16.0915 4.56916 16.0686 4.69911 15.9004L4.84435 15.7246L4.93608 16.2062C5.01253 16.596 5.05075 16.6648 5.13484 16.596C5.22657 16.5272 5.24186 16.5731 5.24186 16.8942C5.24186 17.2458 5.25715 17.2764 5.40239 17.2382C5.54763 17.1999 5.56292 17.2152 5.53234 17.4293C5.50177 17.628 5.51706 17.651 5.60114 17.5822C5.75403 17.4598 5.78461 17.5363 5.70816 17.8115C5.63936 18.0408 5.70816 18.1478 5.81519 17.9797C5.92985 17.7962 6.02158 17.9262 5.99865 18.2396C5.96807 18.5453 5.98336 18.5683 6.10567 18.4995C6.18211 18.4613 6.25091 18.4383 6.25856 18.4536C6.48789 18.9046 6.60255 19.0804 6.83188 19.2945C6.97713 19.4321 7.0765 19.4932 7.05357 19.4168C7.03064 19.348 6.98477 19.1569 6.95419 18.9964C6.90833 18.7288 6.90833 18.7135 7.02299 18.8129C7.1453 18.9046 7.1453 18.8893 7.03828 18.5836C6.96184 18.3695 6.94655 18.2396 7.00006 18.209C7.16059 18.1096 6.85482 17.3452 6.55669 17.0853C6.4038 16.9477 6.31207 16.8407 6.35793 16.833C6.4038 16.833 6.28913 16.6725 6.09038 16.4737C5.81519 16.1909 5.76932 16.1068 5.8687 16.0839C6.18211 16.0227 7.09179 16.9859 7.68041 18.0179C8.36075 19.2028 8.97995 20.9915 9.36217 22.9103C9.5227 23.6747 9.55327 23.9958 9.49212 24.0263C9.44625 24.0569 9.23986 24.1028 9.03346 24.1334C7.4205 24.3627 5.30301 25.3947 3.91939 26.6101L3.47601 27H10.9751C15.6 27 18.4589 26.9694 18.4284 26.9312C18.3596 26.8089 17.2511 25.9374 16.8154 25.6622C15.4776 24.8061 13.7271 24.1792 12.2364 24.034C11.7396 23.9805 11.709 23.9728 11.6478 23.7511C11.5408 23.3995 11.5485 18.9123 11.6478 17.8268C11.9307 14.9372 12.5499 12.6363 13.4748 11.0921C14.0558 10.1136 14.7209 9.44856 14.7209 9.83842C14.7209 10.0219 14.438 10.5264 14.1781 10.8322C14.0023 11.0309 13.9717 11.0997 14.0634 11.0997C14.2393 11.0997 14.2163 11.1533 13.8876 11.5508C13.6124 11.8795 13.5818 11.9636 13.536 12.4757C13.5131 12.7891 13.4748 13.1255 13.4519 13.2249C13.4213 13.3778 13.4366 13.4007 13.5742 13.3548C13.7347 13.3013 13.7347 13.2631 13.6124 14.3104L13.5818 14.5779L13.773 14.3486L13.9641 14.1193L13.9182 14.769L13.8723 15.4188L14.0711 15.1895C14.3692 14.8455 14.7209 14.081 14.7209 13.7676C14.7209 13.416 14.7667 13.3778 15.0343 13.5154C15.2942 13.6453 15.3018 13.63 15.1489 12.9879C15.0419 12.5216 15.0649 12.491 15.4088 12.6668L15.6382 12.7815L15.4471 12.3534C15.3401 12.1164 15.256 11.91 15.256 11.8871C15.256 11.8718 15.363 11.9253 15.4853 12.0171C15.7452 12.2005 15.7605 12.1623 15.6 11.7189L15.4929 11.4055H15.7146C15.9822 11.4055 15.9822 11.3902 15.8216 10.7787C15.7605 10.5264 15.7223 10.2971 15.7452 10.2742C15.7681 10.2512 15.8675 10.2971 15.9516 10.3812L16.1198 10.5264L16.0816 9.73905C16.0586 9.31096 16.0663 8.95932 16.0968 8.95932C16.1198 8.95932 16.2421 9.0587 16.3568 9.18101C16.5555 9.38741 16.5631 9.42563 16.4867 9.65496C16.4179 9.869 16.4179 9.91487 16.5173 9.97602C16.6167 10.0295 16.6319 10.1213 16.5861 10.4653L16.5326 10.8933L16.739 10.8398C16.9377 10.794 16.9377 10.794 16.9377 11.2526C16.9377 11.6884 16.9454 11.7113 17.083 11.6348C17.1671 11.5966 17.2511 11.5584 17.2741 11.5584C17.297 11.5584 17.3199 11.8412 17.3199 12.1852V12.8197L17.5187 12.5216C17.748 12.1852 17.8168 12.2311 17.9009 12.7739L17.9544 13.1102L18.0614 12.9115C18.115 12.7968 18.1761 12.7051 18.1914 12.7051C18.2067 12.7051 18.3672 12.8962 18.5507 13.1331L18.8794 13.5612L18.9635 13.3166L19.0476 13.072L19.2845 13.2707C19.4221 13.3854 19.5521 13.5536 19.5827 13.6453C19.6362 13.8058 19.6362 13.8058 19.6973 13.6606C19.8732 13.1943 19.7126 12.4681 19.3304 12.0171C19.0781 11.7266 19.0781 11.7113 19.1852 11.4896C19.254 11.3673 19.2845 11.1991 19.2616 11.1227C19.231 11.0462 18.9635 10.7328 18.6653 10.427C18.2067 9.96073 18.1532 9.87664 18.2984 9.87664C18.3978 9.87664 18.543 9.83842 18.6348 9.79256C18.7571 9.72376 18.8182 9.73905 18.9635 9.87664L19.1393 10.0448L19.1928 9.88429C19.2769 9.60909 19.361 9.70847 19.4221 10.1442C19.468 10.557 19.5521 10.6717 19.6438 10.45C19.7279 10.2206 19.8273 10.3429 19.919 10.8093C19.9802 11.138 20.026 11.245 20.0795 11.1685C20.1178 11.1074 20.1483 11.0004 20.1483 10.9239C20.1483 10.6487 20.2859 10.8093 20.3395 11.1456C20.4235 11.7189 20.4618 11.7648 20.607 11.4743L20.7446 11.2221L20.8822 11.826L21.0198 12.4375L21.081 12.1394C21.1192 11.9712 21.165 11.8183 21.1803 11.803C21.2415 11.7419 21.4479 12.2999 21.4479 12.5292L21.4555 12.7433L21.6084 12.5522C21.746 12.3916 21.7613 12.2846 21.7384 11.7419C21.7154 11.1838 21.6772 11.0539 21.3562 10.4041C20.7599 9.21159 19.7814 8.1796 18.7647 7.69036C18.5201 7.56805 18.3213 7.44574 18.3213 7.42281C18.3137 7.39987 18.4054 7.33872 18.5125 7.28521C18.6959 7.20877 18.7112 7.1629 18.673 6.91063C18.6195 6.59722 18.5965 6.57428 19.0934 7.20877L19.2998 7.46867L19.3075 7.06352C19.3075 6.84948 19.3228 6.66602 19.3457 6.66602C19.4451 6.66602 19.9878 7.07117 20.026 7.17054C20.1101 7.39223 20.2095 7.26227 20.2936 6.8189C20.3471 6.56664 20.4083 6.36024 20.4465 6.36024C20.5153 6.36024 20.8669 6.73481 20.9739 6.93357C21.0504 7.07117 21.058 7.05588 21.0657 6.81126C21.0657 6.4214 21.1421 6.39846 21.3638 6.72717L21.5626 7.01001L21.6314 6.49019C21.6619 6.20735 21.7231 5.97802 21.7537 5.97802C21.7919 5.97802 21.9371 6.11562 22.0824 6.29144L22.3499 6.60486L22.3117 6.2838C22.2735 5.99331 22.2811 5.96273 22.4111 6.00096C22.4875 6.02389 22.7092 6.06211 22.9003 6.09269L23.2443 6.13855L22.9538 5.87865C22.5716 5.52701 21.9448 5.3359 21.2186 5.34354C20.6147 5.35118 18.8641 5.67225 18.4207 5.86336C18.2755 5.92451 18.1608 5.95509 18.1608 5.9398C18.1608 5.92451 18.2373 5.72576 18.3213 5.48878C18.4666 5.10657 18.5125 5.0607 18.7036 5.0607C18.9635 5.0607 18.9864 4.98426 18.7724 4.79315C18.5354 4.57911 18.5889 4.54088 19.0093 4.61733C19.2234 4.65555 19.4145 4.67848 19.4298 4.65555C19.4451 4.64026 19.3533 4.48737 19.231 4.3192L18.9941 4.00578L19.4756 3.89111L19.9572 3.78409L19.6744 3.61592C19.5139 3.51654 19.3839 3.41716 19.3839 3.37894C19.3839 3.34836 19.6285 3.29486 19.9267 3.27192L20.4694 3.21841L20.3012 3.03495C19.942 2.65273 19.3075 2.60686 18.6959 2.92028C17.9697 3.28721 16.8001 4.55617 16.6625 5.11421C16.5708 5.48114 16.502 5.2671 16.4561 4.46444C16.372 2.98908 15.9287 1.74305 15.2942 1.17737C14.9884 0.909815 14.8049 0.833372 13.8188 0.558174C13.1996 0.382355 12.6492 0.244757 12.5881 0.244757C12.5116 0.244757 12.4964 0.305912 12.5346 0.481731Z" fill="black"/>
</svg>
