<svg width="54" height="56" viewBox="0 0 54 56" fill="none" xmlns="http://www.w3.org/2000/svg">
<path d="M32.6318 0.634171C32.4595 0.914108 31.3828 3.82117 30.22 7.09431L28.1097 13.0807H27.1837H26.2362V11.2288C26.2362 9.07542 25.9132 8.19253 24.9011 7.61112C24.5351 7.39578 23.8891 7.22351 23.4584 7.22351C22.7262 7.22351 2.01072 12.607 0.761758 13.1022C0.438751 13.253 0.115744 13.5544 0.0726766 13.8129C0.00807517 14.0497 -0.0134586 23.0724 0.00807517 33.8608C0.0726766 53.069 0.0726766 53.4781 0.503353 54.038C1.45084 55.3085 1.06323 55.2869 15.6847 55.2869C30.3061 55.2869 29.8109 55.33 30.7368 54.0165C31.1675 53.435 31.189 53.112 31.189 48.8483C31.189 46.2212 31.2752 44.3047 31.3828 44.3047C31.4905 44.3047 33.2347 44.8861 35.2589 45.5967C38.0152 46.5658 39.0489 46.8457 39.3288 46.695C39.6087 46.5442 41.7621 40.687 46.5641 27.0777C53.2396 8.19253 53.4119 7.65419 53.0243 7.26658C52.6367 6.92204 33.7731 0.138893 33.1917 0.160427C33.0409 0.160427 32.7825 0.375767 32.6318 0.634171ZM42.5589 5.307C47.2317 6.96511 51.0647 8.34327 51.1078 8.38634C51.1724 8.45094 38.5536 44.4554 38.4028 44.6923C38.3813 44.7139 36.7663 44.1755 34.8282 43.508L31.2967 42.259L31.2321 38.6629C31.189 35.1744 31.189 35.0667 31.6412 34.9375C32.0073 34.8083 32.3518 35.0667 33.5147 36.3157C34.3114 37.1555 35.0651 37.8446 35.1943 37.8446C35.7111 37.8446 36.1633 37.2201 36.6801 35.7558L37.24 34.2054L36.6586 33.0856L36.0987 31.9443L36.6801 30.2216C37.0247 29.2526 37.3261 28.4343 37.3477 28.3912C37.3908 28.3482 37.9291 28.7788 38.5536 29.3387C40.2117 30.8461 40.5562 31.0184 41.0515 30.76C41.5037 30.5231 42.3866 28.262 42.3866 27.3791C42.3866 27.1207 41.7406 25.8502 40.9438 24.5798L39.5011 22.2756L40.104 20.5745L40.707 18.8948L39.9963 17.3875C39.5657 16.4615 39.1565 15.837 38.8766 15.7509C38.5966 15.6648 37.9076 15.8801 36.9816 16.3323L35.4958 17.0429L34.9144 18.7226C34.2683 20.5314 34.2253 20.5745 31.6843 21.3497L31.189 21.5004V18.1627V14.8249L30.5645 14.1143L29.9616 13.4037L31.9212 7.84799C32.9979 4.81173 33.9238 2.31381 33.9884 2.31381C34.053 2.31381 37.9076 3.67044 42.5589 5.307ZM24.0398 9.24769C24.1905 9.39843 24.2982 10.1952 24.2982 11.2934V13.0807L16.2876 13.0592C11.8732 13.0592 8.40626 12.9946 8.57853 12.9084C9.15994 12.6931 23.0923 9.01082 23.4584 9.01082C23.6307 8.98928 23.8891 9.09695 24.0398 9.24769ZM29.0787 15.1695C29.4448 15.4925 29.4663 16.3754 29.4663 34.1838C29.4663 48.3961 29.4017 52.8967 29.2079 53.0905C29.0141 53.2843 25.6764 53.3489 15.5555 53.3489C3.53962 53.3489 2.16145 53.3058 2.03225 53.0044C1.96765 52.8106 1.90305 44.154 1.90305 33.7316V14.8034H15.2971C27.4421 14.8034 28.7126 14.8465 29.0787 15.1695ZM38.4674 18.378C38.7043 18.8518 38.4674 19.67 36.4648 25.3334C35.2158 28.8434 34.2037 31.8582 34.2037 31.9874C34.2037 32.1381 34.4191 32.7195 34.699 33.2794C34.979 33.8393 35.1728 34.4638 35.1082 34.7006C35.0436 35.0236 34.8498 34.9375 33.9884 34.0762C33.0625 33.1502 32.8256 33.0425 32.0504 33.0641C31.2321 33.1071 31.189 33.0641 31.189 32.4827C31.189 32.0304 31.3182 31.7936 31.6197 31.7074C31.8566 31.6213 32.2011 31.3629 32.3518 31.1045C32.5241 30.8461 33.5793 28.0036 34.699 24.8166C35.8403 21.6081 36.8093 18.8518 36.8955 18.658C37.0031 18.3565 37.7138 17.8827 38.1014 17.8397C38.166 17.8181 38.3382 18.0765 38.4674 18.378ZM33.3424 22.9863C33.3424 23.1155 33.1917 23.5461 33.0409 23.9553C32.761 24.6228 32.6318 24.709 31.9642 24.709C31.2536 24.709 31.189 24.6659 31.189 24.0845C31.189 23.5461 31.3182 23.4169 32.115 23.137C33.2347 22.7278 33.3424 22.7063 33.3424 22.9863ZM39.6518 26.001C40.9869 28.1328 40.707 28.8434 39.0919 27.3791L38.0583 26.4532L38.3167 25.5703C38.4674 25.0966 38.6397 24.709 38.7043 24.709C38.7689 24.709 39.1996 25.2904 39.6518 26.001ZM31.9642 26.9915C31.8781 27.3145 31.6843 27.8744 31.512 28.2405L31.2321 28.908L31.2105 27.8098C31.189 26.6685 31.2752 26.4317 31.792 26.4317C32.0073 26.4317 32.0504 26.5824 31.9642 26.9915Z" fill="#293389"/>
<path d="M33.3639 8.79542C33.2347 9.16149 33.1271 9.5491 33.1271 9.65677C33.1271 9.76444 34.2684 10.2812 34.5483 10.2812C34.5698 10.2812 34.7206 9.93671 34.8498 9.50603C35.1297 8.66621 35.022 8.45088 34.1822 8.23554C33.687 8.10634 33.5793 8.19247 33.3639 8.79542Z" fill="#293389"/>
<path d="M36.5946 9.67783C36.207 10.7545 36.207 10.8191 36.853 11.0775C37.7144 11.4651 37.8005 11.4436 37.9512 10.8407C38.0158 10.5607 38.1235 10.1731 38.1881 10.0224C38.2742 9.82856 38.102 9.61323 37.7574 9.46249C36.9822 9.09641 36.8099 9.13948 36.5946 9.67783Z" fill="#293389"/>
<path d="M39.7168 10.798C39.6522 11.0779 39.5445 11.4655 39.4584 11.6378C39.3938 11.8532 39.566 12.0254 40.0398 12.1977C40.4274 12.3269 40.7719 12.4346 40.7935 12.4346C40.8581 12.4346 41.5256 10.9703 41.5256 10.8195C41.5256 10.7334 40.2336 10.2812 40.0182 10.2812C39.9321 10.2812 39.7814 10.5181 39.7168 10.798Z" fill="#293389"/>
<path d="M42.8161 12.1329C42.5362 12.9727 42.6439 13.188 43.4837 13.4033C43.9359 13.511 44.0651 13.4464 44.2804 12.9727C44.668 12.1113 44.6034 11.8529 43.8713 11.5945C43.4837 11.4653 43.1607 11.3576 43.1176 11.3576C43.0961 11.3576 42.9453 11.7022 42.8161 12.1329Z" fill="#293389"/>
<path d="M46.0268 13.0375C45.9192 13.3605 45.7684 13.7481 45.7253 13.8988C45.6392 14.1572 46.4144 14.5879 46.9958 14.5879C47.2327 14.5879 47.9218 13.1236 47.728 12.9944C47.7065 12.9513 47.3404 12.8221 46.9528 12.6929C46.2852 12.456 46.2422 12.4776 46.0268 13.0375Z" fill="#293389"/>
<path d="M13.8129 18.68C10.0229 19.2184 6.83594 22.47 6.18992 26.4107C5.58698 30.2222 7.76189 34.292 11.2719 35.9286C17.409 38.8141 24.2998 34.4858 24.2998 27.7242C24.2998 22.0824 19.4547 17.9048 13.8129 18.68ZM16.4615 20.9842C16.5261 21.3287 16.6769 21.9316 16.7846 22.3408C17.1506 23.7836 17.1506 23.7836 15.2557 23.7836C13.3176 23.762 13.3391 23.8051 13.7698 21.9101C14.0928 20.3812 14.0713 20.4027 15.2341 20.4027C16.2462 20.4027 16.3323 20.4458 16.4615 20.9842ZM11.8964 22.0608C11.5518 23.9343 11.5518 23.9343 10.1952 24.2358C9.50613 24.3865 8.90318 24.4511 8.83858 24.408C8.49404 24.0635 11.1858 21.2641 11.8533 21.2641C11.961 21.2641 11.9825 21.6302 11.8964 22.0608ZM19.8424 22.147C20.876 23.0299 21.845 24.2358 21.6727 24.3865C21.6297 24.4511 20.9836 24.3865 20.273 24.2573L18.9595 24.0204L18.7226 22.8145C18.335 20.898 18.3996 20.855 19.8424 22.147ZM17.2798 25.9154C17.4521 26.3461 17.4521 29.1024 17.2798 29.5331C17.1722 29.813 16.763 29.8776 15.1265 29.8776H13.1023V27.7242V25.5709H15.1265C16.763 25.5709 17.1722 25.6355 17.2798 25.9154ZM11.2719 27.7242C11.2719 29.6838 11.3365 29.6407 9.22619 29.1455L8.04183 28.8655V27.7242V26.5614L9.11852 26.303C11.315 25.7862 11.2719 25.7647 11.2719 27.7242ZM21.7804 26.4537C22.5556 26.6691 22.5771 26.6906 22.5771 27.7242C22.5771 28.7579 22.5556 28.7794 21.7804 28.9947C21.3282 29.1239 20.553 29.2747 20.0577 29.3608L19.1317 29.5115V27.7242V25.9369L20.0577 26.0877C20.553 26.1738 21.3282 26.3245 21.7804 26.4537ZM10.6474 31.2988L11.5303 31.428L11.7456 32.7631C11.8748 33.4738 11.9394 34.1198 11.8964 34.1628C11.7241 34.3566 10.0229 32.9785 9.44153 32.1602C8.66631 31.1266 8.62324 30.8682 9.29079 31.0189C9.5492 31.105 10.1521 31.2127 10.6474 31.2988ZM21.7158 31.1481C21.7158 31.6649 18.8303 34.3997 18.5719 34.1198C18.5073 34.0552 18.5719 33.4307 18.7011 32.7201L18.9595 31.4065L20.0792 31.2127C21.5866 30.9328 21.7158 30.9328 21.7158 31.1481ZM16.9784 31.9018C16.9784 32.1171 16.7846 33.0431 16.44 34.572C16.3323 35.0242 16.2247 35.0673 15.1911 35.0027L14.0713 34.9381L13.8129 33.8614C13.6837 33.2584 13.5545 32.5263 13.5545 32.2248C13.5329 31.6649 13.5329 31.6649 15.2557 31.6649C16.3754 31.6649 16.9784 31.7295 16.9784 31.9018Z" fill="#293389"/>
<path d="M10.5156 41.5049V42.3662H11.4846H12.4537V41.5049V40.6435H11.4846H10.5156V41.5049Z" fill="#293389"/>
<path d="M14.3926 41.5049V42.3662H15.2539H16.1153V41.5049V40.6435H15.2539H14.3926V41.5049Z" fill="#293389"/>
<path d="M18.0547 41.5049V42.3662H18.916H19.7774V41.5049V40.6435H18.916H18.0547V41.5049Z" fill="#293389"/>
<path d="M7.93359 45.166V46.0273H15.2551H22.5766V45.166V44.3046H15.2551H7.93359V45.166Z" fill="#293389"/>
<path d="M9.65625 48.8271V49.6885H15.1474H20.6385V48.8271V47.9658H15.1474H9.65625V48.8271Z" fill="#293389"/>
</svg>
