<svg width="85" height="83" viewBox="0 0 85 83" fill="none" xmlns="http://www.w3.org/2000/svg">
<path d="M0 13.6508C0 6.11167 6.11167 0 13.6508 0H71.441V71.1594C71.441 77.5448 66.2646 82.7212 59.8792 82.7212H11.5618C5.1764 82.7212 0 77.5448 0 71.1594V13.6508Z" fill="#293389"/>
<path d="M71.4425 0.0338715V20.6803H84.9297V10.8263C82.0524 1.44158 74.7394 -0.278953 71.4425 0.0338715Z" fill="#131C65"/>
<path d="M84.9297 21.2317V20.7009V20.6719H71.441V21.2317H84.9297Z" fill="#131C65"/>
<path d="M21.3136 48.5446C21.0566 48.579 20.7469 48.8457 20.7705 49.1306C20.9006 50.9738 20.6028 53.0353 20.7684 54.8505C20.8479 55.7301 21.8469 55.7118 22.0556 54.9225C21.9373 53.1105 22.2287 51.0727 22.0642 49.2887C22.0276 48.8951 21.7684 48.4833 21.3136 48.5435V48.5446Z" fill="white"/>
<path d="M29.2243 20.436C29.8179 20.5823 30.4179 20.6543 30.9932 20.8802C34.9043 22.4115 34.686 26.9108 34.4591 30.4605C34.3591 32.0294 33.6999 33.6027 32.4417 34.5791L32.7439 36.8384C35.4646 39.9548 40.8188 38.9762 41.1414 44.138C41.1941 44.9875 41.1586 46.0048 41.0575 46.8382H42.8684C42.9404 46.8382 43.4706 47.0393 43.5781 47.0941C44.2975 47.463 44.5986 48.2781 44.5212 49.0556C43.7545 52.3988 43.5459 56.112 42.7254 59.4134C42.4081 60.692 41.4704 61.5566 40.1348 61.6534H20.0042C19.2116 61.5781 18.5041 61.2361 18.218 60.4608C18.0642 60.0436 17.5943 58.281 17.5706 57.8864C17.5448 57.4724 17.9008 57.1164 18.3126 57.1379H24.4701L26.0004 48.5663C26.2864 47.7296 26.9897 47.2135 27.7747 46.879V42.6529L25.0153 44.6025C24.7992 44.7014 24.4841 44.7068 24.2809 44.5767C23.9292 44.352 22.8872 40.2559 22.6216 39.5946C20.5537 40.7205 17.3212 41.0108 17.0695 43.9025L17.0641 54.9238C16.8243 55.6776 16.1824 55.7088 15.7812 55.0496V43.6196C16.3867 39.1236 21.729 39.7268 24.1744 36.8395L24.4615 34.663C23.64 33.8511 22.9915 32.9844 22.6829 31.8488C22.3205 30.5186 22.3194 26.3978 22.5646 25.0074C23.0044 22.5147 25.1046 20.6801 27.6145 20.436H29.2243ZM33.1601 26.7871C33.2923 24.7988 32.5278 22.9384 30.6212 22.1372C28.5274 21.2576 25.5412 21.7222 24.3529 23.8148C24.1099 24.2439 23.7464 25.2397 23.755 25.716C23.7582 25.9279 24.2508 25.9795 24.4379 25.9892C25.1046 26.0247 25.6982 25.7687 26.1273 25.2665C26.4197 24.9235 26.6305 24.1611 27.0306 24.074C27.7532 23.917 27.7672 24.5676 28.065 25.0181C29.2845 26.8613 31.0481 27.2947 33.1622 26.7871H33.1601ZM23.7507 27.1979V30.7799C23.7507 32.3241 25.8584 34.5705 27.2908 34.9673C27.7768 35.1017 28.4403 35.1297 28.9458 35.0899C30.8083 34.9426 33.1687 32.5273 33.1687 30.6197V28.084C31.0459 28.6496 28.464 28.042 27.2908 26.072H27.1736C26.3079 27.128 25.082 27.4893 23.7507 27.1989V27.1979ZM25.6025 35.6502L25.5283 37.0438L28.4597 40.3161L31.3814 37.0417C31.4417 36.8438 31.3427 35.6599 31.1976 35.6512C29.9061 36.4599 28.0693 36.5933 26.6305 36.1104C26.4746 36.0577 25.6498 35.5953 25.6025 35.6502ZM32.1234 38.0643L29.4738 41.1775L31.8406 42.9723L33.1665 38.9838C33.1622 38.8386 32.2998 38.2041 32.1224 38.0633L32.1234 38.0643ZM24.6895 38.1568C24.5583 38.1687 23.7582 38.8752 23.7529 38.987L25.0766 42.9733L27.4499 41.2388L24.6884 38.1568H24.6895ZM39.8488 46.8382V43.8197C39.8488 43.6132 39.5488 42.7615 39.4316 42.5464C38.5347 40.8958 35.8646 40.5033 34.3333 39.5946L32.8504 44.2272C32.6471 44.6509 32.3471 44.7724 31.9019 44.6014C31.3384 44.3864 30.1394 43.2712 29.5232 42.8755C29.3824 42.7852 29.2383 42.6464 29.0619 42.6518V46.8371H39.8477L39.8488 46.8382ZM28.1554 48.1447C27.5489 48.3512 27.322 48.6308 27.1542 49.2373L25.367 59.45C25.3283 59.821 25.481 60.2006 25.8563 60.3092L40.4703 60.2995C41.0027 60.0941 41.2962 59.7295 41.45 59.1865C41.7995 55.8938 42.9211 52.3827 43.219 49.1233C43.2598 48.6813 43.2932 48.3609 42.8308 48.163L28.1543 48.1447H28.1554ZM24.2335 58.4294H19.0815C19.1923 58.8832 19.2665 59.7048 19.459 60.0995C19.4998 60.1844 19.8106 60.3608 19.8472 60.3608H24.154C24.0163 59.722 24.04 59.051 24.2346 58.4294H24.2335Z" fill="white"/>
<path d="M42.7462 31.0612C41.2568 31.0676 39.7933 30.6687 38.4007 30.1751C37.8759 31.9709 37.5716 33.8206 37.435 35.6895C37.4038 36.1229 37.4898 36.6197 37.4146 37.038C37.2888 37.7424 36.236 37.7757 36.1435 36.9778C36.0704 36.3401 36.1682 35.3078 36.2263 34.6421C36.3715 32.9764 36.7436 31.3343 37.1952 29.732C37.1619 29.3621 35.9682 29.3471 36.1607 28.4621C36.3801 27.4587 37.6544 28.4771 37.7533 28.404L38.5749 26.6888L39.6051 25.1844C39.2481 25.3231 38.8824 25.4446 38.5308 25.5984C38.0985 25.7866 36.678 26.6544 36.3973 26.6727C35.8284 26.7081 35.5478 26.0909 35.8317 25.636C36.0306 25.3188 38.0082 24.4123 38.4587 24.2391C44.2721 22.0078 50.7683 23.9563 54.402 28.9427C58.8894 35.1013 57.3829 43.8095 51.1415 48.111C50.6479 48.4518 49.1317 49.6089 48.8166 48.6121C48.537 47.7271 50.5049 47.227 50.9533 46.6366L49.0671 45.4656C48.5585 46.4775 48.0746 47.5367 47.3304 48.4056C46.7046 49.1358 45.7142 49.9283 45.6593 48.3443C46.6067 47.355 47.3659 46.2119 47.8939 44.9462C47.8756 44.6763 44.4979 43.931 44.0355 44.1053C44.0527 44.6892 43.4914 45.1398 42.9656 44.7472C42.9312 44.7214 42.7451 44.4816 42.7451 44.4634V37.5811H39.5653C39.3448 37.5811 39.0728 37.1337 39.0814 36.895C39.0878 36.7272 39.3836 36.2928 39.4857 36.2928H42.7462V31.0612ZM42.7462 24.7015C40.7944 25.1897 39.6384 27.1974 38.8943 28.9298C38.919 29.1772 42.2795 29.9224 42.7462 29.7729V24.7015ZM44.0345 29.7729C44.4969 29.9149 47.8778 29.1772 47.8961 28.9288C47.1143 27.2007 46.0077 25.208 44.0345 24.7026V29.774V29.7729ZM50.9565 27.2759C50.7038 26.7415 47.2648 25.0456 47.0928 25.1854C47.9057 26.135 48.6015 27.2243 49.0263 28.404L50.9565 27.2759ZM55.7053 36.2928C55.5064 33.2033 54.2052 30.2278 51.9631 28.1018C51.1576 28.6191 50.4135 29.2643 49.507 29.6138C50.2317 31.7602 50.5533 34.0302 50.6339 36.2939H55.7053V36.2928ZM44.0345 31.0612V36.2928H49.3467C49.2994 34.2163 48.9349 32.1677 48.38 30.1751C46.9799 30.6461 45.5292 31.0805 44.0345 31.0612ZM49.3467 37.5811H44.0345V42.6922C44.2162 42.9073 44.5399 42.7858 44.798 42.8138C46.0239 42.9471 47.2315 43.2611 48.38 43.6988C48.9392 41.7061 49.293 39.6576 49.3467 37.5811ZM55.7053 37.5811H50.6339C50.5565 39.8458 50.2253 42.1094 49.508 44.259C50.4232 44.5924 51.1609 45.2505 51.9631 45.7731C54.1923 43.6289 55.4967 40.6792 55.7053 37.5821V37.5811Z" fill="white"/>
<path d="M21.3131 48.5445C21.768 48.4842 22.0272 48.8961 22.0637 49.2897C22.2283 51.0737 21.9368 53.1115 22.0551 54.9235C21.8476 55.7128 20.8475 55.7311 20.7679 54.8514C20.6034 53.0362 20.9002 50.9737 20.7701 49.1316C20.7464 48.8456 21.0561 48.5789 21.3131 48.5455V48.5445Z" fill="white"/>
<path d="M35.0727 54.8665C35.4272 54.8665 35.7146 54.5791 35.7146 54.2245C35.7146 53.8699 35.4272 53.5825 35.0727 53.5825C34.7181 53.5825 34.4307 53.8699 34.4307 54.2245C34.4307 54.5791 34.7181 54.8665 35.0727 54.8665Z" fill="white"/>
</svg>
