<svg width="81" height="78" viewBox="0 0 81 78" fill="none" xmlns="http://www.w3.org/2000/svg">
<path d="M73.1591 77.2173H7.56818C5.56364 77.2086 3.64366 76.4021 2.22622 74.9734C0.80878 73.5447 0.00864413 71.6094 0 69.5889L0 26.4873H80.7273V69.5757C80.7187 71.5962 79.9185 73.5314 78.5011 74.9601C77.0836 76.3889 75.1637 77.1954 73.1591 77.2041V77.2173Z" fill="#808080"/>
<path fill-rule="evenodd" clip-rule="evenodd" d="M8.37613 74.7739H72.3509C73.9274 74.7669 75.4373 74.1326 76.552 73.009C77.6668 71.8854 78.2961 70.3635 78.303 68.7745V29.7585H2.42407V68.7745C2.42754 70.3646 3.05575 71.8885 4.17122 73.0129C5.2867 74.1372 6.79861 74.7704 8.37613 74.7739Z" fill="white"/>
<path fill-rule="evenodd" clip-rule="evenodd" d="M7.56818 4.4165H73.1591C75.1637 4.42522 77.0836 5.23172 78.5011 6.66043C79.9185 8.08914 80.7187 10.0244 80.7273 12.0449V29.7583H0V12.0449C0.00692606 10.0239 0.80651 8.0876 2.22432 6.65851C3.64213 5.22943 5.56311 4.42349 7.56818 4.4165ZM23.8542 10.8728C25.0639 10.8728 26.2464 11.2344 27.2523 11.9118C28.2581 12.5892 29.042 13.552 29.505 14.6785C29.9679 15.805 30.089 17.0446 29.853 18.2405C29.617 19.4364 29.0345 20.5348 28.1791 21.397C27.3237 22.2592 26.2339 22.8464 25.0475 23.0842C23.861 23.3221 22.6312 23.2 21.5136 22.7334C20.396 22.2668 19.4408 21.4766 18.7687 20.4628C18.0966 19.449 17.7379 18.2571 17.7379 17.0378C17.7379 15.4027 18.3823 13.8346 19.5294 12.6785C20.6764 11.5223 22.2321 10.8728 23.8542 10.8728ZM56.5643 10.8728C57.774 10.8728 58.9565 11.2344 59.9623 11.9118C60.9682 12.5892 61.7521 13.552 62.215 14.6785C62.6779 15.805 62.7991 17.0446 62.5631 18.2405C62.3271 19.4364 61.7446 20.5348 60.8892 21.397C60.0338 22.2592 58.944 22.8464 57.7575 23.0842C56.5711 23.3221 55.3413 23.2 54.2237 22.7334C53.1061 22.2668 52.1508 21.4766 51.4788 20.4628C50.8067 19.449 50.448 18.2571 50.448 17.0378C50.448 15.4027 51.0924 13.8346 52.2394 12.6785C53.3864 11.5223 54.9421 10.8728 56.5643 10.8728Z" fill="#EF4136"/>
<path fill-rule="evenodd" clip-rule="evenodd" d="M56.5642 9.68774C58.2513 9.68809 59.8861 10.278 61.19 11.3571C62.494 12.4361 63.3864 13.9375 63.7152 15.6054C64.044 17.2733 63.7889 19.0045 62.9934 20.504C62.1978 22.0036 60.911 23.1787 59.3523 23.8292C57.7935 24.4797 56.0592 24.5653 54.4448 24.0714C52.8304 23.5775 51.4359 22.5347 50.4989 21.1206C49.5618 19.7066 49.1401 18.0087 49.3057 16.3165C49.4714 14.6242 50.214 13.0421 51.4071 11.8398L51.4794 11.7736C52.8397 10.4366 54.6643 9.68816 56.5642 9.68774ZM56.5642 10.8731C57.7739 10.8731 58.9565 11.2346 59.9623 11.912C60.9681 12.5894 61.752 13.5523 62.215 14.6788C62.6779 15.8053 62.799 17.0448 62.563 18.2407C62.327 19.4366 61.7445 20.5351 60.8891 21.3973C60.0337 22.2595 58.9439 22.8466 57.7575 23.0845C56.571 23.3224 55.3412 23.2003 54.2236 22.7337C53.106 22.2671 52.1508 21.4769 51.4787 20.4631C50.8067 19.4492 50.4479 18.2573 50.4479 17.038C50.4479 15.403 51.0923 13.8349 52.2394 12.6787C53.3864 11.5226 54.9421 10.8731 56.5642 10.8731Z" fill="#C72B20"/>
<path fill-rule="evenodd" clip-rule="evenodd" d="M23.8543 9.68774C25.5414 9.68809 27.1761 10.278 28.4801 11.3571C29.784 12.4361 30.6764 13.9375 31.0052 15.6054C31.3341 17.2733 31.079 19.0045 30.2834 20.504C29.4879 22.0036 28.2011 23.1787 26.6423 23.8292C25.0835 24.4797 23.3492 24.5653 21.7348 24.0714C20.1205 23.5775 18.726 22.5347 17.7889 21.1206C16.8518 19.7066 16.4302 18.0087 16.5958 16.3165C16.7614 14.6242 17.504 13.0421 18.6971 11.8398L18.7694 11.7736C20.1297 10.4366 21.9543 9.68816 23.8543 9.68774ZM23.8543 10.8731C25.064 10.8731 26.2465 11.2346 27.2523 11.912C28.2581 12.5894 29.0421 13.5523 29.505 14.6788C29.9679 15.8053 30.0891 17.0448 29.8531 18.2407C29.6171 19.4366 29.0345 20.5351 28.1792 21.3973C27.3238 22.2595 26.234 22.8466 25.0475 23.0845C23.8611 23.3224 22.6313 23.2003 21.5137 22.7337C20.3961 22.2671 19.4408 21.4769 18.7688 20.4631C18.0967 19.4492 17.738 18.2573 17.738 17.038C17.738 15.403 18.3824 13.8349 19.5294 12.6787C20.6764 11.5226 22.2321 10.8731 23.8543 10.8731Z" fill="#C72B20"/>
<path d="M52.9116 3.01956C52.9116 1.32437 54.5277 0 56.5643 0C58.6009 0 60.217 1.32437 60.217 3.01956V17.0645C60.217 18.7266 58.5812 20.0775 56.5643 20.0775C54.5475 20.0775 52.9116 18.7531 52.9116 17.0645V3.01956Z" fill="#1A1A1A"/>
<path d="M20.2014 3.01956C20.2014 1.32437 21.8372 0 23.8541 0C25.871 0 27.5068 1.32437 27.5068 3.01956V17.0645C27.5068 18.7266 25.8776 20.0775 23.8541 20.0775C21.8307 20.0775 20.2014 18.7531 20.2014 17.0645V3.01956Z" fill="#1A1A1A"/>
<path d="M28.1112 54.67H23.0789V61.5832H17.1663V42.936H29.3003L28.558 47.7104H23.0789V50.2201H28.1112V54.67ZM43.5958 54.5508H37.6831V56.8154H44.9097V61.5832H31.7442V42.936H44.7783L44.0162 47.7104H37.67V50.2201H43.5826V54.5508H43.5958ZM48.1157 61.5832V42.936H57.7139C59.4877 42.936 60.7556 43.2826 61.5177 43.9757C61.9131 44.3702 62.2199 44.8457 62.4171 45.3701C62.6143 45.8945 62.6974 46.4555 62.6608 47.0151C62.7248 48.0958 62.4711 49.1714 61.9315 50.1075C61.4759 50.8153 60.772 51.3237 59.9607 51.5312V51.7034C62.3476 52.1183 63.5411 53.7628 63.5411 56.6366C63.6284 57.9441 63.2251 59.237 62.4111 60.2588C61.6228 61.1682 60.4074 61.6097 58.765 61.5832H48.1157ZM56.3474 54.1601H54.0349V57.2061H56.3211C57.1489 57.2061 57.5628 56.6962 57.5628 55.6831C57.5628 54.67 57.1554 54.1601 56.3474 54.1601ZM55.9006 47.0151H54.0349V49.7963H55.8744C56.6233 49.7963 57.0043 49.3327 57.0043 48.4057C57.0043 47.4786 56.6364 47.0151 55.9006 47.0151Z" fill="#1A1A1A"/>
</svg>
