<svg width="102" height="93" viewBox="0 0 102 93" fill="none" xmlns="http://www.w3.org/2000/svg">
<path d="M30.167 83.2641C29.8215 79.9053 28.6234 76.6906 26.6864 73.925C24.8186 71.3167 22.3913 69.5394 19.8406 69.5394C17.2898 69.5394 14.8543 71.3167 12.9865 73.925C11.0495 76.6906 9.85142 79.9053 9.50593 83.2641H30.167ZM94.6679 22.6798C94.2029 21.9689 93.4908 21.4557 92.6693 21.2396C91.8478 21.0235 90.9753 21.1198 90.2207 21.5099C89.4661 21.9 88.8831 22.5562 88.5844 23.3514C88.2857 24.1466 88.2925 25.0243 88.6037 25.8147C88.6887 26.015 88.7906 26.2076 88.9081 26.3907C90.0545 28.1499 91.0456 30.0055 91.8703 31.9365C92.2058 32.6954 92.8049 33.307 93.5567 33.6581C94.3085 34.0092 95.1621 34.076 95.9594 33.846C96.7566 33.6161 97.4435 33.105 97.8929 32.4075C98.3423 31.71 98.5237 30.8732 98.4035 30.0522C98.3548 29.769 98.2719 29.4927 98.1566 29.2294C97.1841 26.9579 96.0169 24.7747 94.6679 22.7044V22.6798ZM88.9575 13.5629C89.1068 14.4748 88.9195 15.4099 88.4306 16.194C87.9416 16.9782 87.1844 17.5578 86.2998 17.8251L76.1215 20.9354C75.6409 21.0875 75.135 21.1427 74.6329 21.0979C74.1308 21.053 73.6426 20.909 73.1966 20.6741C72.7506 20.4392 72.3557 20.1181 72.0347 19.7295C71.7137 19.3409 71.473 18.8924 71.3265 18.4101C71.1801 17.9278 71.1308 17.4212 71.1816 16.9197C71.2323 16.4182 71.3821 15.9317 71.6222 15.4885C71.8624 15.0453 72.1881 14.6542 72.5804 14.3378C72.9728 14.0213 73.4241 13.7859 73.9081 13.6452L74.8544 13.349C69.774 10.5957 64.1412 9.01584 58.37 8.72564C52.5988 8.43544 46.8359 9.44222 41.505 11.672C36.174 13.9018 31.4105 17.2979 27.5646 21.6106C23.7187 25.9234 20.8882 31.0432 19.281 36.5937H12.1883C13.8495 29.7659 17.0685 23.4154 21.5935 18.0394C26.1184 12.6633 31.8264 8.40765 38.2704 5.60562C44.7145 2.80359 51.7196 1.53124 58.7374 1.88822C65.7552 2.2452 72.5952 4.22181 78.7216 7.66328L77.7672 5.19482C77.4038 4.24772 77.4316 3.19507 77.8444 2.26844C78.2571 1.34182 79.0211 0.617122 79.9682 0.253776C80.9153 -0.109569 81.9679 -0.0817996 82.8946 0.330977C83.8212 0.743753 84.5459 1.50772 84.9092 2.45482L88.7107 12.4027C88.8516 12.7775 88.9348 13.1714 88.9575 13.5711V13.5629ZM56.4232 86.0123C59.0256 86.0034 61.6222 85.7638 64.1824 85.2964C65.0418 85.2652 65.8816 85.5578 66.5355 86.1164C67.1894 86.6749 67.6097 87.4587 67.7132 88.3124C67.8167 89.1662 67.5958 90.0277 67.0943 90.7263C66.5928 91.4249 65.8472 91.9097 65.0052 92.0847C62.9985 92.4649 60.9707 92.7232 58.9328 92.8581C57.8549 92.9075 56.4643 92.8581 55.3617 92.8581C52.3405 92.793 49.3332 92.4264 46.3848 91.7638V84.7369C49.6455 85.6088 53.0067 86.0487 56.382 86.0452L56.4232 86.0123ZM75.5538 81.0754C75.1417 81.2855 74.7763 81.5768 74.4796 81.9317C74.183 82.2866 73.9612 82.6979 73.8275 83.1407C73.6938 83.5836 73.6511 84.0489 73.7019 84.5087C73.7526 84.9684 73.8958 85.4132 74.1229 85.8162C74.3499 86.2193 74.6561 86.5722 75.0231 86.8539C75.39 87.1355 75.8101 87.3401 76.2581 87.4553C76.7062 87.5704 77.1728 87.5938 77.6301 87.524C78.0874 87.4542 78.5258 87.2926 78.9191 87.049C81.0751 85.8307 83.128 84.4382 85.0573 82.8856C85.6767 82.3815 86.1008 81.6772 86.2566 80.8941C86.4125 80.1109 86.2903 79.2979 85.9111 78.5952C85.532 77.8924 84.9196 77.3439 84.1795 77.0442C83.4394 76.7444 82.6179 76.7122 81.8566 76.953C81.4545 77.0819 81.0804 77.2857 80.754 77.5537C79.1181 78.8655 77.379 80.0432 75.5538 81.0754ZM89.0645 68.2064C88.8262 68.5879 88.6654 69.0125 88.5913 69.4561C88.5171 69.8996 88.5311 70.3535 88.6323 70.7917C88.7335 71.2299 88.9201 71.6438 89.1813 72.0099C89.4425 72.376 89.7733 72.687 90.1547 72.9253C90.9251 73.4065 91.855 73.562 92.74 73.3575C93.6249 73.153 94.3924 72.6054 94.8736 71.8351C96.1884 69.7371 97.3304 67.5356 98.2883 65.2525C98.602 64.4852 98.6272 63.6303 98.3595 62.8458C98.0917 62.0613 97.5489 61.4002 96.8316 60.9849C96.1142 60.5695 95.2707 60.4279 94.457 60.5862C93.6433 60.7445 92.9145 61.192 92.4051 61.846C92.2242 62.0805 92.0748 62.3378 91.9608 62.6113C91.1521 64.5507 90.1833 66.4195 89.0645 68.1982V68.2064ZM94.9312 50.417C94.8746 51.2599 95.1309 52.0941 95.6511 52.7597C96.1713 53.4253 96.9188 53.8756 97.7503 54.0244C98.5819 54.1732 99.4391 54.01 100.158 53.566C100.877 53.1221 101.406 52.4286 101.645 51.6184C101.711 51.3958 101.752 51.1669 101.769 50.9354C101.967 48.4709 101.967 45.9945 101.769 43.53C101.732 43.0816 101.606 42.6449 101.4 42.2449C101.194 41.8449 100.911 41.4893 100.568 41.1986C99.8743 40.6115 98.9759 40.3239 98.0703 40.3992C97.1646 40.4745 96.326 40.9065 95.7388 41.6001C95.1517 42.2937 94.8641 43.1921 94.9394 44.0978C95.1081 46.1953 95.1081 48.303 94.9394 50.4006L94.9312 50.417ZM49.4457 28.7851C49.4894 27.8795 49.88 27.0254 50.5364 26.3999C51.1928 25.7745 52.0648 25.4256 52.9714 25.4256C53.8781 25.4256 54.7501 25.7745 55.4065 26.3999C56.0629 27.0254 56.4535 27.8795 56.4972 28.7851V50.2525L71.1764 56.7116C71.6189 56.8841 72.0221 57.1444 72.3614 57.4767C72.7008 57.8091 72.9695 58.2066 73.1512 58.6455C73.3329 59.0844 73.424 59.5555 73.419 60.0305C73.4139 60.5055 73.3128 60.9745 73.1217 61.4094C72.9306 61.8443 72.6536 62.236 72.3072 62.5611C71.9608 62.8861 71.5522 63.1377 71.106 63.3007C70.6599 63.4637 70.1853 63.5348 69.711 63.5096C69.2366 63.4845 68.7723 63.3636 68.3458 63.1543L51.7413 55.8559C51.0698 55.6053 50.4904 55.1561 50.0803 54.5682C49.6702 53.9803 49.4489 53.2814 49.4457 52.5646V28.7851ZM11.1598 58.0035H28.5213C29.4023 56.1945 29.9593 54.245 30.167 52.2437H9.48948C9.69345 54.2458 10.2506 56.1958 11.1351 58.0035H11.1598ZM2.83285 87.0655C2.5835 87.115 2.32626 87.1086 2.07968 87.0467C1.83309 86.9849 1.60328 86.8691 1.40679 86.7078C1.21031 86.5465 1.05203 86.3437 0.943358 86.1138C0.834685 85.884 0.77832 85.6329 0.77832 85.3787C0.77832 85.1245 0.834685 84.8734 0.943358 84.6436C1.05203 84.4138 1.21031 84.2109 1.40679 84.0496C1.60328 83.8883 1.83309 83.7725 2.07968 83.7107C2.32626 83.6488 2.5835 83.6424 2.83285 83.6919H5.36714C5.67005 79.4218 7.1292 75.3145 9.58821 71.8104C10.9034 69.9099 12.616 68.318 14.6074 67.145C12.6187 66.1094 10.8848 64.6452 9.53062 62.8581C6.99437 59.5354 5.53832 55.5148 5.35891 51.3386H2.94805C2.69869 51.3881 2.44146 51.3817 2.19487 51.3199C1.94828 51.258 1.71848 51.1423 1.52199 50.981C1.3255 50.8196 1.16723 50.6168 1.05855 50.3869C0.94988 50.1571 0.893515 49.906 0.893515 49.6518C0.893515 49.3976 0.94988 49.1465 1.05855 48.9167C1.16723 48.6869 1.3255 48.484 1.52199 48.3227C1.71848 48.1614 1.94828 48.0456 2.19487 47.9838C2.44146 47.9219 2.69869 47.9155 2.94805 47.965H36.947C37.1964 47.9155 37.4536 47.9219 37.7002 47.9838C37.9468 48.0456 38.1766 48.1614 38.3731 48.3227C38.5696 48.484 38.7278 48.6869 38.8365 48.9167C38.9452 49.1465 39.0015 49.3976 39.0015 49.6518C39.0015 49.906 38.9452 50.1571 38.8365 50.3869C38.7278 50.6168 38.5696 50.8196 38.3731 50.981C38.1766 51.1423 37.9468 51.258 37.7002 51.3199C37.4536 51.3817 37.1964 51.3881 36.947 51.3386H34.314C34.1346 55.5148 32.6785 59.5354 30.1423 62.8581C28.7881 64.6452 27.0542 66.1094 25.0655 67.145C27.0569 68.318 28.7695 69.9099 30.0847 71.8104C32.5437 75.3145 34.0028 79.4218 34.3058 83.6919H36.84C37.0894 83.6424 37.3466 83.6488 37.5932 83.7107C37.8398 83.7725 38.0696 83.8883 38.2661 84.0496C38.4626 84.2109 38.6209 84.4138 38.7295 84.6436C38.8382 84.8734 38.8946 85.1245 38.8946 85.3787C38.8946 85.6329 38.8382 85.884 38.7295 86.1138C38.6209 86.3437 38.4626 86.5465 38.2661 86.7078C38.0696 86.8691 37.8398 86.9849 37.5932 87.0467C37.3466 87.1086 37.0894 87.115 36.84 87.0655H2.83285Z" fill="#293389"/>
</svg>
