<svg width="86" height="83" viewBox="0 0 86 83" fill="none" xmlns="http://www.w3.org/2000/svg">
<path d="M0 13.6508C0 6.11167 6.11167 0 13.6508 0H71.6818V71.4382C71.6818 77.8236 66.5054 83 60.12 83H11.5618C5.17639 83 0 77.8236 0 71.4382V13.6508Z" fill="#293389"/>
<path d="M71.6842 0.0339857V20.75H85.2168V10.8628C82.3298 1.44644 74.9922 -0.279893 71.6842 0.0339857Z" fill="#131C65"/>
<path d="M85.2168 21.3034V20.7708V20.7417H71.6827V21.3034H85.2168Z" fill="#131C65"/>
<path d="M35.1415 17.2713C34.5383 17.4337 34.1361 17.6657 33.7185 18.0833C32.11 19.6919 32.7518 22.445 34.9095 23.1796L35.3116 23.3188L35.3348 25.7239L35.3503 28.1368L35.1801 28.1677C35.0796 28.1909 34.7471 28.2218 34.4377 28.2528C32.11 28.4306 29.4342 29.5752 27.4003 31.2533L26.828 31.7173L25.1267 30.016L23.4176 28.3069L23.5723 28.0904C23.8816 27.6418 24.0208 27.1237 24.0208 26.3967C24.0208 25.7781 23.9899 25.6466 23.7733 25.1826C23.3171 24.2082 22.536 23.605 21.4842 23.4116C19.0173 22.9554 17.0994 25.5615 18.2285 27.8197C18.5533 28.4693 19.0173 28.9178 19.7133 29.2426C20.185 29.4669 20.301 29.4901 20.9661 29.4901C21.6312 29.4901 21.7472 29.4669 22.2112 29.2504L22.7216 29.0029L24.4307 30.7197L26.1398 32.4288L25.7531 32.8928C24.0363 34.9422 22.9304 37.6411 22.7061 40.3324L22.652 40.9742H20.2701H17.8805L17.7567 40.5257C17.0994 38.2598 14.269 37.5329 12.5986 39.2033C11.9257 39.8761 11.5777 40.9356 11.7479 41.8249C11.9876 43.1396 12.877 44.0753 14.153 44.3769C15.6146 44.7172 17.3005 43.7428 17.7258 42.3044L17.8186 41.9796H20.2392H22.652L22.7061 42.459C23.0077 45.39 24.1213 48.0348 25.8459 49.9682L26.248 50.4245L24.5544 52.1181L22.8608 53.804L22.2885 53.5178C21.7395 53.2472 21.6698 53.2317 20.9738 53.2317C20.301 53.2317 20.185 53.2549 19.7133 53.4792C19.0173 53.804 18.5533 54.2525 18.2285 54.9021C16.8983 57.5547 19.6978 60.3542 22.3504 59.024C23 58.6992 23.4485 58.2352 23.7733 57.5392C23.9976 57.0675 24.0208 56.9515 24.0208 56.2864C24.0208 55.6136 23.9976 55.5053 23.7656 55.0104L23.5104 54.4768L25.204 52.7832L26.8976 51.0895L27.4622 51.5535C29.4574 53.2317 32.195 54.3608 34.7548 54.5541L35.4276 54.6082L35.4121 57.0056L35.3889 59.403L35.01 59.5112C33.8422 59.8515 32.9374 60.9574 32.8214 62.1793C32.6745 63.7955 33.7726 65.203 35.4276 65.5046C36.6417 65.7289 38.057 65.0174 38.6215 63.8961C39.4876 62.1638 38.637 60.0912 36.8273 59.5344L36.3943 59.3952L36.3711 57.0056L36.3556 54.6082L37.0284 54.5541C38.5287 54.4381 40.1759 53.9818 41.5834 53.309C42.5501 52.8373 43.8493 52.0021 44.4757 51.4298L44.901 51.0354L46.6179 52.7522L48.3347 54.4613L48.1955 54.6546C47.8939 55.08 47.7624 55.6059 47.7624 56.3251C47.7624 56.9437 47.7933 57.0752 48.0099 57.5392C48.3192 58.1888 48.76 58.676 49.3323 58.9776C51.196 59.9752 53.4155 58.9312 53.8409 56.8432C53.9182 56.4565 53.9259 56.2555 53.8486 55.8069C53.663 54.7397 53.0598 53.9432 52.0699 53.4792C51.5982 53.2549 51.4822 53.2317 50.8171 53.2317C50.1443 53.2317 50.036 53.2549 49.5411 53.4869L49.0075 53.7421L47.3139 52.0485L45.6125 50.3471L46.0611 49.829C47.7624 47.8183 48.7909 45.2972 49.0848 42.4204L49.1312 41.9022L51.4435 41.8868C52.7195 41.8868 53.7945 41.879 53.8409 41.8713C53.8873 41.8636 53.9955 42.0724 54.0806 42.3353C54.7921 44.5084 57.5529 45.1503 59.1847 43.5185C59.8575 42.8457 60.2055 41.7862 60.0353 40.8969C59.7337 39.2419 58.3263 38.1438 56.71 38.2907C55.4881 38.4067 54.3822 39.3115 54.0419 40.4793L53.9337 40.8582L51.5286 40.8814L49.1312 40.8969L49.0771 40.3014C48.8373 37.6025 47.8088 35.0814 46.0688 32.9392L45.5352 32.2973L47.2443 30.5882L48.9456 28.8869L49.1622 29.0416C49.6107 29.3509 50.1288 29.4901 50.8558 29.4901C51.4744 29.4901 51.6059 29.4592 52.0699 29.2426C53.0211 28.7941 53.6321 28.0208 53.8409 26.9922C53.9182 26.6055 53.9259 26.4045 53.8486 25.9559C53.4851 23.8679 51.312 22.7543 49.4328 23.6978C48.7832 24.0226 48.3347 24.4866 48.0099 25.1826C47.7856 25.6543 47.7624 25.7703 47.7624 26.4354C47.7624 27.1082 47.7856 27.2165 48.0176 27.7114L48.2728 28.245L46.5869 29.9309C45.6589 30.8589 44.8856 31.6168 44.8624 31.6168C44.8392 31.6168 44.6072 31.4389 44.3597 31.2301C42.5191 29.6757 39.9826 28.5621 37.6548 28.2914C37.2604 28.245 36.7887 28.1832 36.6108 28.1677L36.2783 28.129V25.7471V23.3652L36.7887 23.1951C37.6935 22.9012 38.289 22.3754 38.6911 21.5169C39.2324 20.3647 38.9772 18.9959 38.0647 18.0833C37.6394 17.658 37.245 17.4337 36.6108 17.2713C36.0695 17.1321 35.6751 17.1321 35.1415 17.2713ZM36.7809 18.3462C37.5466 18.7097 38.0106 19.4444 38.0028 20.3028C37.9874 22.1511 35.706 23.0714 34.4068 21.7567C33.9737 21.3236 33.7726 20.8519 33.7726 20.2873C33.7804 19.0887 34.6929 18.1606 35.8916 18.1606C36.2628 18.1606 36.4948 18.2148 36.7809 18.3462ZM21.9019 24.5484C22.3117 24.7495 22.768 25.229 22.9459 25.6389C23.1315 26.0797 23.116 26.8762 22.9072 27.3015C22.5283 28.0904 21.8091 28.5466 20.9738 28.5466C20.3706 28.5389 19.9994 28.3997 19.5664 28.0053C19.1101 27.5877 18.8704 27.0695 18.8626 26.4741C18.8549 24.881 20.4866 23.837 21.9019 24.5484ZM51.7064 24.533C53.0598 25.1749 53.3382 26.969 52.2478 27.9744C51.7915 28.392 51.4203 28.5389 50.8094 28.5466C49.9742 28.5466 49.255 28.0904 48.876 27.3015C48.6672 26.8762 48.6517 26.0797 48.8373 25.6389C49.3091 24.5562 50.6547 24.0303 51.7064 24.533ZM37.9487 29.2968C40.5085 29.7376 42.6197 30.8434 44.5221 32.7381C45.6125 33.8285 46.2312 34.6715 46.8731 35.9475C48.8064 39.8065 48.5357 44.4697 46.1539 48.0735C44.9629 49.8754 43.4781 51.2287 41.6066 52.2186C35.9844 55.196 29.063 53.3786 25.5907 48.0116C23.232 44.3769 22.9845 39.791 24.9256 35.9088C25.552 34.6715 26.163 33.844 27.2688 32.7381C29.063 30.944 31.0041 29.8768 33.3937 29.3818C34.4145 29.173 34.4377 29.1653 35.8297 29.1498C36.7268 29.1421 37.2682 29.1808 37.9487 29.2968ZM15.6765 39.4353C17.0066 40.0694 17.3237 41.8249 16.2874 42.8457C15.2279 43.8975 13.5111 43.5959 12.877 42.2502C12.6372 41.7476 12.6295 41.0129 12.8538 40.5102C13.341 39.4198 14.6247 38.9326 15.6765 39.4353ZM57.8545 39.4353C58.6279 39.7755 59.0919 40.4948 59.0919 41.3609C59.0919 43.2556 56.8492 44.1836 55.4958 42.8457C54.5369 41.9022 54.6993 40.371 55.8361 39.5977C56.4548 39.1723 57.1276 39.1182 57.8545 39.4353ZM21.7936 54.3144C22.1571 54.469 22.7139 55.0104 22.9072 55.4125C23.1392 55.8997 23.1392 56.6731 22.9072 57.168C22.6907 57.6088 22.0875 58.1579 21.6776 58.2816C21.5152 58.3358 21.1672 58.3744 20.9197 58.3744C19.141 58.3744 18.1975 56.2245 19.3962 54.8944C20.0304 54.1906 20.9429 53.9741 21.7936 54.3144ZM51.7296 54.3685C52.155 54.5696 52.6963 55.1728 52.8201 55.5981C53.3305 57.2995 51.8147 58.792 50.1056 58.2816C49.7576 58.1811 49.2008 57.7171 48.9688 57.3381C48.5821 56.7117 48.6131 55.7605 49.0539 55.1186C49.6571 54.2293 50.7552 53.92 51.7296 54.3685ZM36.7036 60.5011C37.0826 60.6558 37.6394 61.1971 37.8327 61.5993C38.1962 62.3571 37.9874 63.3857 37.3455 63.9966C36.5335 64.7777 35.1415 64.7468 34.3681 63.9347C33.6412 63.1614 33.587 61.9009 34.2521 61.1198C34.8399 60.4238 35.8916 60.1531 36.7036 60.5011Z" fill="white"/>
<path d="M34.5381 32.088C33.7879 32.1963 32.9218 32.4437 32.1794 32.7686C26.1164 35.3824 24.6084 43.3015 29.2794 47.9724C32.9373 51.6381 38.8456 51.6381 42.5035 47.9724C44.3905 46.0855 45.3339 43.6572 45.2257 40.9814C45.0401 36.5115 41.8462 32.8768 37.4458 32.1267C36.6648 31.9952 35.3114 31.9797 34.5381 32.088ZM35.4274 35.6067V38.0582L34.9479 38.0041C33.9658 37.8958 32.102 37.2926 32.102 37.0915C32.102 36.9291 32.7285 35.7614 33.061 35.2974C33.2466 35.0344 33.641 34.5936 33.9271 34.3075C34.4298 33.8126 35.2418 33.1707 35.3733 33.163C35.4042 33.163 35.4274 34.2611 35.4274 35.6067ZM36.9277 33.5032C37.616 33.9904 38.6523 35.1272 39.0776 35.8387C39.5107 36.5811 39.7272 37.0915 39.6344 37.1766C39.3715 37.4163 37.7242 37.9035 36.8813 37.9963L36.3554 38.0505V35.6067C36.3554 34.2611 36.3786 33.163 36.4018 33.163C36.4328 33.163 36.6648 33.3176 36.9277 33.5032ZM33.061 33.7971C32.4346 34.4622 32.0866 34.9571 31.6071 35.8697L31.1972 36.643L30.973 36.4729C30.8492 36.3801 30.5476 36.1326 30.3002 35.9238L29.8516 35.5371L30.1068 35.2742C30.4626 34.903 31.2746 34.3152 31.901 33.9672C32.3882 33.7043 33.2775 33.3331 33.4477 33.3254C33.4863 33.3176 33.3085 33.5342 33.061 33.7971ZM38.7915 33.4723C39.6963 33.7816 41.0573 34.6323 41.676 35.2664L41.9235 35.5294L41.676 35.7691C41.5368 35.8929 41.2352 36.1481 41.0032 36.3259L40.5856 36.6507L40.1757 35.8697C39.6963 34.9571 39.3483 34.4622 38.7219 33.7971C38.4744 33.5342 38.2811 33.3176 38.3043 33.3176C38.3275 33.3176 38.544 33.3872 38.7915 33.4723ZM29.5578 36.5347C29.697 36.6817 30.0604 36.9833 30.3466 37.1998C30.7796 37.5246 30.8647 37.6251 30.826 37.7566C30.6946 38.2283 30.478 39.2956 30.4394 39.7364C30.4162 40.0148 30.3775 40.386 30.3543 40.5716L30.3156 40.8964L28.9081 40.8809L27.5007 40.8577L27.5239 40.5484C27.5857 39.7286 27.9337 38.4913 28.3359 37.687C28.5911 37.1689 29.1711 36.2563 29.2407 36.2563C29.2639 36.2563 29.4108 36.3801 29.5578 36.5347ZM42.9134 36.7513C43.3619 37.4395 43.7331 38.2593 43.9728 39.0636C44.1585 39.7364 44.3286 40.7881 44.259 40.8577C44.2358 40.8809 43.6016 40.8964 42.8438 40.8964H41.4672L41.4286 40.5638C41.4054 40.386 41.3667 40.0302 41.3435 39.775C41.3048 39.3497 41.0728 38.151 40.9568 37.7566C40.9181 37.6251 40.9955 37.5323 41.3976 37.2385C41.6683 37.0451 42.024 36.7435 42.1942 36.5734C42.3643 36.4033 42.519 36.2641 42.5422 36.2563C42.5654 36.2563 42.7355 36.4806 42.9134 36.7513ZM32.5351 38.383C33.3935 38.7078 34.0663 38.8702 34.8319 38.9476L35.3888 39.0017L35.412 39.9452L35.4352 40.8964H33.3781H31.3287V40.5252C31.3287 39.8988 31.6535 38.1123 31.7695 38.1123C31.7927 38.1123 32.133 38.2361 32.5351 38.383ZM40.0984 38.2438C40.2221 38.6614 40.3923 39.7054 40.4309 40.2545L40.4773 40.8964H38.4125H36.3477L36.3709 39.9452L36.3941 39.0017L36.9741 38.9476C37.701 38.8702 38.8997 38.5686 39.4565 38.3134C39.9669 38.0814 40.0443 38.0737 40.0984 38.2438ZM30.3543 42.1492C30.3698 42.3348 30.4239 42.7911 30.4703 43.1777C30.5167 43.5567 30.625 44.1676 30.7178 44.5311C30.826 44.9564 30.857 45.1884 30.8028 45.2116C30.6559 45.258 29.9831 45.7839 29.6042 46.1474C29.3876 46.3562 29.2098 46.4722 29.1788 46.4258C28.9081 46.0468 28.5215 45.4127 28.3359 45.0338C27.8641 44.0903 27.4543 42.474 27.5316 41.8785C27.5393 41.8476 28.1657 41.8244 28.9236 41.8244H30.3156L30.3543 42.1492ZM35.412 42.7679L35.3888 43.7191L34.8319 43.7732C34.0663 43.8505 33.3935 44.0129 32.5351 44.3377C32.133 44.4847 31.7927 44.6084 31.7772 44.6084C31.6612 44.6084 31.3287 42.8297 31.3287 42.1879V41.8244H33.3781H35.4352L35.412 42.7679ZM40.4232 42.4972C40.3768 43.1545 40.1293 44.4924 40.0443 44.5775C40.0211 44.6007 39.6963 44.5001 39.3173 44.3532C38.5672 44.0516 37.7397 43.8505 36.9277 43.7732L36.3941 43.7191L36.3709 42.7679L36.3477 41.8244H38.4125H40.4773L40.4232 42.4972ZM44.259 42.1724C44.1585 43.5335 43.532 45.142 42.604 46.418C42.5808 46.4567 42.4262 46.3562 42.256 46.2015C42.0936 46.0468 41.7224 45.7375 41.4363 45.521C41.0032 45.1962 40.9181 45.0879 40.9568 44.9642C41.096 44.4769 41.2971 43.4175 41.3435 42.9457C41.3667 42.6441 41.4054 42.2729 41.4286 42.1105L41.475 41.8244L42.8747 41.8398L44.2822 41.863L44.259 42.1724ZM35.4274 47.1218C35.4274 48.4597 35.4042 49.5578 35.381 49.5578C35.3501 49.5578 35.1181 49.4031 34.8551 49.2175C34.3061 48.8231 33.3239 47.8255 32.9605 47.2919C32.6666 46.8588 32.102 45.7762 32.102 45.6447C32.102 45.5519 32.8831 45.1962 33.525 44.9951C33.8962 44.8713 34.8474 44.7012 35.18 44.6935L35.4274 44.6857V47.1218ZM37.933 44.9177C38.5285 45.0647 39.5107 45.4282 39.6344 45.5442C39.8355 45.7298 38.9075 47.2996 38.0568 48.189C37.5 48.7767 36.5565 49.5578 36.4018 49.5578C36.3786 49.5578 36.3554 48.4597 36.3554 47.114V44.6625L36.8504 44.7167C37.121 44.7399 37.6082 44.8327 37.933 44.9177ZM32.2413 47.9338C32.4346 48.2122 32.8058 48.653 33.061 48.9159C33.3085 49.1866 33.5018 49.4031 33.4786 49.4031C33.4554 49.4031 33.2389 49.3335 32.9914 49.2485C32.0788 48.9314 30.7255 48.0885 30.1068 47.4466L29.8516 47.1836L30.3002 46.797C30.5476 46.5882 30.8492 46.3407 30.973 46.2479L31.205 46.07L31.5452 46.7506C31.7308 47.1218 32.0479 47.6554 32.2413 47.9338ZM41.0728 46.449C41.2662 46.6036 41.5368 46.8279 41.676 46.9594L41.9235 47.1914L41.676 47.4543C41.0573 48.0885 39.6963 48.9391 38.7915 49.2485C38.544 49.3335 38.3275 49.4031 38.3043 49.4031C38.2888 49.4031 38.4899 49.1634 38.7683 48.8773C39.3405 48.2663 39.8587 47.5162 40.2685 46.681C40.4309 46.3407 40.5933 46.1087 40.6397 46.1319C40.6861 46.1551 40.8795 46.302 41.0728 46.449Z" fill="white"/>
</svg>
