<svg width="70" height="80" viewBox="0 0 70 80" fill="none" xmlns="http://www.w3.org/2000/svg">
<path d="M49.9038 50.0952L34.9983 65.0007L20.0928 50.0952C8.92144 50.5796 0 59.7197 0 71.0004V72.5004C0 76.6408 3.35921 80 7.49963 80H62.4969C66.6374 80 69.9966 76.6408 69.9966 72.5004V71.0004C69.9966 59.7197 61.0751 50.5796 49.9038 50.0952ZM2.1249 12.472L3.12485 12.7064V21.831C2.03115 22.4872 1.24994 23.6278 1.24994 25.0027C1.24994 26.3151 1.96865 27.4088 2.98423 28.0807L0.546848 37.8146C0.281236 38.8926 0.874957 40.002 1.73429 40.002H8.26522C9.12455 40.002 9.71828 38.8926 9.45266 37.8146L7.01528 28.0807C8.03086 27.4088 8.74957 26.3151 8.74957 25.0027C8.74957 23.6278 7.96836 22.4872 6.87466 21.831V13.6126L17.1867 16.0969C15.843 18.7842 14.9993 21.7841 14.9993 25.0027C14.9993 36.049 23.952 45.0017 34.9983 45.0017C46.0446 45.0017 54.9973 36.049 54.9973 25.0027C54.9973 21.7841 54.1692 18.7842 52.8099 16.0969L67.8561 12.472C70.6997 11.7846 70.6997 8.23788 67.8561 7.55041L38.1075 0.363263C36.0764 -0.121088 33.9358 -0.121088 31.9047 0.363263L2.1249 7.53479C-0.703091 8.22225 -0.703091 11.7846 2.1249 12.472Z" fill="#293389"/>
</svg>
