<svg width="72" height="100" viewBox="0 0 72 100" fill="none" xmlns="http://www.w3.org/2000/svg">
<path fill-rule="evenodd" clip-rule="evenodd" d="M51.5656 52.6026C53.3367 50.3286 55.9433 48.8445 58.8142 48.4753C61.6852 48.1062 64.5865 48.8822 66.8824 50.6333C69.1741 52.3908 70.6701 54.9795 71.0419 57.8311C71.4137 60.6828 70.6309 63.5644 68.8655 65.8435C61.3038 75.5781 53.7422 85.2246 46.1725 94.9751C44.4151 97.238 41.825 98.7157 38.9712 99.0834C36.1174 99.4512 33.2333 98.679 30.9525 96.9364C28.6792 95.1874 27.1954 92.616 26.8253 89.784C26.4552 86.9519 27.229 84.0896 28.9775 81.8223C36.5472 72.0557 43.9879 62.3692 51.5495 52.6026H51.5656ZM3.61616 68.9256H32.4116L35.4427 65.011C39.0462 60.3358 42.6416 55.6847 47.4704 49.4565C48.6694 47.9147 50.1453 46.6065 51.8236 45.5979V34.8787C51.9042 28.3703 48.5345 21.1655 44.9875 16.4663L43.8589 14.9613H45.7856C46.8546 14.9613 47.8798 14.5396 48.6357 13.789C49.3916 13.0383 49.8163 12.0202 49.8163 10.9586V4.8025C49.8058 3.74416 49.3778 2.7321 48.6241 1.9837C47.8705 1.2353 46.8513 0.810241 45.7856 0.799813H6.53441C5.46026 0.797649 4.42877 1.21714 3.66471 1.96689C2.90066 2.71664 2.46595 3.73587 2.45532 4.8025V10.9186C2.45532 11.9802 2.87998 12.9983 3.63589 13.7489C4.39179 14.4996 5.41702 14.9213 6.48604 14.9213H7.96934C7.55821 15.4817 7.1632 16.026 6.73594 16.5704C2.64879 22.0621 -0.374249 29.0908 0.0852535 36.2476V80.2772C0.0623172 81.9049 0.671457 83.4788 1.78622 84.6722C2.88257 85.7289 4.47874 86.2733 6.67145 86.2092H21.6899C21.7807 85.5395 21.9154 84.8763 22.093 84.2239C22.2274 83.7193 22.3888 83.2223 22.5767 82.7349H7.57433C6.52331 82.809 5.48554 82.4664 4.68834 81.7823C4.11412 81.169 3.76235 80.383 3.68872 79.5488C3.68872 79.3726 3.61616 68.9336 3.61616 68.9336V68.9256ZM23.6488 41.0829H28.2519C28.6667 41.0829 29.0645 41.2465 29.3578 41.5378C29.6511 41.829 29.8158 42.224 29.8158 42.6359V47.8554H35.0719C35.4853 47.8554 35.8819 48.018 36.1749 48.3075C36.468 48.597 36.6337 48.99 36.6358 49.4005V53.9636C36.6358 54.3754 36.4711 54.7705 36.1778 55.0617C35.8845 55.353 35.4867 55.5166 35.0719 55.5166H29.7997V60.7361C29.7976 61.1439 29.6341 61.5344 29.3446 61.8235C29.055 62.1126 28.6625 62.277 28.2519 62.2811H23.6488C23.2355 62.2812 22.8389 62.1186 22.5458 61.8291C22.2528 61.5396 22.0871 61.1466 22.0849 60.7361V55.5166H16.8289C16.4155 55.5145 16.0198 55.3499 15.7282 55.0589C15.4367 54.7679 15.273 54.3741 15.273 53.9636V49.4005C15.2751 48.9914 15.4397 48.5996 15.7311 48.3103C16.0224 48.021 16.4169 47.8576 16.8289 47.8554H22.0849V42.6359C22.0849 42.224 22.2497 41.829 22.543 41.5378C22.8363 41.2465 23.2341 41.0829 23.6488 41.0829ZM48.0105 34.4224H3.89832C3.89832 32.7653 3.79352 34.4945 3.97087 32.9494C4.80522 27.5032 6.92384 22.3299 10.154 17.8513C10.807 16.9867 11.4761 16.0821 12.1694 15.1134H39.6669C40.2796 15.962 40.9406 16.8346 41.5936 17.7072C44.5683 21.6298 47.3979 28.1142 47.9218 33.0055C47.9783 33.4858 48.0105 34.4384 48.0105 34.4384V34.4224ZM53.8873 81.0297L40.7875 71.023L31.3072 83.2552C29.9753 84.9823 29.3863 87.1628 29.6687 89.32C29.9512 91.4772 31.0823 93.4356 32.8147 94.767C34.5535 96.0767 36.742 96.6531 38.9059 96.3714C41.0698 96.0897 43.0347 94.9725 44.3748 93.262L53.8873 81.0458V81.0297Z" fill="white"/>
</svg>
