<svg width="100" height="96" viewBox="0 0 100 96" fill="none" xmlns="http://www.w3.org/2000/svg">
<path d="M21.9852 0.943249C20.1214 1.37039 17.7915 3.07894 16.5878 4.86516C15.3452 6.76787 14.918 10.4568 15.6946 12.8255C16.9372 16.5921 21.8299 19.3102 25.8295 18.4559C35.1877 16.4367 35.576 3.46725 26.3731 0.982079C24.6257 0.516109 23.8491 0.516109 21.9852 0.943249Z" fill="white"/>
<path d="M62.0988 6.76784C56.8567 7.58329 50.9932 9.9908 46.9936 12.9808C44.9356 14.4952 40.0817 19.4267 39.4216 20.6693C39.111 21.2517 39.1886 21.5624 39.8099 22.1448C40.5865 22.8438 40.6254 22.8438 41.4408 21.7177C43.0717 19.349 48.1974 14.6117 50.8379 13.0584C58.9535 8.28224 68.5447 7.4668 77.437 10.8062C84.8148 13.5632 91.2996 19.6208 94.5614 26.7657C95.6486 29.1732 95.6875 29.445 95.105 30.0663C94.7944 30.4158 94.2507 32.1244 93.9401 33.8717C93.6683 35.5803 93.1246 37.5607 92.7752 38.2208C92.1539 39.3857 90.1347 40.939 89.2027 40.939C88.1155 40.939 87.1447 39.0751 86.0186 34.8037C83.8052 26.6104 81.6695 22.3002 79.728 22.3002C79.3009 22.3002 78.2136 23.3098 77.0098 24.8242C74.7577 27.6976 74.1364 28.1248 72.2725 28.1248C70.7969 28.1248 69.8261 27.5035 66.2925 24.164C63.7297 21.7565 62.526 21.3682 61.3999 22.6108C61.0504 22.9991 60.6621 23.8534 60.5067 24.4747C60.1961 26.1444 61.5163 27.853 65.5936 30.9206C70.0203 34.2212 72.0007 36.3181 72.0007 37.6383C72.0007 38.3373 70.9911 39.9294 68.8165 42.6087C65.3218 46.9577 63.5356 50.4525 62.4871 54.918C61.7105 58.2187 61.0115 59.5777 60.0796 59.5777C59.7301 59.5777 58.5652 58.9176 57.4779 58.0633C56.3907 57.2479 55.0316 56.2771 54.4491 55.9276C53.9055 55.5393 53.2842 54.9569 53.1289 54.6074C52.9736 54.2579 52.7406 50.9573 52.6241 47.2684C52.3523 39.5022 52.4299 39.6964 48.4692 38.3761L45.9064 37.483L46.217 39.8905C46.6442 43.6571 46.4888 56.5101 45.984 57.8304C45.4404 59.3059 44.1201 60.7038 42.9164 61.1698L41.9845 61.5581L43.1105 62.723C46.2558 66.0625 51.1485 69.0525 56.4683 70.9163C60.0408 72.1589 60.3126 72.1978 66.5644 72.1978C72.9326 72.1978 73.0103 72.1978 76.9322 70.7998C85.8244 67.6545 92.1539 62.0629 96.0758 53.9473C98.328 49.2876 99.1434 46.2588 99.4541 41.3273C100.58 23.1544 86.4069 7.50562 67.9623 6.61252C66.0207 6.49603 63.3802 6.57368 62.0988 6.76784ZM70.0591 48.4721C70.0591 49.0158 70.2533 49.5594 70.4474 49.6759C71.1076 50.103 70.8746 52.1611 70.0591 52.9765C69.2825 53.7531 69.2048 53.7531 68.1176 53.093C66.7197 52.2775 66.4867 51.6951 66.7973 49.9865C67.2245 47.812 70.0591 46.4918 70.0591 48.4721Z" fill="white"/>
<path d="M10.4928 20.3969C3.89154 24.7848 -1.31179 38.492 0.707412 46.2582C2.06649 51.578 5.63892 56.2377 10.0268 58.4122L12.3955 59.616L12.512 55.4999C12.5508 53.2089 12.7838 51.4227 12.9779 51.4227C13.2109 51.4227 13.3663 58.8005 13.3663 71.4205C13.3663 92.9328 13.4051 93.3211 15.3466 94.5637C17.6765 96.0781 20.3558 95.7286 22.1032 93.7094L23.074 92.5057V73.5174V54.5291H24.0447H25.0155V72.8573C25.0155 89.5934 25.0932 91.3408 25.7144 92.5445C27.6948 96.4664 32.4322 96.4664 34.4126 92.5445C35.0727 91.3408 35.1115 88.9721 35.1503 61.1304C35.1503 33.9488 35.228 31.1918 35.7328 32.5897C37.0919 36.201 37.5578 39.9288 37.6743 48.5104C37.7132 53.2089 37.7908 57.1696 37.7908 57.325C37.8685 58.0628 39.6547 59.1888 40.7031 59.1888C42.0622 59.15 42.9165 58.6064 43.5766 57.3638C44.1979 56.2765 44.1979 43.54 43.6155 38.8027C43.1495 34.9196 41.7127 29.6386 40.509 27.3088C39.4217 25.1731 37.2084 22.7655 35.461 21.8724C34.1796 21.2511 33.1311 21.1347 27.5395 21.1347H21.1324V23.1539C21.1324 25.0954 20.4335 28.7843 19.5404 31.5025C19.1909 32.6674 19.0744 32.7062 17.9871 32.3179C17.3658 32.1238 16.861 31.8908 16.861 31.8908C16.861 31.852 17.2105 30.687 17.6376 29.328C18.0648 27.93 18.5308 25.5225 18.6861 23.9693L18.9191 21.1347H16.8999C13.4051 21.1347 10.6093 23.1927 8.47357 27.3476C7.42514 29.328 7.34748 29.8328 7.34748 33.7547C7.34748 37.7931 7.42514 38.1814 8.59007 40.5501C10.1433 43.6954 12.0848 46.0252 15.036 48.1997C17.7153 50.1413 19.152 50.3354 20.55 48.8987C21.909 47.5784 21.8314 45.831 20.3946 44.5108C16.0456 40.4724 15.2301 39.5793 14.5312 38.2202C13.4827 36.1233 13.1721 33.5605 13.7546 31.5025C14.2594 29.6386 15.8514 27.3864 16.3174 27.8136C16.4727 28.0077 16.2786 28.4737 15.9291 28.862C14.9971 29.9104 14.1817 32.2791 14.1429 34.0265C14.1429 35.8515 14.6477 35.9292 15.3466 34.2206C15.6184 33.5605 15.8514 32.9392 15.8903 32.8616C16.0456 32.6674 27.9278 37.7931 28.0055 38.1037C28.122 38.3755 22.1032 53.2089 21.7149 53.6749C21.5207 53.9079 9.48317 48.588 9.48317 48.2774C9.48317 48.0444 9.75499 47.3455 10.1045 46.7242C10.6869 45.5981 10.6481 45.4816 9.28902 43.4235C4.78465 36.6281 5.4836 27.4252 10.8811 22.6879C12.8226 20.9793 14.4923 20.358 17.793 20.0474C20.3946 19.8144 20.4723 19.8144 18.9967 19.5426C18.1424 19.3484 16.2786 19.2319 14.8807 19.2319C12.6673 19.1931 12.0848 19.3484 10.4928 20.3969Z" fill="white"/>
<path d="M16.6659 36.6672C16.5494 36.8614 16.5106 37.0555 16.5883 37.0555C16.7047 37.0555 18.6463 37.8321 20.8985 38.7641C23.6166 39.929 25.0145 40.3173 25.0145 40.0067C25.0145 39.7348 23.306 38.7641 21.248 37.9098C17.0931 36.1236 17.0154 36.1236 16.6659 36.6672Z" fill="white"/>
<path d="M16.083 38.299C16.083 38.5708 17.7916 39.5027 19.8496 40.357C23.7715 41.9879 24.1986 42.1044 24.354 41.5996C24.3928 41.3278 16.782 37.833 16.1995 37.833C16.1218 37.833 16.083 38.066 16.083 38.299Z" fill="white"/>
</svg>
