<svg width="61" height="55" viewBox="0 0 61 55" fill="none" xmlns="http://www.w3.org/2000/svg">
<path d="M42.0339 4.17905L41.0244 5.65112L42.4867 6.65385L43.4961 5.18178L42.0339 4.17905Z" fill="#293389"/>
<path d="M33.8368 0.70789C33.9201 0.809037 33.5513 2.15964 33.5453 2.39763L31.8496 2.10609L32.1411 0.4104L33.8309 0.70789H33.8368Z" fill="#293389"/>
<path d="M47.397 8.87405L45.9834 9.96387L47.0696 11.3728L48.4832 10.283L47.397 8.87405Z" fill="#293389"/>
<path d="M49.4996 11.7969L47.916 12.6333L48.7524 14.2169L50.336 13.3806L49.4996 11.7969Z" fill="#293389"/>
<path d="M44.8778 6.319L43.665 7.62866L44.9878 8.85355L46.2006 7.54389L44.8778 6.319Z" fill="#293389"/>
<path d="M38.9177 2.45816L38.127 4.05176L39.7206 4.84248L40.5113 3.24888L38.9177 2.45816Z" fill="#293389"/>
<path d="M60.4316 17.647C60.4673 17.6648 60.4673 17.6886 60.4316 17.7065V17.647Z" fill="#FEFEFE"/>
<path d="M5.69952 15.0711C5.68167 15.3567 5.33658 15.8208 5.41393 16.0826C5.43773 16.1599 5.77687 16.392 5.87802 16.505C7.58561 18.4089 6.65744 20.2831 5.59243 22.2049C4.9439 23.377 4.17042 24.4896 3.38505 25.5665C2.26054 23.9363 0.927786 22.1335 0.249509 20.2653C-0.529914 18.1233 0.558898 15.7613 2.92692 15.4935C3.11136 15.4697 3.61114 15.5292 3.71229 15.4578C3.78369 15.4102 3.97408 14.6903 4.06928 14.5535C4.21207 14.4642 5.43178 15.0652 5.70547 15.0771L5.69952 15.0711ZM3.21846 17.1952C2.65918 17.2487 2.0999 17.6117 1.85595 18.1174C1.48112 18.8849 1.74886 19.4145 2.07015 20.1344C2.42118 20.9257 2.92097 21.723 3.3791 22.4548C3.56355 22.4548 4.90225 19.7119 5.00935 19.3312C5.33064 18.165 4.42627 17.0762 3.22441 17.1952H3.21846Z" fill="#293389"/>
<path d="M51.0792 15.0711C51.0792 15.0711 51.0851 15.4221 51.2339 15.4697C51.3886 15.5232 51.7693 15.4637 51.9835 15.4875C53.4948 15.6482 54.8394 17.0464 54.9525 18.5576C55.0596 19.9737 53.9053 21.9193 53.1795 23.1211C52.995 23.4246 51.6563 25.513 51.5195 25.5665L50.3771 23.9541C49.0622 21.7586 46.6525 18.5398 49.2347 16.3027C49.3121 16.2372 49.5382 16.1301 49.5501 16.1182C49.5858 16.0706 49.3656 15.672 49.443 15.5411C49.6869 15.5589 50.9661 14.9759 51.0792 15.0711ZM51.2993 17.1951C50.1332 17.3379 49.5858 18.4565 49.9368 19.5215C50.0499 19.8547 51.3529 22.4548 51.5195 22.4548C52.0609 21.5206 52.876 20.3783 53.1497 19.3371C53.4591 18.159 52.525 17.0464 51.2993 17.1951Z" fill="#293389"/>
<path d="M10.4434 5.93877L9.10938 7.15137L10.314 8.4766L11.648 7.26399L10.4434 5.93877Z" fill="#293389"/>
<path d="M26.8607 0.00209293L25.1006 0.060791L25.1593 1.82095L26.9194 1.76225L26.8607 0.00209293Z" fill="#293389"/>
<path d="M13.328 3.87296L11.8525 4.8562L12.8424 6.34153L14.3178 5.35829L13.328 3.87296Z" fill="#293389"/>
<path d="M7.8672 8.42637L6.73926 9.84033L8.12996 10.9497L9.2579 9.53576L7.8672 8.42637Z" fill="#293389"/>
<path d="M35.6049 1.18084L35.0273 2.85718L36.7037 3.43472L37.2812 1.75837L35.6049 1.18084Z" fill="#293389"/>
<path d="M28.6271 9.77934e-05L28.5098 1.75732L30.267 1.87466L30.3843 0.117429L28.6271 9.77934e-05Z" fill="#293389"/>
<path d="M21.8833 2.28495L21.5918 0.589253C21.8595 0.589253 23.1625 0.220366 23.2934 0.321512C23.3648 0.375061 23.6207 1.91011 23.5552 1.99935C23.5076 2.07075 22.0916 2.2671 21.8833 2.28495Z" fill="#293389"/>
<path d="M5.73566 11.2832L4.83398 12.8374L6.37277 13.7301L7.27444 12.1759L5.73566 11.2832Z" fill="#293389"/>
<path d="M19.8294 1.02301L18.1533 1.56372L18.6977 3.25113L20.3738 2.71041L19.8294 1.02301Z" fill="#293389"/>
<path d="M16.5096 2.21468L14.8975 2.9668L15.6521 4.58437L17.2643 3.83225L16.5096 2.21468Z" fill="#293389"/>
<path d="M9.38826 24.0432C9.38826 21.6811 9.85829 19.3012 10.7686 17.1236C14.1243 9.10323 22.7099 4.58138 31.2716 6.40797C39.4823 8.16316 45.5511 15.6064 45.5095 24.0372H46.6518C48.1274 24.0372 49.7636 25.6853 49.7933 27.1728V51.9775C49.5791 53.6018 48.294 54.8631 46.6578 55H8.1864C6.55615 54.8274 5.27695 53.5542 5.11035 51.9239V27.1192C5.16985 25.6556 6.78224 24.0372 8.25184 24.0372H9.39421L9.38826 24.0432ZM26.5713 7.85972C25.6669 7.91327 24.6733 8.3833 23.9236 8.87714C22.2279 9.9957 20.6215 12.1912 19.8361 14.0535C19.7647 14.2141 19.4672 14.815 19.6874 14.8864C21.9661 15.2137 24.2568 15.5469 26.5653 15.5409V7.85972H26.5713ZM28.3324 7.85972V15.5409C30.6945 15.5171 33.0565 15.2613 35.371 14.8091C34.3179 12.2031 32.4556 9.34122 29.7604 8.22266C29.3201 8.03821 28.8143 7.86567 28.3324 7.85972ZM21.1153 9.03183C19.2471 9.82315 17.4978 10.9596 16.0401 12.3697C15.8319 12.572 15.2726 13.1312 15.1298 13.3395C15.0941 13.3871 15.0465 13.399 15.0703 13.4882C15.457 13.6251 17.6466 14.5116 17.8786 14.3628C18.42 12.9706 19.14 11.6438 20.0086 10.4241L21.1094 9.03778L21.1153 9.03183ZM38.9825 12.5125C37.7331 11.263 36.1504 10.1087 34.5499 9.35312C34.3179 9.24602 34.0383 9.10323 33.7884 9.09133C35.0438 10.4122 35.9541 11.9889 36.7276 13.6251C36.7811 13.7441 36.9834 14.339 37.0191 14.3628C37.2393 14.5056 39.4466 13.6251 39.8274 13.4882C39.8512 13.399 39.8036 13.393 39.7679 13.3395C39.6489 13.1669 39.167 12.691 38.9825 12.5125ZM16.0758 24.0432C16.0877 21.3539 16.4507 18.6646 17.242 16.1002L13.9398 14.8864C12.1668 17.5817 11.078 20.7767 11.1494 24.0372H16.0758V24.0432ZM40.232 15.1839C40.1309 15.2196 40.0357 15.2613 39.9405 15.3029C39.8988 15.3208 39.8572 15.3446 39.8215 15.3624C39.6727 15.4279 39.6311 15.3327 39.4704 15.5409C39.4288 15.5409 39.3931 15.5409 39.3514 15.5409C39.1491 15.5588 39.1372 15.6302 39.0599 15.6599C39.0182 15.6718 38.9409 15.654 38.8695 15.6718C38.4649 15.7968 38.0663 15.9633 37.6498 16.0704C37.7926 16.6357 37.9711 17.189 38.102 17.7542C38.1258 17.8673 38.096 17.9922 38.1139 18.0815C38.1317 18.1469 38.2269 18.1172 38.2329 18.1231C38.2864 18.1945 38.2745 18.5456 38.2924 18.6527C38.3459 18.9858 38.4173 19.3131 38.4709 19.6522C38.4709 19.6879 38.4709 19.7296 38.4709 19.7712C38.6732 21.1873 38.8397 22.6152 38.8219 24.0491H43.7483C43.7781 21.3479 43.0463 18.5337 41.7432 16.1716C41.6302 15.9633 41.059 14.9816 40.9043 14.9578C40.6842 14.9221 40.4283 15.1244 40.232 15.1958V15.1839ZM26.5713 17.2961C23.9891 17.2366 21.4187 16.9748 18.8901 16.475C18.2178 18.9323 17.7775 21.4729 17.837 24.0372H26.5713V17.2961ZM37.0667 24.0432C37.0786 21.4967 36.7573 18.9204 35.9541 16.5048C33.4373 16.957 30.8908 17.2545 28.3324 17.302V24.0432H37.0667ZM48.0917 48.9609V27.4108C48.0917 26.6373 47.2587 25.7984 46.4793 25.7984H8.47794C7.55572 25.8341 6.84174 26.5956 6.81199 27.5H30.9087V32.6585H6.81199V48.9609H48.0917ZM29.1535 29.1957H6.81199V30.9628H29.1535V29.1957ZM48.0322 50.7221H6.81199V51.7454C6.81199 52.5367 7.81751 53.34 8.59693 53.3043H46.3603C47.7347 53.1972 48.3118 51.9834 48.0322 50.7221Z" fill="#293389"/>
<path d="M45.5105 45.5576H26.5723V47.2593H45.5105V45.5576Z" fill="#293389"/>
<path d="M39.5307 34.3604H31.7305V36.1215H39.5307V34.3604Z" fill="#293389"/>
<path d="M45.5095 29.2017H38.5898V30.9628H45.5095V29.2017Z" fill="#293389"/>
<path d="M33.4919 42.1008H26.5723V43.862H33.4919V42.1008Z" fill="#293389"/>
<path d="M45.5095 38.6377H38.5898V40.3988H45.5095V38.6377Z" fill="#293389"/>
<path d="M38.6492 42.1008H35.1924V43.862H38.6492V42.1008Z" fill="#293389"/>
<path d="M43.8103 42.1008H40.3535V43.862H43.8103V42.1008Z" fill="#293389"/>
<path d="M28.3334 38.6377H26.5723V40.3988H28.3334V38.6377Z" fill="#293389"/>
<path d="M35.1929 38.6973H33.4912V40.3989H35.1929V38.6973Z" fill="#293389"/>
<path d="M31.73 38.6973H30.0283V40.3989H31.73V38.6973Z" fill="#293389"/>
<path d="M9.38957 45.8848C9.48477 44.8852 10.0084 43.9154 10.7699 43.2787C11.5969 42.5826 12.6263 42.2435 13.5485 41.7139C12.9238 40.4585 12.7691 39.1198 13.2569 37.793C14.0959 35.5143 16.7019 34.4254 18.7664 35.9248C20.5514 37.2219 20.8905 39.8874 19.8255 41.7556C21.4855 42.3922 23.4608 43.3918 23.8892 45.2838C24.032 45.9145 24.038 46.6166 24.0439 47.2651H22.2828V46.0632C22.2828 45.9323 22.1281 45.4266 22.0567 45.2898C21.5153 44.1831 19.6292 43.6179 18.6058 43.0586C17.6717 43.5762 16.6364 43.7607 15.5952 43.4215C15.3275 43.3382 14.9526 43.0586 14.7146 43.124C14.2506 43.2549 13.0546 43.8618 12.6025 44.1236C12.0729 44.433 11.1388 45.141 11.1388 45.8253V47.2592H9.37767C9.40742 46.8129 9.33602 46.3191 9.37767 45.8788L9.38957 45.8848ZM14.9348 40.5418C16.2021 43.4334 19.6649 41.1309 18.469 38.269C17.8859 36.8708 16.2854 36.4722 15.2799 37.7038C14.6075 38.5308 14.5302 39.6256 14.9348 40.5418Z" fill="#293389"/>
</svg>
