<svg width="20" height="27" viewBox="0 0 20 27" fill="none" xmlns="http://www.w3.org/2000/svg">
<path d="M9.40723 0.775194L9.3334 1.55566L8.60566 1.58203L7.87265 1.6084L7.71973 1.78242C7.5668 1.95117 7.5668 1.96172 7.5668 2.58398V3.21152L7.39805 3.25898C7.07109 3.34336 7.01308 3.49629 6.99726 4.39277C6.96562 5.69004 7.04473 5.8957 7.56152 5.94844L7.84629 5.9748L7.80937 6.37559C7.65117 8.12109 7.11855 11.0426 6.6334 12.7723L6.44355 13.4473H6.10605C5.5418 13.4473 5.22012 13.6687 5.23066 14.0537C5.23594 14.1434 5.33086 14.5441 5.45215 14.9344L5.66836 15.6463L5.48906 16.0893C5.38887 16.3318 5.05664 17.0965 4.75078 17.7926C4.44492 18.4834 4.1918 19.0582 4.1918 19.0687C4.1918 19.0846 3.27949 20.6561 2.16152 22.5703C1.04355 24.4846 0.0943359 26.1299 0.0521484 26.2301C-0.0533203 26.4727 0.0046875 26.7047 0.194531 26.8682L0.352734 27H2.70996C4.75078 27 5.07773 26.9895 5.1832 26.9156C5.35195 26.7996 5.40469 26.6783 5.48379 26.1562C5.63672 25.2176 6.0375 24.2473 6.5332 23.6145C7.03418 22.9816 7.75664 22.5229 8.59512 22.3014C9.19101 22.1432 10.2668 22.1432 10.8627 22.3014C12.2707 22.6705 13.2674 23.683 13.7525 25.2334C13.8686 25.6078 13.916 25.824 14.032 26.5096C14.0426 26.6045 14.1164 26.7521 14.1902 26.8418L14.3273 27H16.7215H19.1156L19.2844 26.8523C19.4215 26.7258 19.4478 26.6625 19.4478 26.4674C19.4478 26.2564 19.2369 25.882 17.3754 22.7021C16.2416 20.7562 15.2871 19.1215 15.266 19.0635C15.2449 19.0055 14.9918 18.4359 14.7123 17.7979C14.4275 17.1598 14.1059 16.4162 13.9951 16.142L13.7895 15.6516L14.0004 14.9555C14.1164 14.5705 14.2113 14.1645 14.2113 14.0484C14.2113 13.6529 13.9318 13.4473 13.3781 13.4473H13.0723L12.8508 12.6668C12.4395 11.1955 12.0439 9.12305 11.7855 7.10332C11.6379 5.92207 11.6326 5.98008 11.9174 5.94316C12.4078 5.89043 12.4869 5.67949 12.4605 4.47187C12.4447 3.67558 12.4342 3.58066 12.334 3.44355C12.2707 3.36445 12.1494 3.27481 12.0545 3.24844L11.891 3.20098V2.57871C11.891 1.96172 11.891 1.95117 11.7381 1.78242L11.5852 1.6084L10.8521 1.58203L10.1244 1.55566L10.0506 0.775194L9.97676 0H9.7289H9.48105L9.40723 0.775194ZM10.7836 2.97949V3.2168H9.7289H8.67422V2.97949V2.74219H9.7289H10.7836V2.97949ZM11.3109 4.58789V4.85156H9.7289H8.14687V4.58789V4.32422H9.7289H11.3109V4.58789ZM10.5463 6.25957C10.8205 8.775 11.3109 11.4855 11.7803 13.0887L11.8857 13.4473H9.75527H7.6248L7.73027 13.0887C7.99922 12.1816 8.34199 10.568 8.56348 9.22852C8.70586 8.34785 8.99062 6.22793 8.99062 6.03809C8.99062 5.96953 9.12246 5.95898 9.75 5.95898H10.5146L10.5463 6.25957ZM12.8666 14.6971C12.8508 14.7498 12.8191 14.8553 12.8033 14.9344L12.777 15.082H9.7289H6.68613L6.65449 14.9344C6.63867 14.8553 6.60703 14.7498 6.59121 14.6971C6.5543 14.6127 6.72832 14.6074 9.7289 14.6074C12.7295 14.6074 12.9035 14.6127 12.8666 14.6971ZM8.03613 16.3055C8.03613 16.3424 7.85156 16.933 7.6248 17.6133L7.21875 18.8525L6.36973 18.8684L5.51543 18.8789L5.7791 18.2883C5.92676 17.9613 6.14297 17.4656 6.25898 17.1914C6.375 16.9172 6.51211 16.5902 6.57012 16.4637L6.66504 16.2422H7.35058C7.87265 16.2422 8.0414 16.258 8.03613 16.3055ZM10.5937 17.492C10.8205 18.1828 11.0209 18.7787 11.0367 18.8104C11.0525 18.8631 10.773 18.8789 9.7289 18.8789C8.68476 18.8789 8.40527 18.8631 8.42109 18.8104C8.43691 18.7787 8.6373 18.1828 8.86406 17.492L9.28066 16.2422H9.7289H10.1771L10.5937 17.492ZM12.8877 16.4637C12.9457 16.5902 13.0828 16.9172 13.1988 17.1914C13.3148 17.4656 13.5311 17.9613 13.6787 18.2883L13.9424 18.8789L13.0881 18.8684L12.2391 18.8525L11.833 17.6133C11.6062 16.933 11.4217 16.3424 11.4217 16.3055C11.4164 16.258 11.5852 16.2422 12.1072 16.2422H12.7928L12.8877 16.4637ZM16.0887 22.7654C16.9799 24.3 17.7551 25.6289 17.8131 25.7186L17.9133 25.8926H16.4947H15.0814L15.0129 25.5393C14.8441 24.648 14.3273 23.5195 13.7736 22.834C13.1725 22.0904 12.2127 21.4787 11.2266 21.215C10.752 21.0885 10.6201 21.0779 9.7289 21.0779C8.83769 21.0779 8.70586 21.0885 8.23125 21.215C7.24512 21.4787 6.28535 22.0904 5.68418 22.834C5.13047 23.5195 4.61367 24.648 4.44492 25.5393L4.37637 25.8926H2.96309H1.54453L1.64473 25.7186C1.70273 25.6289 2.47793 24.3 3.36914 22.7654L4.99863 19.9863H9.7289H14.4592L16.0887 22.7654Z" fill="black"/>
</svg>
