<svg width="61" height="57" viewBox="0 0 61 57" fill="none" xmlns="http://www.w3.org/2000/svg">
<path d="M54.4339 57H5.63109C4.13922 56.9948 2.70992 56.3999 1.655 55.345C0.600082 54.2901 0.00515332 52.8608 0 51.3689L0 19.5522H60.065V51.3591C60.0624 52.8518 59.4683 54.2826 58.4128 55.338C57.3573 56.3935 55.9266 56.9876 54.4339 56.9902V57Z" fill="#808080"/>
<path fill-rule="evenodd" clip-rule="evenodd" d="M6.23135 55.1966H53.8317C55.005 55.1927 56.1292 54.7249 56.9589 53.8952C57.7886 53.0655 58.2564 51.9413 58.2603 50.768V21.9673H1.80273V50.768C1.80532 51.9417 2.27273 53.0667 3.1027 53.8966C3.93267 54.7266 5.0576 55.194 6.23135 55.1966Z" fill="white"/>
<path fill-rule="evenodd" clip-rule="evenodd" d="M5.63109 3.26025H54.4339C55.9254 3.26669 57.3539 3.86202 58.4086 4.91667C59.4632 5.97131 60.0585 7.39987 60.065 8.89135V21.967H0V8.89135C0.00515332 7.39947 0.600082 5.97018 1.655 4.91526C2.70992 3.86034 4.13922 3.26541 5.63109 3.26025ZM17.7487 8.02615C18.6501 8.02519 19.5316 8.29167 20.2815 8.79189C21.0315 9.29211 21.6162 10.0036 21.9616 10.8362C22.307 11.6689 22.3976 12.5853 22.222 13.4694C22.0464 14.3536 21.6124 15.1658 20.975 15.8032C20.3375 16.4407 19.5253 16.8746 18.6412 17.0503C17.757 17.2259 16.8406 17.1353 16.0079 16.7898C15.1753 16.4444 14.4638 15.8598 13.9636 15.1098C13.4634 14.3599 13.1969 13.4784 13.1979 12.577C13.1979 11.37 13.6773 10.2125 14.5308 9.35906C15.3842 8.50561 16.5417 8.02615 17.7487 8.02615ZM42.0865 8.02615C42.988 8.02519 43.8695 8.29167 44.6194 8.79189C45.3693 9.29211 45.954 10.0036 46.2994 10.8362C46.6448 11.6689 46.7355 12.5853 46.5598 13.4694C46.3842 14.3536 45.9502 15.1658 45.3128 15.8032C44.6754 16.4407 43.8632 16.8746 42.979 17.0503C42.0948 17.2259 41.1784 17.1353 40.3458 16.7898C39.5131 16.4444 38.8017 15.8598 38.3015 15.1098C37.8012 14.3599 37.5348 13.4784 37.5357 12.577C37.5357 11.37 38.0152 10.2125 38.8686 9.35906C39.7221 8.50561 40.8796 8.02615 42.0865 8.02615Z" fill="#EF4136"/>
<path fill-rule="evenodd" clip-rule="evenodd" d="M42.087 7.15137C43.3435 7.15002 44.5615 7.58441 45.5336 8.38052C46.5057 9.17662 47.1717 10.2852 47.4181 11.5173C47.6644 12.7494 47.4759 14.0288 46.8847 15.1375C46.2934 16.2462 45.336 17.1155 44.1756 17.5974C43.0152 18.0793 41.7236 18.144 40.5209 17.7803C39.3182 17.4166 38.2788 16.6471 37.5799 15.603C36.8809 14.5588 36.5657 13.3046 36.6878 12.0541C36.81 10.8035 37.362 9.63404 38.2498 8.74489L38.3036 8.69601C39.314 7.70596 40.6723 7.15142 42.087 7.15137ZM42.087 8.02634C42.9884 8.02537 43.8699 8.29186 44.6198 8.79208C45.3698 9.29229 45.9544 10.0037 46.2998 10.8364C46.6453 11.669 46.7359 12.5854 46.5603 13.4696C46.3846 14.3538 45.9507 15.166 45.3132 15.8034C44.6758 16.4408 43.8636 16.8748 42.9794 17.0505C42.0953 17.2261 41.1789 17.1355 40.3462 16.79C39.5136 16.4446 38.8021 15.8599 38.3019 15.11C37.8017 14.3601 37.5352 13.4786 37.5362 12.5772C37.5362 11.3702 38.0156 10.2127 38.8691 9.35924C39.7225 8.5058 40.88 8.02634 42.087 8.02634Z" fill="#C72B20"/>
<path fill-rule="evenodd" clip-rule="evenodd" d="M17.751 7.15137C19.0075 7.15002 20.2256 7.58441 21.1977 8.38052C22.1698 9.17662 22.8358 10.2852 23.0821 11.5173C23.3285 12.7494 23.14 14.0288 22.5487 15.1375C21.9575 16.2462 21.0001 17.1155 19.8397 17.5974C18.6793 18.0793 17.3877 18.144 16.185 17.7803C14.9823 17.4166 13.9429 16.6471 13.2439 15.603C12.545 14.5588 12.2297 13.3046 12.3519 12.0541C12.4741 10.8035 13.0261 9.63404 13.9139 8.74489L13.9676 8.69601C14.9787 7.70685 16.3366 7.15246 17.751 7.15137ZM17.751 8.02634C18.6525 8.02537 19.534 8.29186 20.2839 8.79208C21.0338 9.29229 21.6185 10.0037 21.9639 10.8364C22.3093 11.669 22.4 12.5854 22.2243 13.4696C22.0487 14.3538 21.6147 15.166 20.9773 15.8034C20.3399 16.4408 19.5277 16.8748 18.6435 17.0505C17.7593 17.2261 16.8429 17.1355 16.0103 16.79C15.1776 16.4446 14.4662 15.8599 13.966 15.11C13.4657 14.3601 13.1992 13.4786 13.2002 12.5772C13.2002 11.3702 13.6797 10.2127 14.5331 9.35924C15.3866 8.5058 16.5441 8.02634 17.751 8.02634Z" fill="#C72B20"/>
<path d="M39.3691 2.22897C39.3691 0.97762 40.5716 0 42.0869 0C43.6022 0 44.8047 0.97762 44.8047 2.22897V12.5966C44.8047 13.8235 43.5925 14.8256 42.0869 14.8256C40.5814 14.8256 39.3691 13.848 39.3691 12.5966V2.22897Z" fill="#1A1A1A"/>
<path d="M15.0312 2.22897C15.0312 0.97762 16.2484 0 17.749 0C19.2497 0 20.4668 0.97762 20.4668 2.22897V12.5966C20.4668 13.8235 19.2546 14.8256 17.749 14.8256C16.2435 14.8256 15.0312 13.848 15.0312 12.5966V2.22897Z" fill="#1A1A1A"/>
<path d="M7.16546 42.3263L6.92578 40.4274H7.91346C8.07691 40.4485 8.24262 40.4122 8.38227 40.3247C8.41711 40.2907 8.44411 40.2495 8.4614 40.204C8.47868 40.1585 8.48584 40.1098 8.48236 40.0613V36.8085H7.50258V34.9096H10.858V40.3721C10.8965 40.9025 10.7264 41.4269 10.384 41.8338C10.2029 42.0065 9.98779 42.1394 9.75243 42.2242C9.51706 42.309 9.26659 42.3438 9.01702 42.3263H7.16546ZM13.6393 42.3263H11.132L13.0573 34.9043H16.7209L18.6514 42.3263H16.1441L15.8807 41.1517H13.9106L13.6393 42.3263ZM14.8272 37.1904L14.3505 39.2685H15.4435L14.9562 37.1904H14.8272ZM23.4608 42.3263L21.6434 39.6925C21.5585 39.5153 21.5178 39.3201 21.5249 39.1236H21.4775V42.3263H19.0913V34.9096H21.3248L23.1421 37.5434C23.2305 37.7198 23.2748 37.915 23.2711 38.1123H23.3185V34.9096H25.689V42.3263H23.4608Z" fill="#1A1A1A"/>
<path d="M32.9007 32.2275L29.6127 45.5835H28.5567L31.8327 32.2275H32.9007Z" fill="black"/>
<path d="M39.4637 39.5772H37.4437V42.3303H35.0703V34.9043H39.941L39.643 36.8056H37.4437V37.8051H39.4637V39.5772ZM45.6792 39.5297H43.3059V40.4316H46.2067V42.3303H40.922V34.9043H46.1539L45.848 36.8056H43.3006V37.8051H45.674V39.5297H45.6792ZM47.4935 42.3303V34.9043H51.3463C52.0583 34.9043 52.5673 35.0423 52.8732 35.3183C53.0319 35.4754 53.155 35.6648 53.2342 35.8736C53.3134 36.0825 53.3467 36.3059 53.332 36.5287C53.3577 36.9591 53.2559 37.3875 53.0393 37.7602C52.8564 38.0421 52.5739 38.2446 52.2482 38.3272V38.3958C53.2063 38.561 53.6854 39.2159 53.6854 40.3604C53.7204 40.8811 53.5585 41.3959 53.2318 41.8029C52.9154 42.165 52.4275 42.3408 51.7682 42.3303H47.4935ZM50.7978 39.3741H49.8695V40.5872H50.7872C51.1195 40.5872 51.2856 40.3841 51.2856 39.9807C51.2856 39.5772 51.1221 39.3741 50.7978 39.3741ZM50.6185 36.5287H49.8695V37.6363H50.6079C50.9085 37.6363 51.0615 37.4517 51.0615 37.0825C51.0615 36.7133 50.9138 36.5287 50.6185 36.5287Z" fill="#1A1A1A"/>
</svg>
