<svg width="81" height="77" viewBox="0 0 81 77" fill="none" xmlns="http://www.w3.org/2000/svg">
<path d="M73.2975 76.7531H7.5825C5.57363 76.7461 3.64902 75.945 2.22853 74.5245C0.808036 73.104 0.00693916 71.1794 0 69.1706L0 26.3281H80.88V69.1574C80.8765 71.1673 80.0765 73.094 78.6553 74.5152C77.2341 75.9364 75.3074 76.7364 73.2975 76.7399V76.7531Z" fill="#808080"/>
<path fill-rule="evenodd" clip-rule="evenodd" d="M8.39301 74.3242H72.4888C74.0688 74.319 75.5826 73.6891 76.6998 72.5719C77.817 71.4547 78.4469 69.9409 78.4521 68.3609V29.5796H2.42969V68.3609C2.43316 69.9414 3.06256 71.4562 4.18014 72.5738C5.29773 73.6914 6.81251 74.3208 8.39301 74.3242Z" fill="white"/>
<path fill-rule="evenodd" clip-rule="evenodd" d="M7.5825 4.39014H73.2975C75.3058 4.3988 77.2294 5.20045 78.6496 6.62057C80.0697 8.04069 80.8713 9.9643 80.88 11.9726V29.5796H0V11.9726C0.00693916 9.96377 0.808036 8.03916 2.22853 6.61867C3.64902 5.19817 5.57363 4.39708 7.5825 4.39014ZM23.8994 10.8076C25.1132 10.8063 26.3001 11.1652 27.31 11.8387C28.3198 12.5123 29.1071 13.4703 29.5722 14.5915C30.0373 15.7127 30.1593 16.9466 29.9228 18.1372C29.6863 19.3278 29.102 20.4215 28.2436 21.2798C27.3853 22.1381 26.2917 22.7225 25.1011 22.959C23.9105 23.1955 22.6765 23.0734 21.5553 22.6083C20.4341 22.1432 19.4761 21.3559 18.8026 20.3461C18.129 19.3363 17.7702 18.1493 17.7715 16.9355C17.7715 15.3103 18.4171 13.7516 19.5663 12.6024C20.7155 11.4532 22.2741 10.8076 23.8994 10.8076ZM56.6713 10.8076C57.8851 10.8063 59.0721 11.1652 60.0819 11.8387C61.0917 12.5123 61.879 13.4703 62.3441 14.5915C62.8092 15.7127 62.9313 16.9466 62.6948 18.1372C62.4583 19.3278 61.8739 20.4215 61.0156 21.2798C60.1573 22.1381 59.0636 22.7225 57.873 22.959C56.6824 23.1955 55.4485 23.0734 54.3273 22.6083C53.2061 22.1432 52.2481 21.3559 51.5745 20.3461C50.901 19.3363 50.5421 18.1493 50.5434 16.9355C50.5434 15.3103 51.189 13.7516 52.3382 12.6024C53.4874 11.4532 55.0461 10.8076 56.6713 10.8076Z" fill="#EF4136"/>
<path fill-rule="evenodd" clip-rule="evenodd" d="M56.671 9.62964C58.3629 9.62783 60.0031 10.2128 61.3121 11.2847C62.6211 12.3567 63.5178 13.8494 63.8496 15.5085C64.1813 17.1676 63.9275 18.8904 63.1313 20.3833C62.3352 21.8762 61.046 23.0468 59.4835 23.6957C57.9209 24.3446 56.1817 24.4316 54.5622 23.9419C52.9428 23.4522 51.5432 22.416 50.602 21.01C49.6609 19.6041 49.2364 17.9152 49.4009 16.2313C49.5654 14.5474 50.3087 12.9727 51.5041 11.7754L51.5765 11.7096C52.9372 10.3764 54.7661 9.62971 56.671 9.62964ZM56.671 10.8078C57.8849 10.8065 59.0718 11.1654 60.0816 11.8389C61.0914 12.5125 61.8787 13.4705 62.3438 14.5917C62.8089 15.7129 62.931 16.9469 62.6945 18.1374C62.458 19.328 61.8736 20.4217 61.0153 21.28C60.157 22.1383 59.0633 22.7227 57.8728 22.9592C56.6822 23.1957 55.4482 23.0736 54.327 22.6085C53.2058 22.1434 52.2478 21.3561 51.5742 20.3463C50.9007 19.3365 50.5418 18.1495 50.5431 16.9357C50.5431 15.3105 51.1888 13.7518 52.338 12.6026C53.4872 11.4534 55.0458 10.8078 56.671 10.8078Z" fill="#C72B20"/>
<path fill-rule="evenodd" clip-rule="evenodd" d="M23.8995 9.62964C25.5914 9.62783 27.2316 10.2128 28.5406 11.2847C29.8496 12.3567 30.7464 13.8494 31.0781 15.5085C31.4098 17.1676 31.156 18.8904 30.3598 20.3833C29.5637 21.8762 28.2745 23.0468 26.712 23.6957C25.1495 24.3446 23.4103 24.4316 21.7908 23.9419C20.1713 23.4522 18.7717 22.416 17.8305 21.01C16.8894 19.6041 16.4649 17.9152 16.6294 16.2313C16.7939 14.5474 17.5372 12.9727 18.7326 11.7754L18.805 11.7096C20.1665 10.3776 21.9949 9.63111 23.8995 9.62964ZM23.8995 10.8078C25.1134 10.8065 26.3003 11.1654 27.3101 11.8389C28.3199 12.5125 29.1072 13.4705 29.5723 14.5917C30.0375 15.7129 30.1595 16.9469 29.923 18.1374C29.6865 19.328 29.1021 20.4217 28.2438 21.28C27.3855 22.1383 26.2918 22.7227 25.1013 22.9592C23.9107 23.1957 22.6767 23.0736 21.5555 22.6085C20.4343 22.1434 19.4763 21.3561 18.8028 20.3463C18.1292 19.3365 17.7704 18.1495 17.7717 16.9357C17.7717 15.3105 18.4173 13.7518 19.5665 12.6026C20.7157 11.4534 22.2743 10.8078 23.8995 10.8078Z" fill="#C72B20"/>
<path d="M53.0117 3.00141C53.0117 1.31641 54.6309 0 56.6713 0C58.7118 0 60.3309 1.31641 60.3309 3.00141V16.9619C60.3309 18.614 58.6986 19.9633 56.6713 19.9633C54.6441 19.9633 53.0117 18.6469 53.0117 16.9619V3.00141Z" fill="#1A1A1A"/>
<path d="M20.2402 3.00141C20.2402 1.31641 21.8792 0 23.8998 0C25.9205 0 27.5595 1.31641 27.5595 3.00141V16.9619C27.5595 18.614 25.9271 19.9633 23.8998 19.9633C21.8726 19.9633 20.2402 18.6469 20.2402 16.9619V3.00141Z" fill="#1A1A1A"/>
<path d="M17.5872 61.213L16.9883 56.4673H19.4565C19.865 56.5201 20.2792 56.4294 20.6281 56.2106C20.7152 56.1257 20.7827 56.0228 20.8259 55.9091C20.8691 55.7955 20.887 55.6737 20.8783 55.5524V47.4236H18.4297V42.678H26.8153V56.3291C26.9113 57.6546 26.4862 58.9653 25.6305 59.9821C25.178 60.4135 24.6404 60.7458 24.0522 60.9578C23.464 61.1697 22.8381 61.2566 22.2144 61.213H17.5872ZM33.7659 61.213H27.4998L32.3113 42.6648H41.4669L46.2915 61.213H40.0254L39.3672 58.2774H34.4438L33.7659 61.213ZM36.7344 48.378L35.543 53.5712H38.2746L37.0569 48.378H36.7344ZM58.3103 61.213L53.7687 54.6309C53.5563 54.188 53.4547 53.7001 53.4725 53.2092H53.354V61.213H47.3907V42.678H52.9722L57.5138 49.26C57.7348 49.7008 57.8455 50.1887 57.8364 50.6817H57.9548V42.678H63.8787V61.213H58.3103Z" fill="#1A1A1A"/>
</svg>
