<svg width="81" height="77" viewBox="0 0 81 77" fill="none" xmlns="http://www.w3.org/2000/svg">
<path d="M73.4062 76.8669H7.59375C5.5819 76.86 3.65444 76.0577 2.23184 74.6351C0.809234 73.2125 0.00694946 71.285 0 69.2732L0 26.3672H81V69.26C80.9965 71.2729 80.1953 73.2024 78.772 74.6258C77.3486 76.0491 75.4192 76.8503 73.4062 76.8538V76.8669Z" fill="#808080"/>
<path fill-rule="evenodd" clip-rule="evenodd" d="M8.40454 74.4346H72.5955C74.1778 74.4294 75.6938 73.7985 76.8127 72.6796C77.9315 71.5607 78.5624 70.0447 78.5676 68.4624V29.6235H2.43237V68.4624C2.43586 70.0453 3.06618 71.5623 4.18543 72.6815C5.30467 73.8008 6.82169 74.4311 8.40454 74.4346Z" fill="white"/>
<path fill-rule="evenodd" clip-rule="evenodd" d="M7.59375 4.39673H73.4062C75.4176 4.4054 77.344 5.20824 78.7663 6.63047C80.1885 8.0527 80.9913 9.97916 81 11.9905V29.6235H0V11.9905C0.00694946 9.97863 0.809234 8.05116 2.23184 6.62856C3.65444 5.20596 5.5819 4.40368 7.59375 4.39673ZM23.9348 10.8237C25.1505 10.8224 26.3392 11.1818 27.3505 11.8564C28.3618 12.5309 29.1502 13.4903 29.616 14.6132C30.0819 15.7361 30.2041 16.9719 29.9672 18.1642C29.7304 19.3566 29.1451 20.4518 28.2856 21.3114C27.426 22.171 26.3307 22.7563 25.1383 22.9931C23.946 23.23 22.7102 23.1077 21.5873 22.6419C20.4645 22.1761 19.505 21.3877 18.8305 20.3763C18.1559 19.365 17.7965 18.1763 17.7979 16.9607C17.7979 15.3331 18.4444 13.7721 19.5953 12.6212C20.7462 11.4703 22.3072 10.8237 23.9348 10.8237ZM56.7554 10.8237C57.971 10.8224 59.1597 11.1818 60.171 11.8564C61.1823 12.5309 61.9708 13.4903 62.4366 14.6132C62.9024 15.7361 63.0246 16.9719 62.7878 18.1642C62.5509 19.3566 61.9657 20.4518 61.1061 21.3114C60.2465 22.171 59.1512 22.7563 57.9589 22.9931C56.7665 23.23 55.5307 23.1077 54.4079 22.6419C53.285 22.1761 52.3256 21.3877 51.651 20.3763C50.9765 19.365 50.6171 18.1763 50.6184 16.9607C50.6184 15.3331 51.265 13.7721 52.4159 12.6212C53.5668 11.4703 55.1277 10.8237 56.7554 10.8237Z" fill="#EF4136"/>
<path fill-rule="evenodd" clip-rule="evenodd" d="M56.7553 9.64356C58.4498 9.64174 60.0924 10.2275 61.4033 11.3011C62.7142 12.3747 63.6123 13.8696 63.9445 15.5312C64.2768 17.1927 64.0225 18.918 63.2252 20.4131C62.4279 21.9083 61.1368 23.0806 59.572 23.7305C58.0071 24.3804 56.2653 24.4675 54.6434 23.977C53.0215 23.4866 51.6199 22.4489 50.6773 21.0408C49.7348 19.6328 49.3097 17.9414 49.4744 16.255C49.6391 14.5686 50.3835 12.9915 51.5808 11.7925L51.6533 11.7266C53.0159 10.3914 54.8476 9.64363 56.7553 9.64356ZM56.7553 10.8235C57.971 10.8222 59.1597 11.1816 60.171 11.8561C61.1823 12.5307 61.9708 13.4901 62.4366 14.613C62.9024 15.7358 63.0246 16.9716 62.7878 18.164C62.5509 19.3563 61.9657 20.4516 61.1061 21.3112C60.2465 22.1708 59.1512 22.756 57.9589 22.9929C56.7665 23.2297 55.5307 23.1075 54.4078 22.6417C53.285 22.1759 52.3256 21.3874 51.651 20.3761C50.9764 19.3648 50.6171 18.1761 50.6184 16.9605C50.6184 15.3328 51.2649 13.7719 52.4159 12.621C53.5668 11.4701 55.1277 10.8235 56.7553 10.8235Z" fill="#C72B20"/>
<path fill-rule="evenodd" clip-rule="evenodd" d="M23.935 9.64356C25.6295 9.64174 27.2721 10.2275 28.583 11.3011C29.8939 12.3747 30.792 13.8696 31.1242 15.5312C31.4564 17.1927 31.2022 18.918 30.4049 20.4131C29.6076 21.9083 28.3165 23.0806 26.7517 23.7305C25.1868 24.3804 23.445 24.4675 21.8231 23.977C20.2012 23.4866 18.7996 22.4489 17.857 21.0408C16.9145 19.6328 16.4894 17.9414 16.6541 16.255C16.8188 14.5686 17.5632 12.9915 18.7605 11.7925L18.833 11.7266C20.1964 10.3926 22.0276 9.64503 23.935 9.64356ZM23.935 10.8235C25.1507 10.8222 26.3394 11.1816 27.3507 11.8561C28.362 12.5307 29.1505 13.4901 29.6163 14.613C30.0821 15.7358 30.2043 16.9716 29.9674 18.164C29.7306 19.3563 29.1454 20.4516 28.2858 21.3112C27.4262 22.1708 26.3309 22.756 25.1385 22.9929C23.9462 23.2297 22.7104 23.1075 21.5875 22.6417C20.4647 22.1759 19.5053 21.3874 18.8307 20.3761C18.1561 19.3648 17.7968 18.1761 17.7981 16.9605C17.7981 15.3328 18.4446 13.7719 19.5955 12.621C20.7464 11.4701 22.3074 10.8235 23.935 10.8235Z" fill="#C72B20"/>
<path d="M53.0903 3.00586C53.0903 1.31836 54.7119 0 56.7554 0C58.7988 0 60.4204 1.31836 60.4204 3.00586V16.9871C60.4204 18.6416 58.7856 19.9929 56.7554 19.9929C54.7251 19.9929 53.0903 18.6746 53.0903 16.9871V3.00586Z" fill="#1A1A1A"/>
<path d="M20.2698 3.00586C20.2698 1.31836 21.9111 0 23.9348 0C25.9585 0 27.5999 1.31836 27.5999 3.00586V16.9871C27.5999 18.6416 25.9651 19.9929 23.9348 19.9929C21.9045 19.9929 20.2698 18.6746 20.2698 16.9871V3.00586Z" fill="#1A1A1A"/>
<path d="M19.2744 61.0994L18.6812 56.3401H21.1465C21.5568 56.3916 21.9724 56.3034 22.3264 56.0896C22.4112 56.0028 22.4772 55.8995 22.5203 55.7861C22.5634 55.6727 22.5827 55.5516 22.5769 55.4304V47.2764H20.105V42.5171H28.5227V56.1951C28.6188 57.5217 28.1904 58.833 27.3296 59.8469C26.8788 60.2817 26.3424 60.6176 25.7544 60.8333C25.1665 61.0489 24.54 61.1396 23.915 61.0994H19.2744ZM37.2173 42.5171V56.4587H39.3267C39.857 56.505 40.3899 56.4071 40.8691 56.1753C41.146 55.9907 41.2844 55.5557 41.2844 54.8569V42.5171H47.217V52.9519C47.2436 54.3174 47.1332 55.6822 46.8874 57.0256C46.7039 57.9914 46.2851 58.8971 45.668 59.6624C45.0322 60.4021 44.1783 60.9213 43.229 61.1455C41.9162 61.4538 40.5694 61.5933 39.2212 61.5608C37.8752 61.5941 36.5304 61.4546 35.22 61.1455C34.2766 60.9159 33.4286 60.3974 32.7942 59.6624C32.179 58.8967 31.7624 57.991 31.5813 57.0256C31.3356 55.6822 31.2252 54.3174 31.2517 52.9519V42.5171H37.2173ZM62.3188 61.0994H50.4536V42.5171H56.3862V56.3599H62.3188V61.1191V61.0994Z" fill="#1A1A1A"/>
</svg>
