<svg width="40" height="53" viewBox="0 0 40 53" fill="none" xmlns="http://www.w3.org/2000/svg">
<path fill-rule="evenodd" clip-rule="evenodd" d="M10.3868 45.86C12.7615 48.4667 15.527 50.8011 18.6323 52.6891C19.0147 52.9698 19.5329 53.0038 19.9577 52.7316C24.5457 49.8104 28.3987 46.3023 31.4276 42.488C35.6077 37.2407 38.2373 31.4237 39.1378 25.8192C40.0554 20.1382 39.1973 14.6699 36.3723 10.2263C35.2593 8.47011 33.8362 6.87127 32.103 5.48929C28.1183 2.31287 23.5686 0.633237 19.0316 0.667255C14.6646 0.701273 10.3528 2.32988 6.62723 5.73592C5.31881 6.92655 4.21856 8.29152 3.31797 9.77129C0.280582 14.7804 -0.373623 21.1673 0.960278 27.6392C2.27719 34.0346 5.54821 40.532 10.3868 45.8473V45.86ZM19.8983 10.7706C14.5117 10.7706 10.1489 15.1419 10.1489 20.5295C10.1489 25.9213 14.5159 30.2883 19.8983 30.2883C25.2848 30.2883 29.6476 25.9213 29.6476 20.5295C29.6519 15.1376 25.2848 10.7706 19.8983 10.7706Z" fill="white"/>
</svg>
