<svg width="86" height="83" viewBox="0 0 86 83" fill="none" xmlns="http://www.w3.org/2000/svg">
<path d="M13.9531 0.214355H73.5292C79.9146 0.214355 85.091 5.39075 85.091 11.7761V71.0227C85.091 77.4081 79.9146 82.5845 73.5292 82.5845H25.5149C19.1295 82.5845 13.9531 77.4081 13.9531 71.0227V0.214355Z" fill="#293389"/>
<path d="M13.9533 0.248083V20.8069H0.523438V10.9947C3.38849 1.64982 10.6705 -0.0634138 13.9533 0.248083Z" fill="#131C65"/>
<path d="M0.523438 21.3563V20.8277V20.7988H13.9549V21.3563H0.523438Z" fill="#131C65"/>
<g clip-path="url(#clip0_836_510)">
<path d="M45.2727 33.8643H48.4789C49.6874 33.8643 51.4281 35.6028 51.4281 36.8136V43.9527L55.2054 36.2299C55.6589 35.4977 56.4882 35.1162 57.3505 35.2521L70.2131 41.37C70.5455 41.53 70.6632 41.9046 70.5409 42.245L61.8977 60.1933L61.3061 60.544L51.3858 55.839C51.0215 56.9047 50.343 57.8973 49.2133 58.24C50.3144 61.9775 44.681 62.2985 45.3595 58.489H39.7169C40.3954 62.2996 34.7619 61.9775 35.863 58.24C34.6351 57.8505 33.8299 56.6877 33.6562 55.4426V36.9095C33.6825 35.5994 35.2953 33.8631 36.5952 33.8631H39.8014V22.4497C39.8014 22.3412 40.0664 21.7335 40.1418 21.593C41.131 19.7437 43.8837 19.7049 44.89 21.5508C45.0077 21.7667 45.2738 22.3184 45.2738 22.5354V33.8643H45.2727ZM43.9043 33.8643V22.6199C43.9043 22.0579 43.0328 21.5314 42.4936 21.5439C41.9865 21.5565 41.1687 22.0979 41.1687 22.6199V33.8631H43.9043V33.8643ZM39.8003 35.2316H36.6797C36.0378 35.2316 34.9835 36.383 35.0121 37.0695L35.0086 55.2005C35.1263 56.2913 35.9293 57.0395 37.0178 57.124C40.6204 57.4039 44.5816 56.907 48.223 57.1206C49.1734 57.0178 50.0472 56.1291 50.0494 55.1651C48.568 54.6693 47.0168 53.7601 47.6496 51.9313C48.2299 50.2557 49.4932 48.5411 50.062 46.8198L50.0529 36.9918C50.0449 36.335 49.0123 35.2316 48.3932 35.2316H45.2727V38.6515H43.9043V35.2316H41.1687V38.6515H39.8003V35.2316ZM68.9555 42.2439L57.2443 36.64C56.3911 36.3704 55.9102 37.4384 56.6686 37.8999L68.4404 43.5255L68.9544 42.2439H68.9555ZM67.7573 44.7271L55.5744 38.7394C55.4796 38.7417 54.7908 40.2095 54.6892 40.4174C52.8902 44.0898 50.9141 47.9517 49.275 51.6766C49.0888 52.0993 48.7347 52.6156 48.9666 53.0416L60.952 58.9105L67.7562 44.7283L67.7573 44.7271ZM38.4445 59.1721C38.4445 58.7883 38.1326 58.4765 37.7488 58.4765C37.3651 58.4765 37.0532 58.7883 37.0532 59.1721C37.0532 59.5559 37.3651 59.8677 37.7488 59.8677C38.1326 59.8677 38.4445 59.5559 38.4445 59.1721ZM48.0209 59.1721C48.0209 58.7883 47.709 58.4765 47.3252 58.4765C46.9415 58.4765 46.6296 58.7883 46.6296 59.1721C46.6296 59.5559 46.9415 59.8677 47.3252 59.8677C47.709 59.8677 48.0209 59.5559 48.0209 59.1721Z" fill="white"/>
<path d="M62.7184 24.1949L65.7624 26.1516C66.4649 25.9586 67.3833 24.7775 68.1052 25.0094C68.2913 25.0688 69.7968 26.572 69.8585 26.7627C69.9441 27.03 69.9099 27.2162 69.7637 27.4481C69.5112 27.8479 67.4347 29.8742 66.9903 30.2318C66.3107 30.7778 65.4986 30.956 64.6899 30.563L53.0563 23.4719C52.0329 22.6026 54.3265 21.184 55.1021 20.9932C56.7286 20.5934 57.6675 21.3713 58.9948 22.1183L62.7378 20.2507C63.3718 19.9023 64.4957 21.1166 64.4226 21.6728C64.3655 22.1115 62.5756 23.9859 62.7196 24.1949H62.7184ZM62.6282 21.8944L59.0724 23.601C58.555 23.6684 57.519 22.7751 56.989 22.5307C56.1506 22.1446 55.238 22.1069 54.5915 22.8322L65.5157 29.4025L65.7956 29.3831L68.1805 26.9923C68.048 26.8438 67.8676 26.5548 67.6517 26.6074C67.0977 26.8724 66.2182 27.8296 65.598 27.6902L61.2187 24.8003C60.9742 24.573 60.9468 24.268 61.0702 23.9665C61.1787 23.7026 62.7287 21.9767 62.6293 21.8933L62.6282 21.8944Z" fill="white"/>
<path d="M46.6398 30.0157C47.5673 30.082 48.0368 29.3361 48.7152 28.8849C50.3749 27.7826 52.3521 27.7529 54.038 28.8164C54.3989 29.0437 55.1243 29.8056 55.411 29.8433C55.9352 29.9118 56.1237 29.4766 56.5303 29.2619C58.6172 28.1562 60.0278 30.7594 61.4762 31.8959C62.6926 32.852 64.2403 33.6367 65.7264 34.0582C66.5111 34.2809 67.3712 34.5105 68.1844 34.4214L67.2524 32.1255L68.3866 31.5635C68.4986 31.5955 69.0765 32.9502 69.1679 33.1821C69.932 35.1056 70.4164 37.2702 70.494 39.3366H69.1256C69.1176 38.1852 68.8789 37.0395 68.5979 35.9303C65.2421 35.7453 62.1992 34.4249 59.7194 32.1986C59.3528 31.8696 58.1569 30.4978 57.8439 30.3973C57.2054 30.1917 56.7131 31.0346 55.9626 31.1751C54.1808 31.5098 53.6862 29.6594 51.8735 29.4423C49.34 29.1385 48.9562 31.3785 46.6387 31.3853V30.0169L46.6398 30.0157Z" fill="white"/>
<path d="M32.8742 49.2524L31.5995 49.7607C27.267 40.9573 29.9604 29.6992 38.0405 24.1182C38.1741 24.3455 38.8457 25.0023 38.7349 25.2262C38.6561 25.3884 37.5607 26.1594 37.3186 26.381C30.8833 32.2739 29.0694 41.3205 32.8742 49.2524Z" fill="white"/>
<path d="M50.7432 59.8563C52.5445 59.7706 54.3286 59.4588 56.0431 58.915L56.388 60.2378C54.5616 60.8169 52.6621 61.1424 50.7432 61.2247V59.8563Z" fill="white"/>
<path d="M52.1974 20.2688L51.9747 21.6418C50.2214 21.443 48.4681 21.5881 46.7262 21.8074L46.5537 20.439C48.4281 20.2025 50.3105 20.0917 52.1974 20.2688Z" fill="white"/>
<path d="M39.1164 40.0195H37.748V55.7518H39.1164V40.0195Z" fill="white"/>
<path d="M43.2209 40.0195H41.8525V55.7518H43.2209V40.0195Z" fill="white"/>
<path d="M47.3244 40.0195H45.9561V55.7518H47.3244V40.0195Z" fill="white"/>
<path d="M63.7476 47.3471C63.7476 49.9903 61.6048 52.1331 58.9617 52.1331C56.3186 52.1331 54.1758 49.9903 54.1758 47.3471C54.1758 44.7039 56.3186 42.561 58.9617 42.561C61.6048 42.561 63.7476 44.7039 63.7476 47.3471ZM59.2084 43.9534C58.1096 43.8746 56.9148 44.3315 56.3015 45.2762L57.4448 45.8222L58.3837 44.6674L59.2084 43.9546V43.9534ZM60.0628 45.0637C59.7807 45.1882 58.6362 46.2711 58.8178 46.5212L59.8115 46.9085C60.0959 46.335 60.0754 45.684 60.0639 45.0637H60.0628ZM62.2856 48.1421C62.538 47.1084 62.2742 45.7651 61.4323 45.0637C61.502 45.9261 61.3147 46.7508 61.0954 47.5755L62.2856 48.1421ZM56.804 47.041L55.6173 46.5178C55.3443 47.6863 55.7224 48.7372 56.3871 49.6807L56.804 47.041ZM57.8412 49.595C58.4546 49.338 58.8064 48.7612 59.2073 48.27L58.1427 47.7126C57.9977 47.708 57.7612 49.3974 57.8412 49.595ZM58.7812 50.7921C59.92 50.8001 60.9457 50.317 61.6859 49.4671L60.4123 48.8297C60.0982 49.5459 59.486 50.0405 58.9251 50.5511C58.8418 50.6265 58.7413 50.6265 58.7812 50.791V50.7921Z" fill="white"/>
<path d="M52.8794 51.9833L52.2705 53.252L58.4892 56.2369L59.0981 54.9682L52.8794 51.9833Z" fill="white"/>
</g>
<defs>
<clipPath id="clip0_836_510">
<rect width="41.0424" height="41.0424" fill="white" transform="translate(29.5449 20.1821)"/>
</clipPath>
</defs>
</svg>
