<svg width="87" height="56" viewBox="0 0 87 56" fill="none" xmlns="http://www.w3.org/2000/svg">
<path d="M3.80832 1.20205C2.56367 1.99022 1.65093 3.02727 1.02861 4.27174C0.15736 6.09696 0.115872 6.34585 0.240337 25.801L0.364801 45.4636L1.52647 47.2059C2.14879 48.16 3.39344 49.3215 4.30618 49.7778C5.84124 50.5659 6.71249 50.6074 21.7312 50.6074H37.4967V49.363V48.1185H22.0631C7.29332 48.1185 6.54654 48.077 5.21892 47.2888C2.68814 45.7125 2.64665 45.5051 2.64665 25.2618C2.64665 5.01842 2.64665 4.89397 5.30189 3.27617C6.54654 2.52948 7.99862 2.488 37.7041 2.488C68.1979 2.488 68.8618 2.488 70.1894 3.31765C72.0563 4.43767 72.7616 6.38733 72.7616 10.1622V13.2734H74.0063H75.2509V9.66443C75.2509 5.0599 74.3382 2.94431 71.6 1.20205L69.6915 -0.000934601H37.7041H5.71677L3.80832 1.20205Z" fill="#293389"/>
<path d="M58.739 12.9414C55.6689 15.7207 41.231 29.3684 39.2811 31.3595C38.2853 32.3136 37.4971 33.5166 37.4971 33.9729C37.4971 34.8026 37.746 34.844 41.6044 34.844H45.7532L45.8777 44.0116L46.0021 53.1792L47.5372 54.5896L49.1138 56H61.5602C75.2928 56 75.8736 55.917 77.1183 53.5111C77.6161 52.557 77.7406 50.5658 77.7406 43.5553V34.844H81.9309H86.1212L85.8308 33.6825C85.7063 33.0603 85.167 32.1892 84.6691 31.6914C80.1054 27.3358 66.7047 14.7251 65.0037 13.1488C62.2655 10.6599 61.3113 10.6599 58.739 12.9414Z" fill="#293389"/>
<path d="M10.9448 14.5173V15.7617H26.9178H42.8907V14.5173V13.2728H26.9178H10.9448V14.5173Z" fill="#293389"/>
<path d="M10.9448 25.3044V26.5488H22.9764H35.008V25.3044V24.0599H22.9764H10.9448V25.3044Z" fill="#293389"/>
<path d="M10.9448 36.0885V37.333H20.2797H29.6145V36.0885V34.8441H20.2797H10.9448V36.0885Z" fill="#293389"/>
</svg>
