<svg width="85" height="83" viewBox="0 0 85 83" fill="none" xmlns="http://www.w3.org/2000/svg">
<path d="M0 13.6508C0 6.11169 6.11167 0 13.6508 0H71.4997V71.2273C71.4997 77.6127 66.3233 82.7892 59.9379 82.7892H11.5618C5.17639 82.7892 0 77.6128 0 71.2274V13.6508Z" fill="#293389"/>
<path d="M71.5018 0.0338993V20.6973H85V10.8352C82.1204 1.44277 74.8013 -0.279182 71.5018 0.0338993Z" fill="#131C65"/>
<path d="M85 21.2493V20.718V20.689H71.5002V21.2493H85Z" fill="#131C65"/>
<g clip-path="url(#clip0_836_505)">
<path d="M15.3564 47.9766V47.578C15.5211 47.4192 15.604 47.1655 15.8763 47.1751L27.1176 47.2198C27.7762 47.8039 27.4017 48.3838 26.5978 48.4584C23.2829 48.7664 19.4871 48.2218 16.1217 48.4552C15.7525 48.4456 15.5577 48.2495 15.3564 47.9766Z" fill="white"/>
<path d="M15.3564 42.711C15.5319 42.1578 17.1473 42.2015 17.4067 42.4754C18.4474 43.5765 15.8117 44.0423 15.3564 43.1896V42.711Z" fill="white"/>
<path d="M15.3564 52.8432V52.4446C15.7514 51.4906 18.3333 51.9671 17.453 53.0457C17.1968 53.3602 15.5437 53.4071 15.3564 52.8443V52.8432Z" fill="white"/>
<path d="M35.7196 49.3512C35.6755 49.2989 35.0362 49.0687 34.9135 49.1071L32.493 50.6259C32.3391 50.7059 32.1756 50.7091 32.0098 50.6728C31.4943 50.5599 29.5312 48.1574 28.9339 47.7332C28.851 47.6287 28.8091 47.5093 28.8037 47.3761C28.7779 46.7185 30.4794 44.9225 30.4062 44.445C30.3965 44.3789 30.1673 43.8449 30.1264 43.8203C29.2643 43.5208 28.0826 43.4878 27.2593 43.1691C26.9493 43.0487 26.832 42.8387 26.7933 42.5136C26.7201 41.9018 26.7029 39.0836 26.8299 38.5571C26.8869 38.3183 26.9741 38.2203 27.1979 38.1233C27.6467 37.9293 30.0564 37.5839 30.1845 37.391C30.2028 37.3622 30.4008 36.8602 30.4062 36.8272C30.4633 36.4562 29.104 34.7977 28.8984 34.2851C28.8188 34.0868 28.7746 33.977 28.8252 33.7521C28.9371 33.2501 31.3996 31.2494 31.8408 30.6728L32.4382 30.6184C33.1614 30.9222 34.1817 31.905 34.8575 32.1363C35.1277 32.229 35.4925 32.0158 35.739 31.8804C36.0123 31.0427 36.0737 30.0471 36.3406 29.2243C36.473 28.8161 36.6021 28.6402 37.0649 28.5858C38.2681 28.4451 39.763 28.6807 40.9975 28.605C41.2289 28.6754 41.4032 28.8491 41.4979 29.0665C41.8176 29.7977 41.8682 31.0107 42.1189 31.8026C42.1953 31.986 42.8088 32.213 43.0079 32.164C43.7516 31.8069 44.6997 30.9233 45.4273 30.6451C45.8729 30.4746 46.1279 30.7549 46.4529 31.0213C47.0083 31.4754 48.4085 32.8323 48.8217 33.3833C49.0316 33.6626 49.1651 33.7979 49.0574 34.1593C48.8669 34.7956 47.8725 35.8508 47.5625 36.5095C47.4226 36.7035 47.5776 37.2055 47.7057 37.3612C47.9274 37.6287 50.0863 37.8952 50.5997 38.0849C50.9914 38.2298 51.0926 38.54 51.1281 38.9173C51.1905 39.5739 51.225 42.0776 51.0905 42.6362C51.0388 42.8493 50.8666 43.0785 50.661 43.168C50.0002 43.4558 48.7755 43.5112 48.0286 43.7521C47.6002 43.8896 47.4592 44.2872 47.5356 44.7082C47.9156 45.4362 48.6431 46.2271 48.9821 46.9476C49.2264 47.4688 49.0391 47.6191 48.7109 48.0188C48.232 48.6008 47.0416 49.7722 46.454 50.2518C46.1311 50.5162 45.8739 50.7976 45.4284 50.6281C44.7224 50.3584 43.7796 49.494 43.0649 49.1348C42.8884 49.0218 42.2244 49.284 42.1448 49.4151C41.8746 50.2305 41.8294 51.3731 41.5184 52.1459C41.3677 52.52 41.1837 52.6522 40.7779 52.6884C39.9794 52.7609 37.7429 52.7929 36.9928 52.6799C36.7786 52.6479 36.4934 52.503 36.4224 52.2876C36.1523 51.7856 35.9822 49.6613 35.7207 49.3522L35.7196 49.3512ZM37.518 51.3987L40.3334 51.3699L41.0642 48.5027C41.1482 48.378 42.6377 47.7193 42.826 47.6884C43.0413 47.6532 43.1188 47.7012 43.3028 47.7854C43.6375 47.9389 45.522 49.2734 45.6468 49.2179L47.5701 47.2812L46.0504 44.6571C46.0289 44.5601 46.0623 44.4748 46.0859 44.3842C46.1139 44.2776 46.6574 42.9847 46.7037 42.9186C46.807 42.7705 46.9975 42.7118 47.16 42.6522C47.7843 42.423 49.2641 42.3175 49.7032 42.0585C49.8022 41.9998 49.8151 41.9892 49.8377 41.873C49.8818 41.6417 49.8722 39.3842 49.8 39.2755L46.8264 38.4707C46.7521 38.4324 46.7166 38.3684 46.6768 38.3002C46.6251 38.2128 46.0816 36.9039 46.0655 36.8261C46.0311 36.6545 46.058 36.5831 46.1129 36.4285C46.3367 35.7911 47.2472 34.8841 47.5206 34.2296C47.5625 34.1284 47.6185 34.0463 47.5442 33.9376L45.6092 32.0339L43.0111 33.5997C42.8648 33.6146 41.3279 32.9996 41.188 32.8866C41.0588 32.7832 41.0524 32.7417 40.9964 32.5978C40.8436 32.2013 40.4992 30.0109 40.3345 29.9032L37.5191 29.8745C37.4028 29.9736 37.0875 32.2801 36.8561 32.6884C36.7119 32.9421 35.175 33.6274 34.9124 33.6008C34.807 33.5901 34.7155 33.5283 34.6208 33.4867C34.2538 33.3279 32.4005 31.9998 32.2746 32.0552L30.2803 34.0538L31.7741 36.4669C31.8527 36.8399 31.2898 38.3215 30.9842 38.5198C30.5892 38.7766 28.1074 39.1007 28.0826 39.2467L28.0912 42.0691C28.1924 42.1736 30.502 42.4805 30.9368 42.7214C31.2371 42.8877 31.8215 44.3298 31.7989 44.6645C31.7644 45.1687 30.2168 47.0777 30.2997 47.2599L32.3165 49.2392C32.507 49.2403 34.4141 47.7236 34.9146 47.6735C35.1567 47.649 36.685 48.3258 36.826 48.5379C37.1037 48.9557 37.391 51.2879 37.5212 51.3998L37.518 51.3987Z" fill="white"/>
<path d="M50.5329 29.1752C42.3976 21.1172 28.5551 23.7435 23.9617 34.1198C23.7174 34.6719 23.4569 35.757 23.2051 36.1631C22.8531 36.7291 22.0244 36.4764 21.9878 35.8785C21.9695 35.5811 22.428 34.4406 22.5679 34.0953C28.0514 20.5949 46.9738 19.318 54.2815 31.9667C60.7497 43.1616 53.0029 57.3867 40.0482 58.1094C34.4055 58.4238 28.4776 57.8717 22.8047 58.1137C21.8458 58.0263 21.793 57.003 22.7261 56.8314L39.9718 56.8368C53.8542 55.9201 60.5409 39.0868 50.534 29.1763L50.5329 29.1752Z" fill="white"/>
<path d="M49.4056 50.98C45.7119 54.6658 40.067 56.1537 34.9958 54.735C34.6256 54.6317 33.7226 54.411 33.5267 54.1168C33.2684 53.7299 33.4675 53.2045 33.9238 53.1565C34.3533 53.1117 35.5802 53.5828 36.1269 53.6958C48.325 56.2091 57.1986 42.4626 49.7091 32.5851C43.7628 24.7414 31.3635 25.8371 26.9132 34.5698C26.7206 34.9492 26.2922 36.2453 26.0221 36.3988C25.5991 36.6387 25.0696 36.3562 25.0244 35.8819C24.9889 35.5088 25.922 33.6968 26.1674 33.2726C30.3733 26.0258 40.0681 23.8119 47.1229 28.4442C54.8815 33.5391 55.9717 44.427 49.4056 50.98Z" fill="white"/>
<path d="M19.6056 51.984L31.4292 51.9648C32.2999 51.968 32.4957 53.1405 31.5917 53.2428H19.5841C18.7446 53.1469 18.8135 52.1247 19.6045 51.983L19.6056 51.984Z" fill="white"/>
<path d="M16.0258 37.6298C16.1657 37.503 16.4132 37.4571 16.6005 37.4401C19.2599 37.1992 22.2863 37.6298 24.9844 37.4422C25.8196 37.5403 25.8755 38.6275 25.0651 38.7223H16.4423C15.8816 38.7138 15.6243 37.9943 16.0269 37.6298H16.0258Z" fill="white"/>
<path d="M25.4847 43.4057C25.3965 43.4942 25.1188 43.5752 24.9854 43.5901C23.837 43.717 20.8128 43.717 19.6644 43.5901C18.783 43.4931 18.7432 42.406 19.5837 42.31C21.2766 42.116 23.3323 42.4603 25.065 42.31C25.6182 42.3015 25.8442 43.0476 25.4837 43.4068L25.4847 43.4057Z" fill="white"/>
<path d="M46.2263 40.6359C46.2263 44.6148 42.9696 47.8401 38.952 47.8401C34.9344 47.8401 31.6777 44.6148 31.6777 40.6359C31.6777 36.657 34.9344 33.4316 38.952 33.4316C42.9696 33.4316 46.2263 36.657 46.2263 40.6359ZM38.316 34.7331C37.2193 34.8674 36.184 35.2852 35.2928 35.9279L35.2595 36.043C36.1151 36.8232 35.1217 37.822 34.3231 36.9703C34.1273 36.9256 33.4589 38.2409 33.3642 38.4839C33.1759 38.9678 33.0499 39.4847 32.9994 39.9985C34.2521 39.9004 34.2725 41.366 32.9994 41.2754C33.0898 42.3701 33.5751 43.3816 34.2058 44.2705L34.3221 44.3035C35.1099 43.4562 36.1183 44.44 35.2584 45.2309C35.2143 45.4216 36.3992 46.0068 36.6274 46.0995C37.159 46.3159 37.7079 46.4459 38.2751 46.5419C38.1954 45.2543 39.6914 45.2969 39.6064 46.5408C40.7386 46.4118 41.7244 45.9471 42.6672 45.3428L42.6651 45.2277C41.8041 44.4197 42.7673 43.4466 43.5971 44.3046L43.7133 44.3067C44.3085 43.372 44.7702 42.4297 44.9241 41.3159C43.6122 41.3756 43.6111 39.8983 44.9241 39.9569C44.7723 38.8346 44.3149 37.904 43.7133 36.9661C43.5271 36.9362 43.4561 37.1569 43.2914 37.224C42.3895 37.5949 41.9956 36.5941 42.6651 36.0452L42.6672 35.93C41.7341 35.3289 40.7687 34.8812 39.6484 34.7309C39.6667 35.9642 38.1718 36.0143 38.3171 34.732L38.316 34.7331Z" fill="white"/>
<path d="M39.6177 39.1883C39.6392 39.2214 40.0676 39.4015 40.2484 39.6403C40.9243 40.5313 40.5099 41.966 39.3669 42.1973C39.0548 42.2602 38.4059 42.1536 38.3165 42.1898C37.7687 42.4158 36.9852 44.1468 36.1414 43.5467C35.1373 42.8326 37.1886 41.7539 37.391 41.2732C37.4265 41.189 37.3296 40.6454 37.3458 40.4344C37.3985 39.7426 37.8387 39.4964 38.3004 39.0668C38.4812 38.4838 37.8903 36.6622 38.9946 36.7283C40.0579 36.7923 39.3798 38.8196 39.6177 39.1883Z" fill="white"/>
</g>
<defs>
<clipPath id="clip0_836_505">
<rect width="41.2512" height="35.0246" fill="white" transform="translate(15.3564 23.1831)"/>
</clipPath>
</defs>
</svg>
