<svg width="16" height="16" viewBox="0 0 16 16" fill="none" xmlns="http://www.w3.org/2000/svg">
<path d="M7.86 0C9.0792 0 10.233 0.277757 11.2639 0.77318C10.8419 1.10702 10.4506 1.42751 10.0861 1.73598C9.39167 1.4836 8.64253 1.34606 7.86134 1.34606C6.06259 1.34606 4.43344 2.07517 3.25564 3.2543C2.0765 4.43344 1.34739 6.06125 1.34739 7.86C1.34739 9.65875 2.0765 11.2866 3.25564 12.4657C4.43477 13.6448 6.06259 14.3739 7.86134 14.3739C9.66008 14.3739 11.2892 13.6448 12.467 12.4657C13.6462 11.2866 14.3753 9.65875 14.3753 7.86C14.3753 7.43268 14.3339 7.01337 14.2551 6.60876C14.5929 6.16808 14.9388 5.72875 15.2927 5.29342C15.5704 6.09731 15.7213 6.9613 15.7213 7.86C15.7213 10.03 14.8413 11.9956 13.4192 13.4178C11.997 14.84 10.0313 15.72 7.86134 15.72C5.69136 15.72 3.72569 14.84 2.30352 13.4178C0.88001 11.9956 0 10.03 0 7.86C0 5.69002 0.88001 3.72435 2.30218 2.30218C3.72435 0.88001 5.69002 0 7.86 0ZM4.19841 6.5687L6.116 6.54332L6.25889 6.58071C6.64615 6.80372 7.0107 7.05878 7.35122 7.34722C7.59693 7.55554 7.83196 7.78255 8.05497 8.02826C8.74268 6.92123 9.4758 5.90502 10.2503 4.97026C11.0983 3.94602 11.9983 3.01661 12.9438 2.16864L13.1307 2.09653H15.2232L14.8013 2.56525C13.5046 4.00612 12.3282 5.49506 11.2652 7.03073C10.2022 8.56775 9.25146 10.1542 8.40617 11.7873L8.1431 12.2948L7.9014 11.778C7.45538 10.8205 6.92123 9.94185 6.28426 9.15665C5.64729 8.37145 4.90616 7.67438 4.04217 7.08148L4.19841 6.5687Z" fill="#293389"/>
</svg>
