<svg width="61" height="57" viewBox="0 0 61 57" fill="none" xmlns="http://www.w3.org/2000/svg">
<path d="M54.4338 56.9999H5.63108C4.13921 56.9947 2.70991 56.3998 1.655 55.3449C0.600081 54.29 0.00515331 52.8607 0 51.3688L0 19.5522H60.0648V51.359C60.0622 52.8517 59.4681 54.2825 58.4127 55.338C57.3572 56.3934 55.9264 56.9875 54.4338 56.9901V56.9999Z" fill="#808080"/>
<path fill-rule="evenodd" clip-rule="evenodd" d="M6.2333 55.1963H53.8335C55.0069 55.1924 56.131 54.7246 56.9607 53.8949C57.7904 53.0652 58.2583 51.941 58.2621 50.7677V21.967H1.80469V50.7677C1.80727 51.9414 2.27468 53.0663 3.10465 53.8963C3.93462 54.7263 5.05955 55.1937 6.2333 55.1963Z" fill="white"/>
<path fill-rule="evenodd" clip-rule="evenodd" d="M5.63108 3.26025H54.4338C55.9252 3.26669 57.3538 3.86202 58.4084 4.91666C59.4631 5.97131 60.0584 7.39986 60.0648 8.89133V21.967H0V8.89133C0.00515331 7.39946 0.600081 5.97017 1.655 4.91525C2.70991 3.86033 4.13921 3.26541 5.63108 3.26025ZM17.7486 8.02614C18.6501 8.02517 19.5316 8.29166 20.2815 8.79188C21.0314 9.29209 21.6161 10.0035 21.9615 10.8362C22.3069 11.6688 22.3976 12.5852 22.2219 13.4694C22.0463 14.3536 21.6123 15.1658 20.9749 15.8032C20.3375 16.4406 19.5253 16.8746 18.6411 17.0502C17.7569 17.2259 16.8405 17.1352 16.0079 16.7898C15.1752 16.4444 14.4638 15.8597 13.9636 15.1098C13.4634 14.3599 13.1969 13.4784 13.1978 12.577C13.1978 11.37 13.6773 10.2125 14.5307 9.35904C15.3842 8.5056 16.5417 8.02614 17.7486 8.02614ZM42.0864 8.02614C42.9879 8.02517 43.8694 8.29166 44.6193 8.79188C45.3692 9.29209 45.9539 10.0035 46.2993 10.8362C46.6447 11.6688 46.7354 12.5852 46.5597 13.4694C46.3841 14.3536 45.9501 15.1658 45.3127 15.8032C44.6753 16.4406 43.8631 16.8746 42.9789 17.0502C42.0947 17.2259 41.1783 17.1352 40.3457 16.7898C39.513 16.4444 38.8016 15.8597 38.3014 15.1098C37.8012 14.3599 37.5347 13.4784 37.5356 12.577C37.5356 11.37 38.0151 10.2125 38.8685 9.35904C39.722 8.5056 40.8795 8.02614 42.0864 8.02614Z" fill="#EF4136"/>
<path fill-rule="evenodd" clip-rule="evenodd" d="M42.087 7.15137C43.3434 7.15002 44.5615 7.58441 45.5336 8.38051C46.5057 9.17662 47.1717 10.2852 47.418 11.5173C47.6644 12.7494 47.4759 14.0288 46.8846 15.1375C46.2934 16.2461 45.336 17.1155 44.1756 17.5974C43.0152 18.0793 41.7236 18.1439 40.5209 17.7802C39.3182 17.4166 38.2788 16.6471 37.5799 15.6029C36.8809 14.5588 36.5657 13.3046 36.6878 12.054C36.81 10.8035 37.362 9.63403 38.2498 8.74489L38.3036 8.69601C39.314 7.70596 40.6723 7.15142 42.087 7.15137ZM42.087 8.02634C42.9884 8.02537 43.8699 8.29186 44.6198 8.79207C45.3697 9.29229 45.9544 10.0037 46.2998 10.8364C46.6452 11.669 46.7359 12.5854 46.5602 13.4696C46.3846 14.3538 45.9506 15.166 45.3132 15.8034C44.6758 16.4408 43.8636 16.8748 42.9794 17.0504C42.0952 17.2261 41.1788 17.1354 40.3462 16.79C39.5136 16.4446 38.8021 15.8599 38.3019 15.11C37.8017 14.3601 37.5352 13.4786 37.5361 12.5771C37.5361 11.3702 38.0156 10.2127 38.8691 9.35924C39.7225 8.5058 40.88 8.02634 42.087 8.02634Z" fill="#C72B20"/>
<path fill-rule="evenodd" clip-rule="evenodd" d="M17.7491 7.15137C19.0056 7.15002 20.2236 7.58441 21.1957 8.38051C22.1678 9.17662 22.8338 10.2852 23.0802 11.5173C23.3265 12.7494 23.138 14.0288 22.5468 15.1375C21.9555 16.2461 20.9981 17.1155 19.8377 17.5974C18.6773 18.0793 17.3857 18.1439 16.183 17.7802C14.9803 17.4166 13.9409 16.6471 13.242 15.6029C12.543 14.5588 12.2278 13.3046 12.35 12.054C12.4721 10.8035 13.0241 9.63403 13.9119 8.74489L13.9657 8.69601C14.9767 7.70685 16.3346 7.15246 17.7491 7.15137ZM17.7491 8.02634C18.6505 8.02537 19.532 8.29186 20.2819 8.79207C21.0318 9.29229 21.6165 10.0037 21.9619 10.8364C22.3074 11.669 22.398 12.5854 22.2224 13.4696C22.0467 14.3538 21.6127 15.166 20.9753 15.8034C20.3379 16.4408 19.5257 16.8748 18.6415 17.0504C17.7574 17.2261 16.841 17.1354 16.0083 16.79C15.1757 16.4446 14.4642 15.8599 13.964 15.11C13.4638 14.3601 13.1973 13.4786 13.1983 12.5771C13.1983 11.3702 13.6777 10.2127 14.5312 9.35924C15.3846 8.5058 16.5421 8.02634 17.7491 8.02634Z" fill="#C72B20"/>
<path d="M39.3711 2.22897C39.3711 0.977618 40.5736 0 42.0889 0C43.6042 0 44.8066 0.977618 44.8066 2.22897V12.5966C44.8066 13.8235 43.5944 14.8256 42.0889 14.8256C40.5833 14.8256 39.3711 13.848 39.3711 12.5966V2.22897Z" fill="#1A1A1A"/>
<path d="M15.0332 2.22897C15.0332 0.977618 16.2503 0 17.751 0C19.2516 0 20.4688 0.977618 20.4688 2.22897V12.5966C20.4688 13.8235 19.2565 14.8256 17.751 14.8256C16.2454 14.8256 15.0332 13.848 15.0332 12.5966V2.22897Z" fill="#1A1A1A"/>
<path d="M4.4675 42.5038L4.80209 40.5281C5.45015 40.6964 6.11622 40.7856 6.78574 40.7936C7.25946 40.7996 7.73308 40.7757 8.20377 40.7219V40.1324L7.12564 40.0368C6.15019 39.9501 5.48101 39.7164 5.11809 39.3358C4.75518 38.9551 4.57814 38.394 4.587 37.6522C4.587 36.6289 4.80829 35.927 5.25087 35.5464C5.69168 35.1613 6.44584 34.9701 7.50803 34.9701C8.47409 34.9602 9.43811 35.0609 10.3813 35.2702L10.0706 37.1848C9.48028 37.08 8.88282 37.0205 8.28344 37.0069C7.90374 37.0028 7.52416 37.0224 7.14689 37.0653V37.6522L8.00992 37.7372C9.05618 37.8398 9.77848 38.0895 10.1768 38.486C10.3836 38.7052 10.5434 38.9642 10.6466 39.2473C10.7498 39.5304 10.7942 39.8316 10.7769 40.1324C10.7879 40.5663 10.7185 40.9984 10.5725 41.407C10.4701 41.7047 10.3043 41.9765 10.0865 42.2037C9.85853 42.4039 9.58502 42.5452 9.28987 42.6153C8.99538 42.7032 8.69297 42.7619 8.387 42.7906C8.12145 42.8091 7.78155 42.8198 7.35136 42.8198C6.38046 42.8271 5.41194 42.7229 4.46484 42.5091L4.4675 42.5038ZM16.5553 39.8084H14.1653V40.7193H17.0943V42.6286H11.7674V35.1507H17.0465L16.7465 37.0653H14.1707V38.0718H16.5606V39.8084H16.5553ZM22.1557 40.8282H20.5969V42.6286H18.207V35.1507H21.9778C23.6932 35.1507 24.5518 36.0722 24.5536 37.9151C24.5536 38.9295 24.3297 39.6801 23.8818 40.1669C23.6865 40.3713 23.4491 40.5308 23.186 40.6343C22.8604 40.7687 22.5106 40.8346 22.1584 40.8282H22.1557ZM20.5969 37.0653V38.9242H21.1493C21.363 38.9367 21.577 38.906 21.7786 38.8339C21.8486 38.7925 21.9046 38.7313 21.9396 38.658C21.9746 38.5847 21.987 38.5026 21.9751 38.4223V37.5831C21.9875 37.5024 21.9754 37.4197 21.9404 37.3459C21.9054 37.2721 21.849 37.2104 21.7786 37.1689C21.5766 37.0985 21.3629 37.0678 21.1493 37.0786L20.5969 37.0653Z" fill="#1A1A1A"/>
<path d="M30.469 32.2251L27.181 45.5811H26.125L29.401 32.2251H30.469Z" fill="black"/>
<path d="M34.7804 42.9467H32.1426L34.1681 35.1385H38.0278L40.0533 42.9467H37.4155L37.1384 41.7109H35.0686L34.7915 42.9467H34.7804ZM36.0301 37.5436L35.5175 39.7298H36.6674L36.1658 37.5436H36.0301ZM43.1206 35.1441V41.0071H44.0073C44.2311 41.0257 44.4558 40.9846 44.6584 40.888C44.7748 40.8104 44.833 40.6275 44.833 40.3338V35.1441H47.3268V39.5303C47.3378 40.1043 47.2914 40.6779 47.1882 41.2427C47.1118 41.6489 46.9357 42.0297 46.6756 42.351C46.4095 42.6625 46.0516 42.8817 45.6532 42.9772C45.1004 43.1066 44.5333 43.1653 43.9657 43.1518C43.3999 43.1658 42.8347 43.1071 42.2838 42.9772C41.8864 42.8812 41.5296 42.662 41.2642 42.351C41.0051 42.0295 40.8299 41.6486 40.7543 41.2427C40.6512 40.6779 40.6048 40.1043 40.6158 39.5303V35.1441H43.1206ZM52.6717 40.6552V40.3172H52.0372V38.4053H55.0463V42.5782C54.0643 42.9484 53.0229 43.1362 51.9734 43.1324C50.5548 43.1379 49.5758 42.7989 49.0364 42.1155C48.7526 41.7383 48.5558 41.3031 48.46 40.8409C48.3412 40.2509 48.2864 39.6499 48.2966 39.0482C48.2845 38.4482 48.3393 37.8488 48.46 37.261C48.5683 36.8059 48.7786 36.3814 49.0752 36.0196C49.6293 35.3177 50.6915 34.9676 52.2616 34.9695C52.6853 34.9769 53.1082 35.0102 53.5279 35.0692C53.9155 35.1084 54.2986 35.1835 54.6722 35.2937L54.2982 37.2083C53.6939 37.0964 53.0811 37.037 52.4667 37.031C52.0792 37.0113 51.691 37.0534 51.3168 37.1557C51.214 37.191 51.1259 37.2593 51.0662 37.3501C51.0065 37.4409 50.9787 37.5489 50.987 37.6572V41.1789H51.8183C52.0404 41.1916 52.2627 41.1596 52.4722 41.0847C52.6107 41.021 52.6772 40.8797 52.6772 40.6552H52.6717Z" fill="#1A1A1A"/>
</svg>
