<svg width="82" height="77" viewBox="0 0 82 77" fill="none" xmlns="http://www.w3.org/2000/svg">
<path d="M74.1286 76.61H8.53614C6.53101 76.6031 4.60999 75.8035 3.19215 74.3856C1.7743 72.9678 0.9747 71.0467 0.967773 69.0416L0.967773 26.2791H81.697V69.0285C81.6935 71.0347 80.895 72.9577 79.4764 74.3763C78.0578 75.7949 76.1348 76.5934 74.1286 76.5969V76.61Z" fill="#808080"/>
<path fill-rule="evenodd" clip-rule="evenodd" d="M9.34478 74.1856H73.3211C74.8981 74.1805 76.4091 73.5517 77.5242 72.4366C78.6394 71.3214 79.2681 69.8105 79.2733 68.2334V29.5244H3.39258V68.2334C3.39605 69.811 4.02427 71.323 5.13977 72.4385C6.25528 73.554 7.76723 74.1822 9.34478 74.1856Z" fill="white"/>
<path fill-rule="evenodd" clip-rule="evenodd" d="M8.53614 4.38208H74.1286C76.1332 4.39072 78.0533 5.19088 79.4707 6.60835C80.8882 8.02583 81.6884 9.94585 81.697 11.9504V29.5246H0.967773V11.9504C0.9747 9.94532 1.7743 8.0243 3.19215 6.60645C4.60999 5.18861 6.53101 4.38901 8.53614 4.38208ZM24.8226 10.7876C26.0342 10.7863 27.2189 11.1445 28.2268 11.8168C29.2347 12.4891 30.0206 13.4453 30.4848 14.5644C30.9491 15.6835 31.0709 16.9152 30.8348 18.1035C30.5988 19.2919 30.0155 20.3835 29.1588 21.2402C28.3021 22.097 27.2104 22.6802 26.0221 22.9163C24.8337 23.1523 23.602 23.0305 22.4829 22.5663C21.3638 22.102 20.4076 21.3162 19.7353 20.3083C19.063 19.3004 18.7048 18.1156 18.7061 16.904C18.7061 15.2819 19.3505 13.7261 20.4976 12.5791C21.6446 11.432 23.2004 10.7876 24.8226 10.7876ZM57.5334 10.7876C58.745 10.7863 59.9297 11.1445 60.9377 11.8168C61.9456 12.4891 62.7314 13.4453 63.1957 14.5644C63.6599 15.6835 63.7817 16.9152 63.5457 18.1035C63.3096 19.2919 62.7263 20.3835 61.8696 21.2402C61.0129 22.097 59.9213 22.6802 58.7329 22.9163C57.5446 23.1523 56.3129 23.0305 55.1938 22.5663C54.0747 22.102 53.1185 21.3162 52.4461 20.3083C51.7738 19.3004 51.4157 18.1156 51.417 16.904C51.417 15.2819 52.0614 13.7261 53.2084 12.5791C54.3555 11.432 55.9112 10.7876 57.5334 10.7876Z" fill="#EF4136"/>
<path fill-rule="evenodd" clip-rule="evenodd" d="M57.5343 9.61158C59.2231 9.60977 60.8602 10.1936 62.1668 11.2636C63.4733 12.3336 64.3684 13.8235 64.6995 15.4795C65.0306 17.1355 64.7773 18.855 63.9826 20.3452C63.188 21.8353 61.9012 23.0037 60.3416 23.6514C58.7819 24.2991 57.046 24.3859 55.4295 23.8971C53.813 23.4083 52.4161 22.3741 51.4767 20.9708C50.5373 19.5674 50.1136 17.8817 50.2778 16.2009C50.4419 14.5202 51.1839 12.9484 52.3771 11.7533L52.4494 11.6876C53.8075 10.357 55.633 9.61164 57.5343 9.61158ZM57.5343 10.7876C58.7459 10.7863 59.9307 11.1444 60.9386 11.8167C61.9465 12.489 62.7323 13.4453 63.1966 14.5644C63.6608 15.6835 63.7827 16.9151 63.5466 18.1035C63.3106 19.2919 62.7273 20.3835 61.8705 21.2402C61.0138 22.0969 59.9222 22.6802 58.7338 22.9163C57.5455 23.1523 56.3138 23.0305 55.1947 22.5662C54.0756 22.102 53.1194 21.3162 52.4471 20.3082C51.7748 19.3003 51.4166 18.1156 51.4179 16.904C51.4179 15.2818 52.0623 13.7261 53.2094 12.579C54.3564 11.432 55.9122 10.7876 57.5343 10.7876Z" fill="#C72B20"/>
<path fill-rule="evenodd" clip-rule="evenodd" d="M24.8234 9.61158C26.5122 9.60977 28.1493 10.1936 29.4558 11.2636C30.7624 12.3336 31.6575 13.8235 31.9886 15.4795C32.3197 17.1355 32.0663 18.855 31.2717 20.3452C30.477 21.8353 29.1902 23.0037 27.6306 23.6514C26.071 24.2991 24.335 24.3859 22.7186 23.8971C21.1021 23.4083 19.7051 22.3741 18.7657 20.9708C17.8263 19.5674 17.4026 17.8817 17.5668 16.2009C17.731 14.5202 18.4729 12.9484 19.6662 11.7533L19.7384 11.6876C21.0973 10.3582 22.9224 9.61304 24.8234 9.61158ZM24.8234 10.7876C26.035 10.7863 27.2197 11.1444 28.2277 11.8167C29.2356 12.489 30.0214 13.4453 30.4857 14.5644C30.9499 15.6835 31.0717 16.9151 30.8357 18.1035C30.5996 19.2919 30.0163 20.3835 29.1596 21.2402C28.3029 22.0969 27.2113 22.6802 26.0229 22.9163C24.8345 23.1523 23.6029 23.0305 22.4838 22.5662C21.3647 22.102 20.4084 21.3162 19.7361 20.3082C19.0638 19.3003 18.7057 18.1156 18.707 16.904C18.707 15.2818 19.3514 13.7261 20.4984 12.579C21.6455 11.432 23.2012 10.7876 24.8234 10.7876Z" fill="#C72B20"/>
<path d="M53.8809 2.99581C53.8809 1.31395 55.497 0 57.5336 0C59.5703 0 61.1864 1.31395 61.1864 2.99581V16.9303C61.1864 18.5793 59.5571 19.9261 57.5336 19.9261C55.5102 19.9261 53.8809 18.6121 53.8809 16.9303V2.99581Z" fill="#1A1A1A"/>
<path d="M21.1699 2.99581C21.1699 1.31395 22.8058 0 24.8227 0C26.8396 0 28.4755 1.31395 28.4755 2.99581V16.9303C28.4755 18.5793 26.8462 19.9261 24.8227 19.9261C22.7992 19.9261 21.1699 18.6121 21.1699 16.9303V2.99581Z" fill="#1A1A1A"/>
<path d="M16.4929 60.79L17.3207 55.9021C18.924 56.3185 20.5719 56.5391 22.2283 56.559C23.4003 56.5739 24.572 56.5146 25.7366 56.3816V54.9232L23.0692 54.6866C20.6559 54.472 19.0004 53.8939 18.1025 52.9522C17.2046 52.0106 16.7666 50.6222 16.7885 48.787C16.7885 46.2555 17.336 44.5188 18.431 43.5772C19.5216 42.6246 21.3874 42.1515 24.0153 42.1515C26.4053 42.1271 28.7903 42.3761 31.1238 42.8939L30.3551 47.6307C28.8947 47.3714 27.4165 47.2242 25.9336 47.1906C24.9943 47.1805 24.0552 47.2288 23.1218 47.3351V48.787L25.257 48.9972C27.8454 49.2513 29.6324 49.8688 30.6179 50.8499C31.1294 51.3921 31.525 52.0331 31.7803 52.7334C32.0356 53.4338 32.1453 54.1789 32.1026 54.9232C32.1296 55.9965 31.9581 57.0656 31.5968 58.0766C31.3435 58.813 30.9333 59.4855 30.3945 60.0476C29.8305 60.5428 29.1538 60.8924 28.4236 61.0659C27.695 61.2833 26.9468 61.4285 26.1899 61.4995C25.5329 61.5455 24.692 61.5718 23.6277 61.5718C21.2256 61.5899 18.8295 61.332 16.4863 60.8031L16.4929 60.79ZM46.3984 54.1216H40.4857V56.3751H47.7321V61.0987H34.5532V42.5983H47.6139L46.8715 47.3351H40.4988V49.825H46.4116V54.1216H46.3984ZM60.2541 56.6444H56.3976V61.0987H50.4848V42.5983H59.8139C64.058 42.5983 66.1822 44.878 66.1866 49.4374C66.1866 51.9471 65.6325 53.8041 64.5244 55.0086C64.0413 55.5143 63.454 55.9088 62.8031 56.1648C61.9975 56.4972 61.1321 56.6605 60.2606 56.6444H60.2541ZM56.3976 47.3351V51.9339H57.7641C58.2929 51.9648 58.8224 51.8889 59.3212 51.7105C59.4942 51.6083 59.6328 51.4568 59.7194 51.2755C59.806 51.0941 59.8366 50.8911 59.8073 50.6922V48.6162C59.838 48.4163 59.808 48.2119 59.7214 48.0292C59.6347 47.8465 59.4953 47.694 59.3212 47.5913C58.8214 47.417 58.2927 47.3412 57.7641 47.3679L56.3976 47.3351Z" fill="#1A1A1A"/>
</svg>
