<svg width="91" height="92" viewBox="0 0 91 92" fill="none" xmlns="http://www.w3.org/2000/svg">
<path d="M69.5377 1.07183C67.0455 1.71376 64.912 3.71507 64.1757 6.15063C64.0057 6.73591 63.8358 7.2268 63.8169 7.26456C63.7981 7.3212 21.544 9.56796 20.3923 9.56796C19.6749 9.56796 19.5994 9.51131 19.2784 8.79386C18.8064 7.75545 17.7113 6.67927 16.503 6.03734C15.6345 5.58421 15.2947 5.5087 13.8975 5.52757C12.5948 5.52757 12.1039 5.62198 11.3487 5.9807C9.36626 6.9436 8.10128 8.81274 7.91248 11.0595C7.74255 13.0419 8.64881 14.9866 10.3291 16.2516L11.0088 16.7802L8.66769 26.1826L6.30765 35.585L5.43916 35.7171C4.45739 35.8682 3.07913 36.5101 2.2484 37.2087C1.94631 37.473 1.39879 38.2093 1.04006 38.8701C0.454772 39.9652 0.398131 40.1917 0.417011 41.6644C0.417011 43.0427 0.492532 43.4203 0.926778 44.251C1.85191 46.0257 3.51337 47.2718 5.43916 47.6117L6.13773 47.7438L6.49646 49.3675C6.70414 50.2738 7.49711 53.8044 8.25232 57.2217L9.63058 63.4145L9.06417 63.8298C8.19568 64.4529 7.49711 65.2836 6.94958 66.3031C6.51534 67.115 6.43982 67.4737 6.4587 68.852C6.4587 70.2114 6.53422 70.6078 6.94958 71.4197C7.68591 72.8357 8.2712 73.4399 9.59282 74.1573C10.6879 74.7426 10.9144 74.7993 12.3871 74.7804C13.6898 74.7804 14.143 74.7049 14.8227 74.3461C15.6156 73.9308 15.6345 73.9308 16.0499 74.2895C16.2576 74.4783 18.5043 76.5174 21.0154 78.8208L25.5844 83.0122L25.0746 84.1072C24.6215 85.0701 24.5649 85.4477 24.5082 87.8644C24.4327 90.5265 24.4327 90.5454 24.9047 91.0174L25.3956 91.5083H36.5538H47.7121L48.1652 91.0363C48.5806 90.6209 48.6372 90.4321 48.6372 89.0539V87.5434L55.9439 79.1795C59.9465 74.5916 63.2694 70.7966 63.3072 70.7589C63.3449 70.7022 67.9328 75.2146 73.5214 80.7843C82.6783 89.9224 83.7545 90.923 84.5852 91.2062C86.4355 91.8104 88.2102 91.4139 89.513 90.0923C90.8346 88.7895 91.2311 87.0148 90.6269 85.1645C90.3437 84.3338 89.3242 83.2387 79.9973 73.893C71.9732 65.85 69.7265 63.5089 69.8775 63.3012C69.9908 63.1501 72.1998 60.6013 74.7864 57.6371L79.5064 52.2374H84.7551H90.0039L90.4948 51.7465C90.9668 51.2745 90.9668 51.2556 90.9101 48.5746C90.8346 45.9125 90.8346 45.8747 90.1171 44.4398C89.6451 43.4958 89.1165 42.7406 88.5123 42.2119C87.6627 41.4567 85.6425 40.3428 85.1139 40.3428C84.9628 40.3428 84.8873 40.2861 84.9251 40.1917C84.9628 40.1162 85.2838 39.4743 85.6425 38.738C86.2656 37.5107 86.3033 37.3031 86.3033 35.6227C86.3033 33.999 86.2467 33.7158 85.6992 32.5641C84.8684 30.8083 83.8111 29.7132 82.093 28.8636C80.7525 28.2217 80.526 28.165 78.8834 28.1461L77.0898 28.1273L76.4667 26.749C76.108 25.9938 75.8248 25.2952 75.8248 25.2197C75.8248 25.1253 77.3163 25.0498 79.1288 25.0498C82.4329 25.0498 82.4518 25.0498 82.9426 24.5589C83.4146 24.0869 83.4146 24.068 83.358 21.387C83.2825 18.7249 83.2825 18.6871 82.565 17.2522C82.093 16.3082 81.5644 15.553 80.9602 15.0243C80.1106 14.2691 78.0904 13.1552 77.5618 13.1552C77.4107 13.1552 77.3352 13.0986 77.373 13.0042C77.4107 12.9286 77.7317 12.2867 78.0904 11.5504C78.7135 10.3232 78.7512 10.1155 78.7512 8.43513C78.7512 6.71703 78.7135 6.54711 78.0527 5.18773C76.7688 2.62001 74.5032 1.09071 71.7089 0.958549C70.9159 0.920792 69.9341 0.977432 69.5377 1.07183ZM72.6907 4.13043C74.3144 4.62132 75.8248 6.69815 75.8248 8.43513C75.8248 10.7763 73.6347 12.9664 71.2935 12.9664C70.1041 12.9664 69.1412 12.5322 68.1783 11.5504C66.2525 9.64347 66.2525 7.2268 68.1783 5.31989C69.4999 3.97939 70.9159 3.62067 72.6907 4.13043ZM15.087 8.69946C17.0316 9.51131 17.5036 12.0413 15.9932 13.5517C13.8786 15.6852 10.4047 13.7783 10.9522 10.7952C11.292 9.02042 13.3689 7.96313 15.087 8.69946ZM64.119 10.5875C64.119 10.7385 64.3833 11.3427 64.6854 11.928C65.3274 13.1552 65.3274 13.1552 65.0253 13.1552C64.8931 13.1552 64.2701 13.4006 63.647 13.7027C61.9478 14.5146 60.8527 15.5908 60.022 17.2333C59.3801 18.555 59.3234 18.7815 59.229 20.915L59.1157 23.1806L57.8885 24.1813L56.6613 25.1819L55.3963 24.1624C47.561 17.8186 36.837 17.3089 28.5486 22.8597C27.8312 23.3317 27.1892 23.7281 27.1137 23.7281C27.0382 23.7281 25.169 21.7268 22.96 19.2724L18.9574 14.8355L19.4294 13.7594C19.9014 12.721 19.9392 12.6832 20.7322 12.6266C21.8839 12.5322 62.3443 10.3798 63.326 10.342C63.8925 10.3232 64.119 10.3987 64.119 10.5875ZM77.2219 16.2138C78.2603 16.5159 79.8274 18.083 80.1295 19.1214C80.2616 19.5556 80.356 20.3863 80.356 20.9716V22.0289H71.2935H62.231V20.9716C62.231 20.3863 62.3254 19.5556 62.4576 19.1214C62.7408 18.1585 64.3267 16.5348 65.2518 16.2327C66.2147 15.9306 76.2024 15.9117 77.2219 16.2138ZM20.8455 21.4436L24.8103 25.8616L23.8852 26.9756C20.6189 30.9026 18.8441 35.2451 18.4854 40.154L18.3721 41.7777L15.3891 41.1169L12.3871 40.4372L11.8396 39.3044C11.3298 38.1904 10.4991 37.2087 9.64946 36.6423L9.23409 36.359L11.5941 26.9378C13.7654 18.1962 13.973 17.4977 14.3506 17.4977C14.5583 17.4788 15.1814 17.3277 15.6911 17.1578C16.2198 16.969 16.6918 16.8557 16.7673 16.9124C16.824 16.9879 18.6742 19.0081 20.8455 21.4436ZM43.8416 22.2366C46.7303 22.6331 50.091 23.9736 52.5077 25.7106C53.7915 26.6168 56.3781 29.2412 57.2466 30.525C60.6639 35.4906 61.6268 42.2119 59.7199 47.8005C58.7193 50.7458 57.3788 52.917 55.1509 55.2204C49.0903 61.5453 40.0278 63.0746 32.117 59.0909C30.1534 58.0902 28.6619 56.9574 26.906 55.126C25.2257 53.3702 24.5649 52.445 23.5642 50.4248C20.7511 44.8363 20.7511 38.4925 23.5642 32.904C24.6026 30.8271 25.2446 29.9209 26.906 28.2028C28.6619 26.3903 30.3233 25.1442 32.3058 24.1435C35.9119 22.331 39.8768 21.6891 43.8416 22.2366ZM73.3515 27.1644C73.8801 28.3349 74.3144 29.3545 74.3144 29.4111C74.3144 29.4678 73.9179 29.9209 73.4459 30.4306C72.955 30.9215 72.3131 31.9033 71.9732 32.583C71.4446 33.7158 71.3879 33.999 71.3879 35.6227C71.3879 37.3031 71.4257 37.5107 72.0487 38.738C72.4075 39.4743 72.7284 40.1162 72.7662 40.1917C72.8039 40.2673 72.5963 40.3805 72.2942 40.4561C71.1991 40.7204 69.8397 41.57 68.8202 42.6273L67.744 43.7412L65.7616 43.4203L63.7981 43.0993L63.6848 40.8337C63.4771 36.2646 62.1932 32.4131 59.6822 28.8069L58.6815 27.3909L60.1353 26.2203L61.5702 25.0686L66.9699 25.0498H72.3697L73.3515 27.1644ZM80.2428 31.318C81.8665 31.8089 83.3769 33.8857 83.3769 35.6227C83.3769 37.9639 81.1868 40.154 78.8456 40.154C77.6562 40.154 76.6933 39.7197 75.7304 38.738C73.8046 36.8311 73.8046 34.4144 75.7304 32.5075C77.052 31.167 78.468 30.8083 80.2428 31.318ZM7.53487 38.9079C9.47954 39.7197 9.95154 42.2497 8.44112 43.7601C6.32653 45.8936 2.85257 43.9867 3.40009 41.0036C3.73994 39.2288 5.81677 38.1716 7.53487 38.9079ZM84.774 43.4014C85.8124 43.7035 87.3795 45.2705 87.6816 46.3089C87.8138 46.7432 87.9081 47.5739 87.9081 48.1592V49.2165H78.8456H69.7831V48.1592C69.7831 47.5739 69.8775 46.7432 70.0097 46.3089C70.2929 45.3461 71.8788 43.7224 72.8039 43.4203C73.7668 43.1182 83.7545 43.0993 84.774 43.4014ZM16.0499 44.3643L18.6742 44.9684L18.9197 46.1957C19.5616 49.3298 21.072 52.6338 23.0922 55.3337C26.2263 59.5063 30.701 62.3949 36.1385 63.7543L36.9692 63.962L36.837 65.3214C36.6482 67.3227 36.686 67.2849 35.5154 67.436C34.0994 67.6059 32.0603 68.6632 31.0786 69.7205C30.6443 70.1925 30.0213 71.1365 29.7003 71.8351C29.1528 72.9868 29.0961 73.27 29.0961 74.8937C29.0961 76.574 29.1339 76.7817 29.7569 78.0089C30.1157 78.7452 30.4366 79.3872 30.4744 79.4627C30.5121 79.5382 30.3045 79.6515 30.0024 79.727C29.7192 79.8025 29.0584 80.0669 28.5675 80.3123L27.6612 80.7654L26.8683 80.0669C26.434 79.6704 24.2061 77.6313 21.9028 75.5167L17.7302 71.684L18.1078 70.6078C19.2406 67.2472 16.9372 63.5655 13.2934 62.9047L12.5948 62.7725L12.2361 61.1488C12.0284 60.2426 11.2354 56.7309 10.4802 53.3324L9.12081 47.1774L10.2536 46.1201C10.8767 45.5537 11.5375 44.7419 11.7263 44.3076C12.1417 43.4014 11.8207 43.4014 16.0499 44.3643ZM66.7623 48.9522C66.7623 52.3129 66.479 52.1241 71.4634 52.2374L75.4283 52.3318L71.5578 56.7686C69.4244 59.2042 67.6119 61.2244 67.5552 61.2621C67.4797 61.281 65.7805 59.6573 63.7792 57.656L60.1542 54.031L61.2492 51.8597C61.8534 50.6703 62.5331 48.9711 62.7785 48.0837C63.024 47.1963 63.2316 46.3845 63.2694 46.2712C63.3072 46.1201 63.8358 46.1579 65.0442 46.3656L66.7623 46.6488V48.9522ZM73.1438 71.3631C86.7565 84.9757 87.9081 86.1841 87.9081 86.7505C87.9081 87.619 87.0397 88.4875 86.1712 88.4875C85.6048 88.4875 84.3964 87.3358 70.7271 73.6665L55.9061 58.8454L57.0389 57.7126C57.662 57.0896 58.2095 56.5798 58.2661 56.5798C58.3228 56.5798 65.0064 63.2257 73.1438 71.3631ZM57.3599 64.6417L61.2492 68.5688L54.6222 76.1586C49.2225 82.3325 47.9386 83.6919 47.7876 83.4464C46.6925 81.7094 45.2576 80.5011 43.5584 79.8781C43.0864 79.6893 42.671 79.5382 42.6522 79.5193C42.6144 79.5005 42.9165 78.8774 43.313 78.1033C43.9738 76.8006 44.0115 76.6495 44.0115 74.9125C44.0115 73.27 43.9549 72.9868 43.4074 71.8351C42.6899 70.3246 41.576 69.0597 40.4054 68.4555C39.5747 68.0213 39.5558 67.9835 39.6502 67.2472C39.7068 66.8318 39.8012 66.0199 39.8768 65.4347L39.99 64.3774L42.0858 64.2641C45.6352 64.0753 48.6938 63.2445 51.5825 61.6775C52.5077 61.1677 53.3006 60.7523 53.3573 60.7523C53.4139 60.7335 55.2075 62.4893 57.3599 64.6417ZM13.5766 66.0955C15.5212 66.9073 15.9932 69.4373 14.4828 70.9477C13.2556 72.1749 11.5186 72.1749 10.2914 70.9477C7.95024 68.6254 10.5368 64.8116 13.5766 66.0955ZM37.951 70.589C39.5747 71.0799 41.0851 73.1567 41.0851 74.8937C41.0851 77.2348 38.895 79.4249 36.5538 79.4249C34.8168 79.4249 32.74 77.9145 32.2491 76.2908C31.7205 74.5161 32.0981 73.1 33.4386 71.7784C34.7602 70.4379 36.1762 70.0792 37.951 70.589ZM42.4822 82.6723C43.5207 82.9744 45.0877 84.5415 45.3898 85.5799C45.522 86.0141 45.6164 86.8449 45.6164 87.4302V88.4875H36.5538H27.4913V87.4302C27.4913 86.8449 27.5857 86.0141 27.7179 85.5799C28.0011 84.617 29.587 82.9933 30.5121 82.6912C31.475 82.3891 41.4627 82.3703 42.4822 82.6723Z" fill="white"/>
</svg>
