<svg width="72" height="83" viewBox="0 0 72 83" fill="none" xmlns="http://www.w3.org/2000/svg">
<path d="M3.25217 0.226784C1.87432 0.713081 0.853086 1.68568 0.415416 2.90143C0.237107 3.37152 0.204687 9.61237 0.204687 34.1219L0.188477 64.7588L0.577516 65.5693C1.0314 66.5743 1.98779 67.4496 3.04144 67.8549C3.93299 68.1953 3.54395 68.1953 27.4051 68.1142L40.1137 68.0818L40.0164 67.3524C39.9516 66.9471 39.7895 66.3798 39.6436 66.088C39.4977 65.8124 36.9852 63.154 34.0836 60.22C31.1334 57.2536 28.5884 54.5465 28.3614 54.1412C27.2754 52.2609 27.0971 49.4565 27.9562 47.6086C29.4475 44.3666 32.4302 42.6646 35.8343 43.1346C38.1199 43.4588 38.2658 43.5723 44.6525 49.9104L50.4395 55.665V27.8324V-0.000160217H27.1457C8.5042 0.0160522 3.72226 0.0484695 3.25217 0.226784ZM14.0318 3.14458C14.972 3.53362 15.1989 4.78179 14.4371 5.49503C13.9508 5.9327 13.4645 5.99754 9.99552 5.99754H6.8832L6.49416 6.419C6.10512 6.82425 6.10512 6.88909 6.05649 10.3742L6.00786 13.908L5.5864 14.3295C5.00285 14.913 4.1113 14.913 3.52774 14.3295L3.10628 13.8918V10.277C3.10628 7.05119 3.1387 6.56489 3.43048 5.78681C3.93299 4.4738 5.13252 3.45257 6.62384 3.09595C7.67749 2.8528 13.4158 2.88522 14.0318 3.14458ZM27.7455 7.63475C33.1272 8.49388 37.7146 12.4977 39.4329 17.8308C40.0813 19.8571 40.2596 23.0018 39.8381 25.1253C39.1573 28.4808 37.1959 31.6742 34.505 33.7977C27.5347 39.3253 17.4521 37.526 12.654 29.9073C11.9569 28.805 11.0816 26.568 10.7898 25.1253C10.3846 23.1153 10.5467 19.8733 11.1302 17.9929C12.8647 12.5302 17.3549 8.54251 22.85 7.61854C23.9847 7.44023 26.5459 7.44023 27.7455 7.63475ZM5.21358 53.5739C5.47294 53.7036 5.76472 53.9629 5.86197 54.125C5.95923 54.3195 6.02408 55.7784 6.02408 57.7074C6.02408 61.1277 6.12134 61.7113 6.78594 62.0193C6.94804 62.1003 8.6663 62.1976 10.5953 62.2462C13.8859 62.3273 14.1453 62.3435 14.4533 62.6677C14.6316 62.846 14.8261 63.2675 14.8909 63.5917C14.972 64.0942 14.9072 64.2401 14.4857 64.6777L13.9994 65.164L10.2873 65.1478C7.88822 65.1478 6.41311 65.0668 6.0727 64.9533C5.00285 64.5481 4.14372 63.77 3.60879 62.7325L3.10628 61.7113V58.0478C3.10628 54.1088 3.15491 53.817 3.98162 53.4928C4.48413 53.2821 4.69486 53.2983 5.21358 53.5739Z" fill="#293389"/>
<path d="M22.704 11.8168C21.1479 13.4054 19.8835 16.5664 19.5593 19.6463L19.4458 20.7485H21.6504H23.8549V15.8045C23.8549 13.0812 23.8063 10.8604 23.7414 10.8604C23.6766 10.8604 23.2065 11.2819 22.704 11.8168Z" fill="#293389"/>
<path d="M26.7728 15.8045V20.7485H28.9774H31.1819L31.0684 19.6463C30.7605 16.7771 29.5285 13.5675 28.1344 12.0113C26.6917 10.3903 26.7728 10.1472 26.7728 15.8045Z" fill="#293389"/>
<path d="M17.6145 13.2756C16.5609 14.1347 15.5396 15.4315 14.875 16.6959C14.2753 17.8306 13.6431 19.7272 13.6431 20.3594C13.6431 20.7646 13.6593 20.7646 15.0695 20.716L16.4798 20.6674L16.5284 19.9379C16.6257 18.2359 17.4038 15.1397 18.1332 13.4863C18.3278 13.0324 18.4736 12.6434 18.4412 12.6434C18.4088 12.6434 18.036 12.9352 17.6145 13.2756Z" fill="#293389"/>
<path d="M32.495 13.4863C33.2244 15.1397 34.0025 18.2359 34.0998 19.9379L34.1484 20.6674L35.5749 20.716C36.9689 20.7646 36.9852 20.7646 36.9852 20.3594C36.9852 19.3543 35.9801 16.858 35.0075 15.4315C34.4726 14.6534 32.9002 13.0487 32.4139 12.7893C32.1546 12.6434 32.1546 12.7083 32.495 13.4863Z" fill="#293389"/>
<path d="M13.6431 24.0555C13.6431 24.6067 14.2428 26.5032 14.7291 27.4758C15.3613 28.7402 16.4798 30.2153 17.4038 31.0258C17.8739 31.4311 18.3115 31.7715 18.3764 31.7715C18.4412 31.7715 18.2791 31.269 18.0198 30.653C17.3714 29.1617 16.7392 26.6329 16.5933 25.0443L16.4798 23.7475L15.0695 23.6989C13.6593 23.6503 13.6431 23.6503 13.6431 24.0555Z" fill="#293389"/>
<path d="M19.4785 24.0556C19.4785 24.7689 19.9648 27.3138 20.3214 28.3675C20.8726 30.0695 21.6669 31.5122 22.6557 32.5659C23.1582 33.117 23.6283 33.5547 23.7093 33.5547C23.7904 33.5547 23.8552 31.3988 23.8552 28.6106V23.6666H21.6669H19.4785V24.0556Z" fill="#293389"/>
<path d="M26.7725 28.6106C26.7725 31.3988 26.8373 33.5547 26.9184 33.5547C26.9994 33.5547 27.4695 33.117 27.972 32.5659C28.9608 31.5122 29.7551 30.0695 30.3062 28.3675C30.6629 27.3138 31.1492 24.7689 31.1492 24.0556V23.6666H28.9608H26.7725V28.6106Z" fill="#293389"/>
<path d="M34.1644 23.861C34.1158 23.9745 34.0509 24.5905 34.0023 25.2226C33.8888 26.6653 33.2404 29.1779 32.6082 30.653C32.3489 31.269 32.1868 31.7715 32.2516 31.7715C32.3164 31.7715 32.7541 31.4311 33.2242 31.0258C34.1482 30.2153 35.2667 28.7402 35.8989 27.4758C36.3689 26.5194 36.9849 24.6067 36.9849 24.0555C36.9849 23.6827 36.9525 23.6665 35.6071 23.6665C34.6345 23.6665 34.1968 23.7313 34.1644 23.861Z" fill="#293389"/>
<path d="M53.5198 43.0375V58.745L55.7081 60.9495C57.7344 62.992 57.8965 63.2027 57.8965 63.7701C57.8965 64.6292 57.3291 65.1641 56.4052 65.1641H55.7244L48.3002 57.7562L40.876 50.332L37.7637 53.4443L34.6514 56.5566L38.1365 60.0904C42.7564 64.7751 42.9185 65.0669 43.1454 69.4922C43.3075 72.491 43.5507 73.6095 44.5395 75.6034C45.7876 78.1321 47.9111 80.2556 50.4885 81.52C53.3253 82.9303 53.7954 82.9951 63.2134 82.9951H71.1887V65.4883C71.1887 53.5578 71.1401 47.7222 71.0104 47.1386C70.9131 46.6685 70.5079 45.5824 70.1026 44.7395L69.3732 43.1996L61.4465 35.2567L53.5198 27.3138V43.0375Z" fill="#293389"/>
<path d="M33.014 46.5877C31.393 47.3495 30.5015 48.7598 30.5015 50.5753C30.5015 51.8559 30.8581 52.6988 31.8145 53.7363L32.5115 54.4819L35.64 51.3534L38.7686 48.2411L38.1526 47.6089C36.8234 46.2148 34.6999 45.7934 33.014 46.5877Z" fill="#293389"/>
</svg>
