<svg width="53" height="51" viewBox="0 0 53 51" fill="none" xmlns="http://www.w3.org/2000/svg">
<path d="M20.1994 0.344772C7.67174 2.57658 -1.06601 14.0936 0.281502 26.6001C1.18686 34.9168 6.26107 42.2018 13.6724 45.8232C16.0516 46.9812 16.8095 47.1496 17.1043 46.6022C17.4412 45.9916 17.1464 45.739 15.3989 44.9599C13.2513 44.0335 10.9984 42.6229 9.4614 41.2122L8.19811 40.0752L9.04031 39.6541C9.71406 39.3172 11.4406 38.7067 13.7145 38.0118C13.8408 37.9697 14.1987 38.5593 14.5146 39.3383C15.2094 41.1069 16.7464 43.6966 17.6938 44.7283C18.3044 45.381 18.4729 45.4653 18.8308 45.2758C19.4624 44.9389 19.3572 44.4546 18.3044 43.065C17.4412 41.907 15.9042 39.0435 15.5884 37.9908C15.462 37.5697 15.5673 37.5276 17.2938 37.2539C19.0835 36.9802 19.1466 36.938 19.2098 36.3696C19.2519 35.9906 19.1677 35.759 18.9361 35.6748C18.6834 35.5695 17.2517 35.7169 15.1041 36.0959C14.5988 36.1801 13.3565 29.2741 13.3565 26.4317V24.8736L16.2621 24.8105C19.1256 24.7473 19.1466 24.7473 19.2098 24.242C19.2519 23.9683 19.1677 23.6525 18.9992 23.5682C18.8519 23.463 17.5254 23.3787 16.0516 23.3787H13.3565V21.7365C13.3565 19.8626 13.7776 16.8307 14.4303 14.0936L14.8725 12.1776L15.9673 12.346C16.5569 12.4513 17.5254 12.5355 18.0939 12.5355C19.0835 12.5355 19.1466 12.4934 19.2098 11.967C19.294 11.3354 19.2519 11.3143 16.999 10.9564C16.1568 10.809 15.462 10.6406 15.462 10.5564C15.462 10.4932 15.9673 9.37729 16.599 8.09295C17.9676 5.33477 19.8835 3.10295 21.61 2.2397C23.3997 1.33435 23.4629 1.37646 23.4629 3.60827C23.4629 5.65059 23.6734 6.32434 24.3051 6.32434C24.9367 6.32434 25.1472 5.65059 25.1472 3.60827C25.1472 1.92388 25.1894 1.69228 25.5262 1.69228C26.7053 1.71334 29.1687 3.58722 30.4531 5.41899C31.1268 6.42962 31.969 6.66122 32.2006 5.90325C32.348 5.41899 31.8216 4.55574 30.5373 3.20823C29.5266 2.15549 29.7582 2.09232 31.7374 2.82924C33.5271 3.50299 35.0851 4.30308 36.7485 5.39793C38.2433 6.38751 38.6434 6.49278 39.0224 6.02958C39.4224 5.56637 39.0855 5.12422 37.5906 4.13464C32.348 0.681652 26.0526 -0.70797 20.1994 0.344772ZM17.7991 3.50299C16.8516 4.55574 16.1779 5.58743 15.2094 7.56658C14.4935 9.01936 13.8829 10.2405 13.8829 10.2616C13.8198 10.3669 11.5879 9.651 9.92461 9.01936C8.9982 8.66143 8.32444 8.28244 8.36655 8.15611C8.51394 7.62974 12.0301 5.01894 13.7566 4.13464C15.3357 3.33456 18.3676 2.13443 18.894 2.11338C18.9992 2.11338 18.4939 2.74502 17.7991 3.50299ZM9.37718 10.409C10.3878 10.809 11.6511 11.2512 12.1985 11.3986C12.7249 11.5249 13.2302 11.7565 13.2723 11.9039C13.3355 12.0513 13.1881 12.9145 12.9565 13.8199C12.4091 15.9675 11.8827 19.6099 11.8827 21.189C11.8827 21.8839 11.8195 22.6418 11.7564 22.8945L11.6301 23.3787H6.619H1.60796L1.71323 22.3681C2.008 19.1257 3.08179 15.6727 4.61879 12.9777C5.7347 11.0196 6.99799 9.4194 7.33487 9.56678C7.4612 9.60889 8.38761 9.98788 9.37718 10.409ZM11.7564 25.8422C11.8195 26.4106 11.9248 27.695 12.009 28.7267C12.0722 29.7584 12.367 31.6954 12.6617 33.0429C12.9565 34.3904 13.2302 35.7379 13.2934 36.0327C13.3776 36.538 13.3144 36.6012 12.0301 36.938C11.2932 37.1486 9.92461 37.6329 9.01925 38.0329C8.1139 38.4329 7.25065 38.7488 7.12432 38.7488C6.74533 38.7488 4.76618 35.759 3.7766 33.6324C3.27129 32.5797 2.6607 30.9374 2.42909 30.011C1.98694 28.3056 1.56585 25.1474 1.75534 24.9579C1.79745 24.8947 4.05031 24.8526 6.74533 24.8526H11.6301L11.7564 25.8422Z" fill="#293389"/>
<path d="M21.1482 8.61974C21.0008 8.89345 20.9377 15.4836 20.9377 28.6429C20.9377 49.9082 20.8956 49.1292 22.0957 50.0767L22.6852 50.5399H36.8762C52.4567 50.5399 51.9514 50.582 52.6252 49.2766C53.0252 48.4976 53.0673 44.6445 52.6884 44.2655C52.541 44.1182 51.804 44.0129 50.8987 44.0129H49.3617L49.3196 26.1584L49.2564 8.32497L35.3181 8.2618C21.6957 8.2197 21.3798 8.2197 21.1482 8.61974ZM47.8879 26.8532V44.0129H36.4551C27.8437 44.0129 24.9592 44.0761 24.7697 44.2655C24.6012 44.434 24.517 45.213 24.517 46.3921C24.517 48.4765 24.3065 49.066 23.5695 49.066C22.3694 49.066 22.4115 49.8661 22.4115 29.0429C22.4115 18.5576 22.4747 9.90408 22.5589 9.84092C22.6221 9.75669 28.37 9.69353 35.2971 9.69353H47.8879V26.8532ZM51.4672 46.9606C51.4672 47.9923 51.383 48.4976 51.1303 48.7292C50.8355 49.0239 49.3827 49.066 38.35 49.066H25.8856L25.9487 47.2764L26.0119 45.4867H38.7501L51.4672 45.5078V46.9606Z" fill="#293389"/>
<path d="M35.3182 14.4517C34.4549 14.8728 34.0549 15.7992 34.3918 16.5993C34.6866 17.3152 35.0445 17.5468 36.5815 17.9889C38.2869 18.4732 38.4764 19.2101 37.0026 19.5049C36.4762 19.6101 36.2236 19.5259 35.8235 19.1259C35.5498 18.8522 35.2761 18.4942 35.2129 18.3258C35.1498 18.1363 34.9603 18.0942 34.5392 18.1995C34.0339 18.3258 33.9707 18.41 34.097 18.9153C34.5602 20.8313 37.5921 21.4419 38.8133 19.8628C39.845 18.5785 39.1291 17.2941 37.0447 16.7467C35.8446 16.4098 35.6551 16.3045 35.7182 15.9256C35.7603 15.5676 35.9288 15.4834 36.6236 15.4834C37.2973 15.4834 37.5079 15.5887 37.6763 15.9466C37.95 16.5993 39.0449 16.6414 39.0449 15.9887C39.0449 15.2939 38.6449 14.7254 37.8869 14.4096C36.9605 14.0306 36.1604 14.0517 35.3182 14.4517Z" fill="#293389"/>
<path d="M24.9374 14.5149C24.9374 14.6202 25.4427 16.0308 26.0743 17.631C27.1481 20.4102 27.2324 20.5366 27.8219 20.5997C28.4325 20.6629 28.4535 20.6419 29.5273 17.8626C30.1169 16.3256 30.6643 14.8939 30.7485 14.6833C30.8748 14.3465 30.7906 14.3043 30.2011 14.3675C29.5273 14.4307 29.4642 14.4938 28.7483 16.473C28.3272 17.61 27.9272 18.5364 27.864 18.5364C27.7798 18.5364 27.4008 17.61 27.0008 16.473C26.3059 14.5149 26.2428 14.4307 25.6111 14.3675C25.2321 14.3254 24.9374 14.3886 24.9374 14.5149Z" fill="#293389"/>
<path d="M31.6758 17.4844V20.6426H32.3074H32.9391V17.4844V14.3261H32.3074H31.6758V17.4844Z" fill="#293389"/>
<path d="M41.8023 14.7888C41.697 15.0625 41.1707 16.41 40.6443 17.7997C40.1179 19.1893 39.6758 20.3894 39.6758 20.4736C39.6758 20.5789 39.9705 20.6421 40.3074 20.6421C40.8549 20.6421 40.9812 20.5157 41.2759 19.7999C41.6128 18.9787 41.6339 18.9577 42.6656 18.9577C43.6973 18.9577 43.7183 18.9787 44.0341 19.7999C44.3289 20.5578 44.4552 20.6421 45.0869 20.6421C45.9291 20.6421 45.9922 20.9368 44.4552 17.168C43.3604 14.5151 43.2972 14.4309 42.6656 14.3677C42.1181 14.3046 41.9497 14.3888 41.8023 14.7888ZM43.0235 17.0627C43.213 17.6523 43.1919 17.6944 42.7077 17.6944C42.1602 17.6944 42.1392 17.6312 42.3287 16.8943C42.5182 16.2627 42.7498 16.3048 43.0235 17.0627Z" fill="#293389"/>
<path d="M26.1795 26.2427C25.99 26.4743 25.969 26.6638 26.1374 26.9165C26.3269 27.2323 27.1901 27.2744 35.4857 27.2744H44.6235V26.6428V26.0111L35.5489 25.948C27.4428 25.9059 26.4322 25.948 26.1795 26.2427Z" fill="#293389"/>
<path d="M26.1379 30.0534C25.8431 30.3271 25.9905 30.9588 26.3905 31.1693C26.8959 31.422 44.0766 31.4641 44.4766 31.1904C44.6451 31.1061 44.7293 30.7903 44.6872 30.5166L44.624 30.0113L35.4441 29.9481C30.412 29.9271 26.2011 29.9692 26.1379 30.0534Z" fill="#293389"/>
<path d="M26.2011 34.0121C26.0748 34.1805 25.9906 34.4753 26.0327 34.6858C26.0958 35.0227 26.4538 35.0648 30.1805 35.128C33.0018 35.1701 34.3493 35.1069 34.5388 34.9385C34.9178 34.6227 34.9178 34.4332 34.4967 34.0331C34.0335 33.5489 26.6012 33.5278 26.2011 34.0121Z" fill="#293389"/>
<path d="M43.9914 35.591L43.3387 36.2227L42.5176 35.7805C41.8649 35.4647 41.4017 35.3805 40.4753 35.4226C37.6329 35.6121 35.9696 38.6229 37.3171 41.1916C38.7699 43.9919 43.065 43.8445 44.3283 40.96C44.7915 39.9072 44.6652 39.3809 43.9704 39.3809C43.6125 39.3809 43.3598 39.5914 43.044 40.202C42.5176 41.2758 41.886 41.6969 40.8753 41.6969C38.454 41.6969 37.4013 39.0229 39.212 37.4228C39.7594 36.9175 41.149 36.728 41.7807 37.0648L42.2439 37.3175L41.5701 38.0123C40.9806 38.6229 40.8122 38.6861 40.3911 38.4966C39.2331 37.9492 38.7699 39.2124 39.8647 39.9915C40.2016 40.2441 40.6648 40.4336 40.8753 40.4336C41.3385 40.4336 45.5706 36.2227 45.5706 35.7594C45.5706 35.4015 45.1705 34.9594 44.8336 34.9594C44.7073 34.9594 44.3283 35.2541 43.9914 35.591Z" fill="#293389"/>
</svg>
