<svg width="47" height="56" viewBox="0 0 47 56" fill="none" xmlns="http://www.w3.org/2000/svg">
<path d="M0.278404 0.278397C-0.0928014 0.649605 -0.0928014 51.7886 0.278404 52.1598C0.474925 52.3564 3.00786 52.4219 10.3228 52.4219H20.1052V51.5484V50.675H10.9342H1.76323V26.2191V1.76322H19.2317H36.7002V5.69363V9.62405H37.5737H38.4471V5.08224C38.4471 1.85056 38.3816 0.474918 38.1851 0.278397C37.8138 -0.0928078 0.64961 -0.0928078 0.278404 0.278397Z" fill="#293389"/>
<path d="M16.6768 3.81604C10.934 5.21352 7.17827 10.7816 8.05169 16.5462C8.90328 22.0706 13.7945 26.2412 19.4281 26.2194C20.7164 26.2194 21.0221 26.001 20.9347 25.215C20.8692 24.6254 20.7819 24.5817 19.7338 24.4725C19.0787 24.407 18.4236 24.1887 18.1616 23.9485C17.7685 23.5991 16.6113 21.4592 16.6113 21.1099C16.6113 21.0444 17.7904 20.9788 19.2315 20.9788H21.8518V20.1054V19.232H19.035C16.8951 19.232 16.1964 19.1665 16.109 18.9481C16.0435 18.7734 15.9344 17.9874 15.847 17.2013L15.6942 15.7383H20.105H24.5376L24.4066 13.4674C24.3192 12.2228 24.1882 11.0436 24.1227 10.8253C23.9917 10.4977 24.1882 10.4759 26.2408 10.5196C28.4462 10.5851 29.4943 10.4322 29.4943 10.061C29.4943 9.66799 27.6383 7.17873 26.7648 6.39264C24.0572 4.01256 20.0831 2.98629 16.6768 3.81604ZM20.1705 5.6939C20.629 6.06511 21.8518 8.18317 21.8518 8.61988C21.8518 8.68538 20.6727 8.75089 19.2315 8.75089C17.7904 8.75089 16.6113 8.68538 16.6113 8.61988C16.6113 8.55437 16.8733 7.96481 17.179 7.33158C17.7467 6.08695 18.5765 5.25719 19.2315 5.25719C19.4499 5.25719 19.8648 5.45371 20.1705 5.6939ZM15.4103 7.04771C15.1046 7.68095 14.8644 8.33602 14.8644 8.46703C14.8644 8.66355 14.4059 8.75089 13.2922 8.75089L11.6982 8.72906L12.6808 7.85563C13.5543 7.06955 15.3666 5.95593 15.7815 5.91226C15.8688 5.91226 15.6942 6.43632 15.4103 7.04771ZM23.7733 6.43632C24.3411 6.72018 25.2363 7.35341 25.7822 7.85563L26.7648 8.72906L25.1927 8.75089C24.0572 8.75089 23.5987 8.66355 23.5987 8.46703C23.5987 8.33602 23.3585 7.68095 23.0528 7.04771C22.7689 6.43632 22.5724 5.91226 22.6379 5.91226C22.6816 5.91226 23.2056 6.15245 23.7733 6.43632ZM14.3404 10.8689C14.2967 11.0873 14.1657 11.8734 14.1002 12.6158L13.9473 13.9914H11.7856C10.6065 13.9914 9.62386 13.9259 9.62386 13.8168C9.62386 13.4456 10.2353 11.4148 10.4754 10.9781C10.7156 10.5414 10.8903 10.4977 12.5935 10.4977C14.2748 10.4977 14.4495 10.5414 14.3404 10.8689ZM22.354 10.7816C22.4195 10.9563 22.5287 11.7424 22.6161 12.5285L22.7689 13.9914H19.2315H15.6942L15.847 12.5285C15.9344 11.7424 16.0435 10.9563 16.109 10.7816C16.2619 10.3667 22.2012 10.3667 22.354 10.7816ZM14.1002 17.0921C14.1657 17.8564 14.2967 18.6424 14.3404 18.839C14.4495 19.1883 14.2748 19.232 12.5935 19.232C10.8903 19.232 10.7156 19.1883 10.4754 18.7516C10.2353 18.3149 9.62386 16.2842 9.62386 15.8911C9.62386 15.8038 10.6065 15.7383 11.7856 15.7383H13.9473L14.1002 17.0921ZM14.8644 21.2409C14.8644 21.3937 15.1046 22.0488 15.4103 22.6602C15.6942 23.2934 15.8907 23.8175 15.8252 23.8175C15.4321 23.8175 13.5106 22.6165 12.6808 21.8741L11.6982 21.0007L13.2922 20.9788C14.4059 20.9788 14.8644 21.0662 14.8644 21.2409Z" fill="#293389"/>
<path d="M31.4382 10.8908C29.5822 11.393 27.748 12.5067 26.3942 13.9696C24.3634 16.175 23.5992 18.4678 23.5992 22.3327C23.5992 24.2979 23.5337 24.822 23.1407 25.5644C22.2891 27.202 23.0315 29.4511 24.6691 30.1717C25.1932 30.4119 25.3679 30.6739 25.5862 31.5692C25.7173 32.1587 26.0885 33.1413 26.3942 33.7527C27.0056 34.9974 28.9053 36.9189 29.9097 37.3338C30.3246 37.5085 30.5866 37.7923 30.5866 38.0325C30.5866 38.4255 30.3901 38.4474 27.748 38.4474C24.5818 38.4474 23.6647 38.6876 23.0315 39.6483C22.5074 40.4563 20.8261 55.1298 21.2191 55.6102C21.5903 56.0687 46.5703 56.0687 46.9415 55.6102C47.3345 55.1298 45.6532 40.4563 45.1291 39.6483C44.4959 38.6876 43.5788 38.4474 40.4126 38.4474C37.7705 38.4474 37.574 38.4255 37.574 38.0325C37.574 37.7923 37.836 37.5085 38.2509 37.3338C39.8886 36.6569 42.094 33.8401 42.487 31.8967C42.749 30.5866 42.7927 30.4774 43.4696 30.1935C45.1291 29.4511 45.8715 27.202 45.02 25.5644C44.6269 24.822 44.5614 24.2979 44.5614 22.3327C44.5614 18.2494 43.7098 15.9348 41.3734 13.6203C38.6658 10.9127 35.1284 9.93005 31.4382 10.8908ZM37.2028 12.8124C39.3427 13.6421 41.4171 15.7165 42.2468 17.8564C42.749 19.1884 43.0329 23.4245 42.5744 22.9878C42.356 22.7912 41.024 22.7257 37.4212 22.7257C33.4907 22.7257 32.399 22.6602 31.8967 22.3982C31.1543 22.027 30.7831 21.4156 30.6084 20.3456C30.3464 18.8827 29.0799 18.8827 28.8179 20.3456C28.5777 21.8086 27.6388 22.7257 26.3723 22.7257C26.1103 22.7257 25.7609 22.8349 25.6081 22.9878C25.4116 23.1843 25.346 22.8567 25.346 21.4593C25.346 17.3105 27.617 13.9696 31.329 12.7032C32.9448 12.1354 35.5433 12.201 37.2028 12.8124ZM30.1717 23.3153C30.3464 23.5118 30.8705 23.8393 31.3508 24.0577C32.0933 24.4071 32.8357 24.4726 36.6569 24.4726H41.1114L41.024 28.01C40.9585 31.2635 40.9149 31.6565 40.4345 32.6609C39.7357 34.0366 38.4038 35.3686 37.0281 36.0673C35.4559 36.8315 32.7047 36.8315 31.1325 36.0673C29.7568 35.3686 28.4249 34.0366 27.7261 32.6609C27.2457 31.6565 27.2021 31.2635 27.1366 27.9444L27.0492 24.3197L27.7043 24.1887C28.0537 24.1232 28.6432 23.8175 28.9708 23.5118C29.735 22.8567 29.8005 22.8349 30.1717 23.3153ZM25.346 27.1365L25.3242 28.7305L24.9093 28.2065C24.3853 27.5951 24.3416 26.7217 24.822 26.0447C24.9967 25.7827 25.1932 25.5644 25.2587 25.5644C25.3024 25.5644 25.346 26.2849 25.346 27.1365ZM43.688 27.0929C43.688 27.4204 43.4915 27.9226 43.2513 28.2065L42.8364 28.7305V27.0929V25.4552L43.2513 25.9792C43.4915 26.2631 43.688 26.7653 43.688 27.0929ZM35.8272 38.6002C35.8272 38.7531 35.4341 39.1461 34.9537 39.4518L34.0803 40.0414L33.2069 39.4518C31.8749 38.5784 32.0496 38.3382 34.0803 38.3382C35.3249 38.3382 35.8272 38.4255 35.8272 38.6002ZM32.5518 41.0677C33.2505 41.548 33.9493 41.9411 34.0803 41.9411C34.2113 41.9411 34.9101 41.548 35.6088 41.0677L36.8971 40.1942H40.0633C43.3823 40.1942 43.8845 40.3252 43.9282 41.2423C43.9282 41.4389 44.2557 44.4303 44.6487 47.9022L45.3475 54.169H43.6443H41.9411V50.6753V47.1816H41.0677H40.1943V50.6753V54.169H34.0803H27.9663V50.6753V47.1816H27.0929H26.2195V50.6753V54.169H24.5163H22.8131L23.5119 47.8804C23.9049 44.4303 24.2324 41.4389 24.2324 41.2423C24.2761 40.3252 24.7783 40.1942 28.0973 40.1942H31.2635L32.5518 41.0677Z" fill="#293389"/>
<path d="M29.9315 30.0404C29.342 30.7391 30.1935 33.1192 31.329 33.949C32.8575 35.0844 34.3423 35.2154 36.0018 34.3857C37.2683 33.7525 38.1417 32.5515 38.3819 31.154C38.6003 29.7565 38.4474 29.7129 34.0803 29.7129C30.8923 29.7129 30.1499 29.7784 29.9315 30.0404ZM36.4822 31.6126C36.4385 32.2676 35.0411 33.2066 34.0803 33.2066C33.1195 33.2066 31.722 32.2676 31.6784 31.6126C31.6784 31.5252 32.7702 31.4597 34.0803 31.4597C35.4123 31.4597 36.4822 31.5252 36.4822 31.6126Z" fill="#293389"/>
<path d="M6.89363 31.6783C6.65344 31.7657 6.21673 32.1151 5.91103 32.4426L5.36514 33.0322L5.29963 39.0588C5.25596 45.6968 5.25596 45.8278 6.54426 46.6794C7.26484 47.1816 7.39585 47.1816 13.6845 47.1816H20.1042V46.3082V45.4348H13.8155C9.20821 45.4348 7.46136 45.3693 7.26484 45.1728C6.89363 44.8016 6.89363 33.8401 7.26484 33.4689C7.46136 33.2723 9.71043 33.2068 15.9991 33.2068H24.4713V32.3334V31.46L15.9117 31.4818C11.1953 31.4818 7.13383 31.5692 6.89363 31.6783Z" fill="#293389"/>
<path d="M8.75098 35.827V36.7004H9.6244H10.4978V35.827V34.9536H9.6244H8.75098V35.827Z" fill="#293389"/>
<path d="M12.2441 35.827V36.7004H18.3581H24.4721V35.827V34.9536H18.3581H12.2441V35.827Z" fill="#293389"/>
<path d="M8.75098 39.3207V40.1941H14.865H20.9789V39.3207V38.4472H14.865H8.75098V39.3207Z" fill="#293389"/>
<path d="M8.75098 42.8146V43.688H14.865H20.9789V42.8146V41.9411H14.865H8.75098V42.8146Z" fill="#293389"/>
</svg>
