<svg width="60" height="57" viewBox="0 0 60 57" fill="none" xmlns="http://www.w3.org/2000/svg">
<path d="M58.3979 10.2398L30.195 0.879325C29.9537 0.79934 29.6929 0.79934 29.4516 0.879325L1.24876 10.2398C1.23198 10.2453 1.21699 10.2538 1.20056 10.2601C1.17546 10.2698 1.15115 10.2801 1.12682 10.2913C1.08493 10.3109 1.04422 10.3329 1.0049 10.3572C0.98518 10.3694 0.965024 10.3806 0.946019 10.3939C0.896461 10.4286 0.849677 10.467 0.806086 10.5089C0.800131 10.5146 0.793248 10.5192 0.787437 10.5251C0.73923 10.5738 0.695428 10.6266 0.65654 10.683C0.644563 10.7001 0.63488 10.7186 0.623837 10.7364C0.598247 10.7771 0.575204 10.8194 0.554837 10.8629C0.544222 10.8859 0.534827 10.9091 0.525717 10.9327C0.508839 10.9771 0.494711 11.0224 0.483413 11.0685C0.477746 11.091 0.471291 11.113 0.466988 11.1361C0.453163 11.2065 0.445907 11.2781 0.445312 11.3498V34.751C0.445312 35.0613 0.56912 35.3589 0.789497 35.5783C1.00988 35.7978 1.30877 35.921 1.62043 35.921C1.93209 35.921 2.23099 35.7978 2.45137 35.5783C2.67174 35.3589 2.79555 35.0613 2.79555 34.751V12.9733L15.6852 17.2513C14.0957 19.3764 13.0102 21.8324 12.5103 24.4349C12.0103 27.0375 12.1089 29.7189 12.7985 32.2781C13.4882 34.8373 14.751 37.2077 16.4923 39.2115C18.2336 41.2152 20.408 42.8003 22.8525 43.8476C16.3958 45.5579 10.8065 49.5936 7.1674 55.1727C7.08285 55.3014 7.02462 55.4454 6.99603 55.5966C6.96744 55.7477 6.96906 55.903 7.00078 56.0535C7.03251 56.204 7.09373 56.3468 7.18094 56.4737C7.26815 56.6007 7.37963 56.7092 7.50902 56.7932C7.6384 56.8772 7.78315 56.935 7.93498 56.9632C8.08681 56.9915 8.24274 56.9896 8.39386 56.9578C8.54498 56.926 8.68831 56.8649 8.81567 56.7778C8.94303 56.6908 9.0519 56.5797 9.13607 56.4507C11.378 53.0215 14.4443 50.2039 18.0568 48.2535C21.6694 46.303 25.7138 45.2815 29.8232 45.2815C33.9327 45.2815 37.9771 46.303 41.5896 48.2535C45.2022 50.2039 48.2685 53.0215 50.5104 56.4507C50.5946 56.5797 50.7035 56.6908 50.8308 56.7778C50.9582 56.8649 51.1015 56.926 51.2526 56.9578C51.4037 56.9896 51.5597 56.9915 51.7115 56.9632C51.8633 56.935 52.0081 56.8772 52.1375 56.7932C52.2669 56.7092 52.3783 56.6007 52.4655 56.4737C52.5528 56.3468 52.614 56.204 52.6457 56.0535C52.6774 55.903 52.679 55.7477 52.6505 55.5966C52.6219 55.4454 52.5636 55.3014 52.4791 55.1727C48.84 49.5936 43.2508 45.558 36.7941 43.8476C39.2386 42.8003 41.413 41.2152 43.1543 39.2115C44.8956 37.2077 46.1584 34.8373 46.8481 32.2781C47.5377 29.7189 47.6363 27.0375 47.1363 24.4349C46.6364 21.8324 45.5509 19.3764 43.9614 17.2513L58.3978 12.4599C58.6318 12.3822 58.8353 12.2332 58.9795 12.034C59.1237 11.8348 59.2013 11.5954 59.2013 11.3498C59.2013 11.1043 59.1237 10.8649 58.9795 10.6657C58.8353 10.4665 58.6318 10.3175 58.3979 10.2398ZM45.0999 27.7306C45.0999 30.1714 44.5101 32.5763 43.3802 34.7423C42.2503 36.9083 40.6135 38.7718 38.6081 40.1754C36.6026 41.5789 34.2873 42.4813 31.8579 42.8064C29.4284 43.1315 26.956 42.8696 24.6495 42.043C22.3431 41.2164 20.2703 39.8493 18.6062 38.0571C16.9421 36.2649 15.7356 34.1003 15.0885 31.7461C14.4415 29.3919 14.3729 26.9173 14.8886 24.5311C15.4044 22.145 16.4892 19.9175 18.0515 18.0367L29.4516 21.8204C29.6929 21.9003 29.9537 21.9003 30.195 21.8204L41.5951 18.0367C43.8636 20.7618 45.1034 24.1911 45.0999 27.7306ZM41.5764 15.576L41.5726 15.5773L29.8233 19.4768L5.33643 11.3498L29.8233 3.22287L54.3102 11.3498L41.5764 15.576Z" fill="#293389"/>
</svg>
