<svg width="93" height="87" viewBox="0 0 93 87" fill="none" xmlns="http://www.w3.org/2000/svg">
<path d="M56.094 0.317432C55.9095 0.501923 55.8431 0.634757 55.8431 0.811867C55.8431 0.95208 55.8431 2.5387 55.8431 4.34671C55.8357 8.0439 55.8136 7.89631 56.4039 8.10294C56.7581 8.22839 57.0238 8.13246 57.2747 7.79299C57.4223 7.58636 57.4297 7.49781 57.4518 4.25077C57.4666 1.96309 57.4518 0.826627 57.3928 0.634757C57.2969 0.302673 56.9648 0.0665255 56.5958 0.0665255C56.4113 0.0665255 56.2785 0.132942 56.094 0.317432Z" fill="white"/>
<path d="M32.8497 7.74904C32.6357 7.85973 32.4512 8.19919 32.4512 8.49438C32.4512 8.78218 32.4807 8.81908 33.9197 10.8042C36.4067 14.2283 36.51 14.3612 36.7314 14.4571C37.2479 14.6711 37.8383 14.28 37.8383 13.7265C37.8383 13.3871 37.9711 13.5863 35.6318 10.3762C34.4732 8.78956 33.7131 7.80807 33.595 7.75642C33.3662 7.6531 33.0637 7.6531 32.8497 7.74904Z" fill="white"/>
<path d="M79.6283 7.76349C79.4438 7.86681 79.3258 8.02178 76.9717 11.2762C75.2817 13.6008 75.2522 13.6598 75.54 14.1321C75.8057 14.5601 76.4551 14.6487 76.7798 14.2871C76.9126 14.1469 78.573 11.8739 79.1929 10.9958C79.3184 10.8187 79.7243 10.2578 80.1006 9.74861C80.477 9.2468 80.8017 8.7376 80.8238 8.61953C80.8829 8.3391 80.6762 7.91109 80.4106 7.77825C80.1597 7.64542 79.8497 7.63804 79.6283 7.76349Z" fill="white"/>
<path d="M54.7739 11.844C54.6116 11.8588 54.095 11.9105 53.6301 11.9547C47.8223 12.5082 42.1548 15.0542 38.1476 18.9137C35.2179 21.7327 32.9819 25.4521 31.8307 29.4223C30.0079 35.695 30.9894 42.9123 34.6718 50.2697C35.8083 52.5279 36.3839 53.4946 39.1439 57.7379C43.6307 64.6452 45.0107 67.3314 46.3759 71.8035L46.6489 72.7186L46.6932 75.5597L46.7301 78.4009L46.9589 78.8805C47.3721 79.7366 48.1396 80.3343 49.0473 80.5041C49.2613 80.541 49.741 80.5779 50.0952 80.5779H50.752V82.2973C50.752 83.8249 50.7668 84.0758 50.8996 84.4448C51.1948 85.3008 51.859 85.965 52.7371 86.2602C53.1873 86.4078 53.2906 86.4151 56.7885 86.393L60.3824 86.3709L60.8031 86.1642C61.423 85.8617 61.9248 85.3746 62.2052 84.799L62.4487 84.3119L62.4709 82.4449L62.493 80.5779H63.2088C63.6221 80.5779 64.1239 80.5262 64.3674 80.4672C65.2382 80.2384 65.9762 79.6259 66.3452 78.8289C66.5001 78.4894 66.5075 78.3566 66.5518 75.6335C66.5961 73.2499 66.6182 72.7259 66.7289 72.3865C66.8322 72.0618 66.8396 71.9806 66.7584 71.9511C66.6994 71.9363 66.5592 71.8256 66.4411 71.7075C66.2566 71.5231 66.2345 71.4566 66.2714 71.191C66.323 70.7925 66.5297 70.5932 66.9577 70.5416L67.2971 70.5047L67.6218 69.6265C67.799 69.1394 67.9465 68.7336 67.9465 68.7262C67.9465 68.7114 67.8358 68.6524 67.6956 68.586C67.3414 68.4162 67.2086 68.0989 67.2086 67.4126C67.2086 66.9108 67.1938 66.8518 67.0684 66.8518C66.9134 66.8518 66.7437 67.206 66.6551 67.7152C66.633 67.8849 66.5444 68.1137 66.4632 68.2096C66.1976 68.5491 65.4965 70.4678 65.5851 70.6154C65.622 70.6818 65.6515 70.6818 65.6884 70.6227C65.7622 70.512 66.1754 70.5194 66.1754 70.6301C66.1754 70.7851 66.05 70.9327 65.9614 70.881C65.9245 70.8515 65.8212 70.8958 65.7327 70.9843C65.622 71.095 65.5851 71.2279 65.5851 71.5378C65.5851 71.9216 65.5703 71.9437 65.408 71.9437C65.2973 71.9437 65.2161 71.892 65.1939 71.8109C65.1644 71.7075 65.157 71.7149 65.1497 71.8404C65.1423 71.988 65.0906 71.9954 63.873 72.0396C63.1719 72.0692 61.4451 72.0913 60.0356 72.0913H57.4675V63.5088V54.9337L58.7663 54.9484C60.8621 54.9706 60.8104 55.0222 60.8621 52.7788L60.899 51.111L61.2311 51.0151C61.5336 50.9265 61.5705 50.9265 61.6591 51.0446C61.7181 51.111 62.124 51.6719 62.5668 52.2918C63.0096 52.9116 63.445 53.4651 63.5409 53.5315C63.7771 53.6939 64.1977 53.6717 64.4855 53.4725C64.6257 53.3766 65.836 52.5058 67.1717 51.5317C68.5148 50.5575 69.7177 49.6867 69.8505 49.5908C70.1309 49.3916 70.308 49.0816 70.308 48.7864C70.308 48.565 70.1899 48.3732 69.0682 46.8604L68.3967 45.9453L68.596 45.6649C68.7066 45.5099 68.8469 45.377 68.9059 45.377C68.9723 45.377 69.6143 45.5763 70.3449 45.8198C71.9094 46.3438 72.1382 46.3659 72.4924 46.0117C72.7728 45.7313 72.8171 45.4435 72.6326 45.0819C72.4703 44.7719 72.699 44.8605 69.2158 43.7388C68.5295 43.5174 68.2565 43.51 68.0203 43.7019C67.9244 43.7757 67.0905 44.89 66.6699 45.5173C66.419 45.8862 66.5223 46.1519 67.4669 47.4507C67.9465 48.1075 68.3081 48.661 68.2712 48.6905C68.1237 48.8307 64.301 51.5907 64.2198 51.6202C64.1682 51.6423 63.9246 51.3693 63.6664 51.0077C62.1757 48.9488 62.1978 48.9635 61.3565 49.244C61.0687 49.3399 60.5374 49.5096 60.1832 49.613C59.2164 49.9081 59.2386 49.8565 59.2386 51.7309V53.2732H56.6631H54.0802L54.0581 51.7752C54.0286 49.7827 54.1393 49.9377 52.3534 49.3694C51.0472 48.9562 51.1062 48.934 50.0436 50.3804C49.5934 51.0003 49.1875 51.5464 49.1433 51.5907C49.0842 51.6497 48.73 51.4283 47.8961 50.8232C46.5087 49.8196 44.9664 48.6905 44.9295 48.661C44.9221 48.6462 45.0918 48.3879 45.3132 48.0928C45.5346 47.7976 45.9331 47.2441 46.2062 46.8604C46.8334 45.9674 46.8408 45.842 46.2947 45.1261C46.0807 44.8383 45.7708 44.4103 45.6158 44.1742C45.3427 43.7535 45.0623 43.5321 44.7967 43.5321C44.7229 43.5321 44.0439 43.7314 43.2986 43.9749C42.5459 44.2184 41.9112 44.4177 41.8891 44.4177C41.8596 44.4177 41.7858 44.2627 41.7267 44.0635C41.6677 43.8716 41.3061 42.7794 40.9371 41.6282C40.5608 40.477 40.2729 39.5324 40.2877 39.5176C40.2951 39.5103 40.9445 39.2962 41.7267 39.0453C42.8484 38.6763 43.1731 38.5435 43.2986 38.3885C43.4314 38.2114 43.4462 38.0934 43.4462 36.9126V35.6212L43.2469 35.4293C43.092 35.2817 42.6861 35.112 41.712 34.7947C40.9814 34.5585 40.3615 34.3445 40.3246 34.315C40.2951 34.2855 40.5534 33.3852 40.9002 32.3077C41.2544 31.2377 41.6013 30.1529 41.6825 29.8946C41.771 29.6437 41.8669 29.4371 41.9038 29.4371C41.9407 29.4371 42.5901 29.6363 43.3503 29.8872C45.1287 30.4702 45.0697 30.4776 45.8224 29.4002C46.1176 28.9721 46.4349 28.522 46.5309 28.3892C46.708 28.1382 46.7375 27.8209 46.612 27.5774C46.5678 27.4962 46.1693 26.9354 45.7265 26.3302C45.2837 25.7251 44.9221 25.2159 44.9221 25.2085C44.9221 25.1495 48.9883 22.2419 49.0695 22.2419C49.1137 22.2419 49.527 22.7585 49.9845 23.3858C50.4421 24.0057 50.8701 24.5665 50.9439 24.6182C51.1579 24.7731 51.5121 24.7289 52.3977 24.4484C53.7039 24.0278 53.7186 24.0278 53.881 23.8064C54.0286 23.6145 54.0359 23.4891 54.0581 22.0501L54.0802 20.5077L56.641 20.5225L59.2017 20.5446L59.2386 22.1534L59.2755 23.7695L59.4969 23.9392C59.6149 24.0352 59.8806 24.1533 60.0872 24.2049C60.2865 24.2492 60.7219 24.3894 61.0392 24.5001C61.696 24.7362 62.0797 24.7658 62.3159 24.6034C62.4044 24.5444 62.6332 24.2713 62.8251 23.9983C63.7402 22.7068 64.1387 22.1977 64.2272 22.2346C64.3231 22.2715 68.072 24.9724 68.2343 25.1274C68.3229 25.2085 68.2122 25.393 67.548 26.2933C67.1126 26.8837 66.7141 27.4519 66.6551 27.57C66.5001 27.8652 66.5149 28.1235 66.7141 28.3892C66.8027 28.5146 67.0757 28.8983 67.3119 29.2304C67.8875 30.0422 68.072 30.2341 68.3229 30.2857C68.4779 30.3226 69.0682 30.1603 70.4925 29.6953C72.3374 29.0976 72.4629 29.0459 72.5957 28.8246C72.8097 28.4777 72.7876 28.1604 72.5219 27.8652C72.3965 27.725 72.212 27.5922 72.0939 27.57C71.9611 27.5405 71.3854 27.6955 70.404 28.0054C69.5848 28.2637 68.8838 28.4777 68.8542 28.4777C68.8247 28.4777 68.7066 28.3449 68.596 28.1899L68.3967 27.9095L68.9354 27.1789C69.9243 25.8432 70.308 25.2381 70.308 25.0167C70.308 24.906 70.2342 24.7067 70.1457 24.5813C70.0497 24.4484 69.2158 23.7917 68.2786 23.1201C67.3488 22.4412 66.2566 21.6516 65.8581 21.3638C64.3674 20.279 64.2567 20.2125 63.9689 20.2125C63.8213 20.2125 63.6295 20.2642 63.5409 20.3232C63.4597 20.3823 62.9948 20.9726 62.5151 21.6294C62.0428 22.2936 61.6296 22.8544 61.6001 22.8913C61.5779 22.9209 61.4008 22.8913 61.2089 22.8249L60.8621 22.7068V21.1571C60.8621 19.91 60.84 19.5631 60.7514 19.3639C60.53 18.9137 60.6112 18.9211 56.5819 18.9211C53.0102 18.9211 52.8995 18.9285 52.7445 19.0687C52.3977 19.3786 52.3755 19.5262 52.3755 21.1719C52.3755 22.7142 52.3755 22.729 52.2132 22.788C51.6818 22.9799 51.7409 23.0242 50.8258 21.7549C50.3609 21.0981 49.8812 20.4856 49.7705 20.3896C49.5196 20.1756 49.099 20.1535 48.8333 20.338C48.73 20.4044 47.4017 21.3638 45.8741 22.4707C42.9518 24.596 42.8632 24.6772 42.9665 25.1495C42.996 25.275 43.424 25.9465 43.9332 26.6328L44.8483 27.8947L44.6491 28.1899C44.5457 28.3449 44.4277 28.4777 44.3834 28.4777C44.3391 28.4777 43.8373 28.3227 43.2691 28.1382C41.4537 27.5405 41.3209 27.511 41.0552 27.6217C40.9297 27.6733 40.7748 27.784 40.7083 27.8578C40.6345 27.939 40.2434 29.0459 39.8302 30.3226C39.4169 31.5993 38.9299 33.09 38.7527 33.6361C38.5756 34.1822 38.428 34.7578 38.428 34.9201C38.428 35.3998 38.642 35.5326 40.3394 36.0787L41.83 36.551L41.8079 36.9274L41.7858 37.2964L40.332 37.776C39.5276 38.0417 38.7896 38.3221 38.6863 38.4033C38.3395 38.669 38.3616 39.0084 38.7823 40.2925C38.9889 40.9198 39.4759 42.4252 39.8671 43.6428C40.6567 46.1003 40.7452 46.2626 41.2766 46.2626C41.4242 46.2626 42.1621 46.0634 42.9075 45.8198C43.6602 45.5763 44.317 45.377 44.3613 45.377C44.4424 45.377 44.6417 45.6058 44.7967 45.8641C44.8262 45.9158 44.7081 46.1445 44.531 46.3807C43.5274 47.7459 43.0551 48.4396 42.9886 48.6315C42.8853 48.9266 43.0255 49.2956 43.3207 49.517C43.4462 49.613 43.793 49.8639 44.0735 50.0631C44.3613 50.2697 45.5789 51.1627 46.7965 52.0409C48.7374 53.4504 49.0326 53.6422 49.2761 53.6422C49.4384 53.6422 49.6303 53.5832 49.741 53.4946C49.8369 53.4135 50.3166 52.801 50.7963 52.1294C51.7409 50.8158 51.6745 50.8675 52.191 51.0594L52.3755 51.1332V52.646C52.3755 54.9484 52.3534 54.9263 54.3311 54.9558C55.0617 54.9706 55.7037 54.9927 55.7554 55.0075C55.8292 55.037 55.844 56.7638 55.844 63.4719C55.844 68.1137 55.8144 71.9511 55.7849 72.0027C55.7333 72.0765 54.9141 72.0913 51.9328 72.0765L48.147 72.0544L47.8002 70.9105C46.5309 66.7411 44.7598 63.3169 40.6124 57C38.1476 53.2511 37.2252 51.6866 36.0666 49.3473C34.1405 45.4435 33.004 41.6725 32.6719 38.1081C32.5612 36.8905 32.5834 34.4921 32.7162 33.3483C33.3509 27.8652 36.1035 22.7437 40.3615 19.1351C46.2652 14.1243 54.9658 12.2278 63.0096 14.2055C67.2307 15.2387 70.7508 17.1205 73.8576 19.9985C74.2709 20.3823 74.6768 20.7217 74.7653 20.7513C75.1491 20.8988 75.6952 20.5668 75.7985 20.124C75.8796 19.7845 75.6804 19.4672 74.9498 18.7809C71.533 15.5486 66.9724 13.2609 62.0797 12.3163C60.3308 11.9769 59.1279 11.8662 57.0616 11.8367C55.9694 11.8219 54.9363 11.8293 54.7739 11.844ZM64.9209 75.8623C64.9209 77.9138 64.9135 78.0245 64.7659 78.2902C64.6774 78.4451 64.4707 78.6444 64.301 78.7403L63.9984 78.9174L56.9509 78.9396C53.0766 78.9543 49.7336 78.9396 49.5196 78.9174C49.099 78.8658 48.7521 78.6665 48.5086 78.3418C48.361 78.1426 48.3536 78.0319 48.3315 75.9213L48.3094 73.7148H56.6188H64.9209V75.8623ZM60.8473 82.2899C60.8252 83.9725 60.8178 84.0168 60.6481 84.2603C60.5522 84.3931 60.3382 84.5702 60.1684 84.644C59.888 84.7695 59.6223 84.7842 56.6114 84.7842H53.357L53.0397 84.6145C52.8183 84.4964 52.6633 84.3415 52.5453 84.1201C52.3829 83.8175 52.3755 83.729 52.3755 82.1866V80.5779H56.6262H60.8695L60.8473 82.2899Z" fill="white"/>
<path d="M86.9922 13.0175C85.5532 13.4234 84.5348 14.3975 84.0994 15.7849L83.9739 16.1907L82.3283 16.2276C80.9925 16.2645 80.6014 16.2941 80.3062 16.4048C79.0443 16.8623 78.0997 17.829 77.6643 19.1057C77.5094 19.578 77.502 19.6813 77.4651 24.8987L77.4282 30.212L77.2585 30.5515C76.9854 31.105 76.6164 31.4739 76.0777 31.7396L75.5907 31.9831L72.9635 32.02C70.6758 32.0496 70.3142 32.0717 70.1519 32.1824C69.7239 32.4628 69.6943 33.1196 70.0928 33.4517L70.3216 33.6436H72.9635C75.5833 33.6436 75.6202 33.6436 76.1958 33.4591C77.4872 33.0532 78.3802 32.1824 78.9262 30.8098C79.0369 30.5441 79.0517 29.8578 79.0886 25.157C79.1181 20.8547 79.1476 19.7551 79.2288 19.5485C79.4059 19.1057 79.8413 18.5448 80.1955 18.3013C80.8007 17.8881 81.0516 17.8438 82.5792 17.8659L83.9665 17.8881L84.1363 18.3751C84.5643 19.5927 85.5827 20.5669 86.8298 20.9506C87.3907 21.1277 88.5271 21.1498 89.0954 20.9949C90.1211 20.7218 91.2428 19.8068 91.693 18.8695C92.2907 17.6445 92.2834 16.2941 91.6709 15.1355C91.169 14.1761 90.4532 13.5415 89.4201 13.143C88.8076 12.9068 87.6121 12.8478 86.9922 13.0175ZM89.0142 14.7443C89.7374 15.0617 90.3056 15.7775 90.4532 16.5597C90.6672 17.6445 90.1064 18.7515 89.088 19.2533C88.7707 19.4083 88.6157 19.4378 88.0179 19.4378C87.4202 19.4378 87.2578 19.4083 86.9479 19.2607C86.2247 18.8991 85.6786 18.1537 85.5532 17.3493C85.4941 16.9804 85.6196 16.2276 85.7819 15.9029C85.9369 15.6004 86.5273 14.9805 86.8003 14.8403C87.4792 14.486 88.35 14.4492 89.0142 14.7443Z" fill="white"/>
<path d="M22.1935 25.1425C21.9647 25.3787 21.9499 25.4377 21.8245 26.9284C21.7802 27.4376 21.7138 28.1829 21.6769 28.5888C21.64 28.9947 21.5514 29.9983 21.485 30.8101L21.3596 32.3008L20.6142 32.5C20.201 32.6033 19.5073 32.8321 19.0645 32.9944C18.5405 33.1937 18.2306 33.2749 18.1642 33.2306C18.1125 33.1937 17.1975 32.1532 16.1274 30.9134C13.5224 27.8951 13.6552 28.0353 13.2567 28.0353C12.8878 28.0353 13.0058 27.9615 9.92115 30.2049C9.03559 30.847 8.25335 31.4595 8.18693 31.5628C7.92865 31.9613 7.97292 32.072 9.81783 35.1419C10.7772 36.7507 11.5668 38.0864 11.5668 38.1233C11.5668 38.1528 11.3749 38.4185 11.1388 38.7063C10.9026 38.9941 10.4746 39.5771 10.1794 40.0125C9.87687 40.4552 9.60382 40.78 9.55216 40.7652C9.50789 40.7504 8.00244 40.3962 6.21657 39.9903C4.17242 39.518 2.90312 39.2598 2.78505 39.2893C2.37179 39.3926 2.29061 39.5697 1.48623 42.0492C1.05821 43.3702 0.659715 44.6026 0.593298 44.7871C0.534261 44.9642 0.504743 45.2225 0.526882 45.3479C0.615437 45.7981 0.504743 45.7464 4.99893 47.6578L7.10213 48.5507V50.2111V51.8715L6.51176 52.1224C6.18705 52.2626 4.80706 52.8456 3.44921 53.4212C2.09136 54.0042 0.903243 54.5208 0.822067 54.5799C0.549021 54.757 0.460465 55.0817 0.56378 55.4802C0.844206 56.5428 2.29061 60.7935 2.40131 60.8968C2.75553 61.2215 2.77767 61.2215 6.32727 60.4024C8.17217 59.9744 9.685 59.6349 9.685 59.6423C9.69238 59.7234 10.7772 61.2658 11.1166 61.6864C11.3602 61.989 11.5668 62.2694 11.5668 62.2989C11.5668 62.3358 10.7993 63.6347 9.86949 65.1918C8.93228 66.7489 8.13528 68.1288 8.091 68.2469C7.92127 68.7266 8.07624 68.8816 10.6001 70.7043C12.7697 72.2836 12.932 72.3869 13.2346 72.3869C13.6331 72.3869 13.5962 72.4164 15.2271 70.542C17.8469 67.5237 18.1494 67.1842 18.2454 67.1621C18.2896 67.1474 18.511 67.2138 18.7324 67.3023C19.2711 67.5163 20.5183 67.9148 20.998 68.0255C21.3374 68.1141 21.3817 68.1436 21.3817 68.3133C21.3817 68.424 21.4481 69.2432 21.5293 70.1361C21.6105 71.029 21.7285 72.3721 21.7876 73.1248C21.9278 74.7926 22.0016 75.1469 22.2451 75.3387C22.4296 75.4789 22.5477 75.4863 25.4553 75.4863H28.4809L28.6875 75.2797C28.8277 75.1321 28.9089 74.9624 28.9384 74.741C28.9753 74.4384 29.3665 70.0328 29.4698 68.7266L29.5214 68.1215L30.0085 67.996C30.6653 67.8189 31.8903 67.413 32.3109 67.2359L32.6578 67.0883L33.2334 67.7599C35.1964 70.0328 36.9896 72.0769 37.1446 72.2172C37.2774 72.3352 37.425 72.3869 37.6464 72.3869C37.9859 72.3869 37.6981 72.5788 41.196 70.0475C42.7383 68.9258 42.945 68.6971 42.79 68.2469C42.6719 67.9001 39.0116 61.8266 38.7902 61.5905C38.6279 61.4355 38.5172 61.3912 38.2663 61.3912C37.6833 61.3912 37.3143 61.8931 37.5062 62.4318C37.5505 62.572 38.3327 63.9077 39.2256 65.3984C40.126 66.8964 40.8639 68.1584 40.8565 68.2026C40.8565 68.3207 37.8383 70.4756 37.7571 70.4239C37.7202 70.4018 36.7166 69.2653 35.5211 67.8927C34.3256 66.5201 33.2924 65.3762 33.226 65.3467C32.9677 65.2508 32.5987 65.3098 32.1117 65.5312C31.3811 65.8633 29.8683 66.3651 29.1008 66.5201C28.3776 66.6751 28.0603 66.8669 27.9938 67.2064C27.9569 67.3687 27.7577 69.5015 27.4699 72.8739C27.4478 73.1544 27.4109 73.4938 27.3887 73.6193L27.3518 73.8628H25.4405H23.5292L23.4923 73.6193C23.4701 73.4938 23.3668 72.4016 23.2635 71.2061C23.1602 70.0106 23.0421 68.638 22.9978 68.1584C22.9536 67.6713 22.8945 67.2064 22.865 67.1252C22.7469 66.8226 22.496 66.6898 21.6252 66.4832C20.688 66.2544 19.5958 65.9002 18.7472 65.5312C18.2011 65.2951 17.8542 65.2508 17.6181 65.3762C17.5074 65.4353 14.4596 68.8963 13.4486 70.1066C13.2863 70.2985 13.1091 70.446 13.0575 70.4239C12.8878 70.3722 10.0761 68.306 10.0466 68.2174C10.0245 68.1657 10.7477 66.9038 11.648 65.4058C12.5483 63.9077 13.3305 62.572 13.3748 62.4318C13.515 62.0554 13.4191 61.8414 12.7475 61.0813C12.2162 60.4688 11.434 59.3692 10.7919 58.3435C10.4303 57.7605 10.5189 57.7531 7.04309 58.5575C5.36792 58.9412 3.89199 59.2659 3.75178 59.2733C3.50825 59.2881 3.50087 59.2733 3.36066 58.8453C3.28686 58.6017 3.02119 57.79 2.77767 57.0446C2.41607 55.9598 2.34965 55.6794 2.43082 55.6278C2.48248 55.5909 2.5489 55.5613 2.57842 55.5613C2.63745 55.5613 7.70726 53.4065 8.22383 53.163C8.8511 52.8678 8.87324 52.8087 8.76254 51.414C8.68875 50.4694 8.68875 49.975 8.76254 49.023C8.84372 47.9308 8.84372 47.798 8.73303 47.6282C8.57805 47.3921 8.53378 47.37 5.22032 45.9678C3.65584 45.3037 2.37179 44.7576 2.35703 44.7428C2.33489 44.7281 2.82195 43.2005 3.33852 41.6507C3.43445 41.3629 3.55253 41.1268 3.61157 41.112C3.70012 41.0973 5.53027 41.5032 8.8511 42.278C9.36767 42.4035 9.9359 42.4994 10.1204 42.4994C10.5115 42.4994 10.5484 42.4625 11.4635 41.0678C12.0834 40.1232 12.504 39.5771 13.0575 38.9867C13.4117 38.6177 13.515 38.2856 13.3822 37.9683C13.3305 37.8429 12.5631 36.5367 11.6775 35.0607C10.7993 33.5848 10.0687 32.3303 10.0614 32.2639C10.054 32.1901 10.6075 31.7399 11.552 31.0462C12.3712 30.4485 13.0722 29.954 13.1018 29.9614C13.1313 29.9614 14.0021 30.9429 15.0352 32.1384C17.655 35.1788 17.6033 35.1198 17.9428 35.1198C18.0978 35.1198 18.4741 35.0091 18.8062 34.8615C19.6254 34.4999 20.8356 34.1014 21.7433 33.8948C22.5624 33.7103 22.8207 33.5553 22.8871 33.2085C22.9314 33.0166 23.2119 29.9393 23.3742 27.9246C23.4185 27.3564 23.4701 26.8177 23.4923 26.7218L23.5218 26.5594H25.9054C28.1562 26.5594 28.2964 26.552 28.5252 26.4118C29.0122 26.1166 29.0713 25.4303 28.6359 25.0835C28.4514 24.9433 28.3554 24.9359 25.4257 24.9359H22.4001L22.1935 25.1425Z" fill="white"/>
<path d="M55.2156 27.4818C51.1642 28.1165 48.0204 31.1495 47.2382 35.1788C47.0759 35.9758 47.0611 37.7395 47.2013 38.5144C47.5555 40.5069 48.478 42.2411 49.9318 43.6801C51.4741 45.2077 53.1493 46.049 55.2894 46.3737C57.614 46.7205 60.1083 46.1375 62.0491 44.7723C64.108 43.3333 65.4806 41.2448 65.9972 38.7727C66.1891 37.8502 66.1891 35.9315 65.9972 35.0459C65.1264 31.0388 61.9975 28.087 57.9829 27.4818C57.1417 27.349 56.0273 27.349 55.2156 27.4818ZM57.5402 29.0684C58.4183 29.1791 59.1637 29.3931 59.9533 29.7695C60.8462 30.1901 61.3702 30.5444 62.0344 31.1716C63.2299 32.3081 63.9383 33.5331 64.3442 35.1862C64.5951 36.175 64.5729 37.769 64.2999 38.8096C63.0158 43.7465 57.732 46.2187 53.1493 44.0196C51.9464 43.444 50.8173 42.4625 50.0646 41.3334C47.371 37.2967 48.8839 31.8506 53.2674 29.7695C54.6547 29.1201 56.0495 28.8913 57.5402 29.0684Z" fill="white"/>
<path d="M70.1094 36.1892C69.46 36.4696 69.4674 37.3994 70.1242 37.6725C70.3308 37.7536 71.6075 37.7758 77.7842 37.7758C85.983 37.7758 85.4959 37.7463 86.197 38.2628C86.3889 38.403 86.6472 38.6761 86.7726 38.868C87.2154 39.569 87.208 39.4657 87.208 45.0152V50.085L86.9571 50.1293C86.4553 50.2252 85.6509 50.6975 85.1417 51.1993C83.437 52.8819 83.5108 55.6418 85.3041 57.2137C87.149 58.8298 90.0566 58.4682 91.407 56.4536C92.2778 55.1548 92.3811 53.6641 91.6948 52.262C91.2299 51.31 89.9975 50.299 89.0824 50.1293L88.8315 50.085V44.9266C88.8315 41.473 88.802 39.6428 88.7504 39.3845C88.6249 38.7646 88.2043 37.975 87.7394 37.4732C87.0678 36.7426 86.2634 36.3072 85.2893 36.1523C84.9868 36.108 82.1382 36.0785 77.5776 36.0785C71.5927 36.0858 70.3087 36.1006 70.1094 36.1892ZM89.0898 51.8782C89.5843 52.1144 90.0566 52.6014 90.2853 53.1106C90.5657 53.7379 90.5657 54.557 90.2853 55.1327C90.027 55.6566 89.6138 56.0846 89.112 56.3503C88.7651 56.5348 88.647 56.5569 88.0198 56.5569C87.422 56.5569 87.2671 56.5274 86.9866 56.3798C86.4701 56.1068 86.1527 55.819 85.9018 55.3983C85.0901 54.0331 85.71 52.3136 87.2154 51.7675C87.6951 51.5904 88.6101 51.6495 89.0898 51.8782Z" fill="white"/>
<path d="M70.1613 40.6764C69.6816 41.0602 69.6742 41.6653 70.1465 42.0195C70.3384 42.1597 70.4934 42.1671 73.0393 42.204C75.6813 42.2409 75.7403 42.2409 76.0502 42.4106C76.5447 42.6763 77.0022 43.1338 77.2236 43.5987L77.4302 44.012L77.4524 52.0263L77.4671 60.0405L77.2384 60.0922C77.1055 60.1143 76.7587 60.2546 76.4635 60.3948C75.4894 60.8671 74.6407 61.8854 74.3234 62.9776C74.1906 63.4499 74.1463 64.4167 74.2422 64.8742C74.2939 65.1251 74.3234 65.1546 74.5153 65.1546H74.7367V65.686C74.7367 66.1435 74.7662 66.2542 74.9138 66.4461L75.0909 66.6674L75.3049 66.4608C75.4968 66.2837 75.5779 66.2616 75.9986 66.2616H76.4709L75.9912 66.697L75.5115 67.1324L75.696 67.2873C76.0355 67.5751 76.7587 67.9515 77.2088 68.0622C77.7697 68.2098 78.7881 68.2098 79.3415 68.0696C80.2123 67.8408 81.2086 67.1545 81.7104 66.4313C82.1753 65.7598 82.4115 64.9849 82.4115 64.0993C82.4115 63.0072 82.0646 62.1142 81.334 61.3172C80.788 60.7268 80.3599 60.4464 79.681 60.2029L79.1275 60.0036L79.0906 51.8639L79.0537 43.7168L78.8471 43.2002C78.4412 42.1745 77.5483 41.2594 76.5078 40.824L76.0281 40.6174L73.15 40.6026C70.9435 40.5879 70.2425 40.6026 70.1613 40.6764ZM79.194 61.7674C79.7622 61.974 80.2714 62.4611 80.537 63.0293C80.7142 63.4204 80.7437 63.5828 80.7437 64.0846C80.7363 64.9775 80.419 65.5974 79.7253 66.0771C78.7512 66.7486 77.5262 66.6674 76.6185 65.8704C75.9248 65.2653 75.6517 64.1067 75.9912 63.2064C76.2569 62.5127 76.9136 61.8928 77.6147 61.6788C77.9911 61.5681 78.7807 61.605 79.194 61.7674Z" fill="white"/>
<path d="M24.7737 44.1298C24.0653 44.211 23.6373 44.3217 23.0543 44.5652C21.357 45.2958 20.036 46.8013 19.5194 48.6019C19.2981 49.3768 19.2833 50.9117 19.4899 51.6866C20.2131 54.4318 22.582 56.2841 25.3789 56.3062C26.4268 56.3136 26.8917 56.2251 27.9101 55.8044C29.5557 55.1181 30.8988 53.5315 31.3859 51.6866C31.5925 50.9117 31.5778 49.3768 31.3564 48.6019C30.5298 45.6943 27.7034 43.7756 24.7737 44.1298ZM26.5448 45.8567C28.1979 46.2921 29.4893 47.6573 29.8214 49.303C29.9616 49.9671 29.969 50.3509 29.8657 50.956C29.6148 52.3507 28.6923 53.5979 27.4673 54.1957C26.7736 54.5425 26.198 54.6753 25.4379 54.6753C23.0764 54.6753 21.1651 52.8968 20.9585 50.5132C20.8773 49.5539 21.1946 48.4617 21.8145 47.5614C22.3163 46.8382 23.3642 46.115 24.2941 45.8567C24.7959 45.7238 26.043 45.7238 26.5448 45.8567Z" fill="white"/>
<path d="M74.0565 55.0076C73.7613 55.17 70.529 60.1807 68.9276 62.9628C68.4258 63.8336 67.5771 65.4719 67.5771 65.5605C67.5771 65.5826 67.6436 65.5974 67.7247 65.5974C67.8502 65.5974 67.8723 65.649 67.8723 65.9295V66.2615H68.2856H68.6915L68.6693 66.5346L68.6472 66.815L68.2635 66.8372L67.8723 66.8593V67.3685C67.8723 67.8482 67.9756 68.1064 68.1601 68.1064C68.1897 68.1064 68.3225 67.8482 68.4627 67.5308C69.4737 65.1915 71.0382 62.4684 73.9384 58.0037C75.4364 55.7013 75.466 55.6127 75.001 55.1478C74.7206 54.8674 74.4033 54.8231 74.0565 55.0076Z" fill="white"/>
<path d="M46.9971 58.9111C46.8568 58.9554 46.6797 59.0809 46.5912 59.1989C46.3255 59.5605 46.3919 59.8114 47.0044 60.7339C48.045 62.2836 48.7091 63.8555 49.0117 65.42C49.1519 66.1874 49.1741 66.2317 49.4619 66.4088C50.067 66.7852 50.6795 66.4014 50.6795 65.6487C50.6795 64.8665 49.9932 62.7412 49.329 61.4276C48.9305 60.6527 48.0671 59.3022 47.8162 59.0809C47.5948 58.8816 47.2775 58.8152 46.9971 58.9111Z" fill="white"/>
<path d="M65.7549 58.8889C65.4155 58.9848 64.707 59.9441 64.0134 61.2503C63.2975 62.5934 62.5596 64.8368 62.5596 65.6929C62.5596 66.0028 62.5965 66.0914 62.8105 66.3054C63.0983 66.5932 63.3713 66.6375 63.3713 66.4087C63.3713 66.2832 63.423 66.2611 63.7034 66.2611C64.0945 66.2611 64.1019 66.2537 64.2864 65.3017C64.6185 63.6339 65.3786 61.9219 66.4265 60.4681C66.7364 60.0401 66.8029 59.8999 66.8029 59.6416C66.8029 59.1029 66.2937 58.7413 65.7549 58.8889ZM64.0798 65.3386C64.22 65.5527 64.1609 65.7814 63.9248 65.9364C63.6591 66.1061 63.3049 65.8995 63.2975 65.5674C63.2975 65.1763 63.8584 65.0066 64.0798 65.3386Z" fill="white"/>
<path d="M66.6925 70.984C66.6186 71.1171 66.6333 71.1318 66.8772 71.1318C67.0842 71.1318 67.1359 71.1023 67.1359 70.984C67.1359 70.8732 67.0842 70.8362 66.9511 70.8362C66.8477 70.8362 66.7368 70.8953 66.6925 70.984Z" fill="white"/>
<path d="M66.6182 71.3824C66.6182 71.4415 66.8473 71.6484 66.9212 71.6484C66.9581 71.6484 66.9877 71.5819 66.9877 71.5006C66.9877 71.3898 66.936 71.3528 66.8029 71.3528C66.6995 71.3528 66.6182 71.3676 66.6182 71.3824Z" fill="white"/>
</svg>
