<svg width="107" height="86" viewBox="0 0 107 86" fill="none" xmlns="http://www.w3.org/2000/svg">
<path fill-rule="evenodd" clip-rule="evenodd" d="M69.736 1.04133C78.0552 2.09443 85.8758 5.58925 92.21 11.0844C98.5442 16.5796 103.108 23.8286 105.325 31.9159C107.542 40.0032 107.312 48.5661 104.665 56.523C102.018 64.4799 97.0728 71.4741 90.4533 76.622H90.4011C81.5227 83.5175 70.2694 86.605 59.1152 85.2056C47.9611 83.8062 37.8192 78.0346 30.9194 69.1596C29.0642 66.7656 27.4666 64.1827 26.1532 61.4537C28.82 61.3781 31.4695 60.9988 34.0504 60.323C34.887 61.8026 35.8318 63.2183 36.8771 64.5587C40.7279 69.4991 45.8384 73.311 51.6716 75.5937C57.5047 77.8764 63.8451 78.5456 70.0263 77.5309C76.2075 76.5162 82.0012 73.8552 86.7984 69.8275C91.5957 65.7997 95.2194 60.5541 97.2887 54.6418C99.3579 48.7296 99.7963 42.3691 98.5577 36.2288C97.3191 30.0886 94.4493 24.3954 90.25 19.7476C86.0506 15.0999 80.6767 11.6692 74.6932 9.8161C68.7097 7.96303 62.3374 7.75605 56.2463 9.21691C54.9714 6.87211 53.4368 4.67816 51.6714 2.67644C52.1846 2.51119 52.7064 2.36334 53.2283 2.21548C58.6053 0.737906 64.2215 0.338859 69.7534 1.04133H69.736ZM0 27.6642V24.4461C0.406698 18.0668 3.22695 12.0817 7.88765 7.70692C12.5484 3.33216 18.6998 0.895992 25.0921 0.893471C30.0008 0.889944 34.8034 2.32231 38.9082 5.01414C43.0131 7.70597 46.2409 11.5397 48.1941 16.0431C50.1473 20.5465 50.7406 25.5229 49.901 30.3592C49.0613 35.1956 46.8253 39.6808 43.4684 43.2622C40.1115 46.8437 35.7803 49.3651 31.0084 50.5157C26.2364 51.6664 21.2321 51.3961 16.6118 49.7382C11.9915 48.0803 7.9571 45.1071 5.00547 41.1849C2.05383 37.2627 0.313902 32.5628 0 27.6642ZM10.9675 21.8108L10.263 17.3142C12.4374 16.5634 14.7205 16.1756 17.0209 16.1662C17.8906 16.1662 18.6647 16.1662 19.2735 16.2531C19.914 16.326 20.5425 16.481 21.1434 16.7141C21.7292 16.9102 22.2557 17.2513 22.6742 17.7056C23.635 18.9788 24.0961 20.5599 23.9701 22.15C23.9701 24.1388 23.4657 25.6087 22.4568 26.5596C21.4566 27.4989 19.3344 28.5861 16.1076 29.8211V30.6909H23.7005V35.4918H9.88898V31.7259C9.88509 30.6381 10.0705 29.558 10.4369 28.5339C10.8634 27.716 11.4558 26.9962 12.1764 26.4204C12.7515 25.8793 13.3982 25.4198 14.0985 25.0549L16.4207 23.8634C17.1426 23.4894 17.7341 23.185 18.1602 22.9415V21.2976C17.4187 21.2047 16.6723 21.1554 15.925 21.1498C14.245 21.1529 12.5726 21.3752 10.9501 21.8108H10.9675ZM27.3447 33.4306C26.8084 32.4922 26.4487 31.4633 26.2836 30.3952C26.0636 28.9564 25.9647 27.5017 25.9879 26.0464C25.9645 24.5911 26.0634 23.1364 26.2836 21.6977C26.4487 20.6295 26.8084 19.6007 27.3447 18.6623C27.8559 17.8007 28.6392 17.1337 29.5713 16.7663C30.7355 16.3314 31.9733 16.1276 33.2155 16.1662C34.4549 16.1265 35.6901 16.3304 36.851 16.7663C37.7761 17.1509 38.5513 17.8254 39.0602 18.6884C39.5965 19.6268 39.9562 20.6556 40.1212 21.7238C40.3251 23.1641 40.4181 24.618 40.3996 26.0725C40.4201 27.5271 40.327 28.9811 40.1212 30.4212C39.9548 31.4863 39.5952 32.5121 39.0602 33.448C38.5508 34.3085 37.7754 34.9801 36.851 35.3614C35.6919 35.8049 34.4558 36.0119 33.2155 35.9702C31.9723 36.0117 30.7334 35.8047 29.5713 35.3614C28.6424 34.9874 27.8649 34.314 27.3621 33.448L27.3447 33.4306ZM31.5282 22.6283V31.0909H32.6588C33.2536 31.1424 33.8517 31.0437 34.3983 30.8039C34.7201 30.6126 34.8854 30.169 34.8854 29.4906V21.028H33.5721C33.0218 20.9857 32.4695 21.0782 31.9631 21.2976C31.676 21.4803 31.5282 21.9239 31.5282 22.6283ZM62.1257 22.5153C62.1859 22.0255 62.3423 21.5524 62.5857 21.1231C62.8292 20.6939 63.155 20.317 63.5445 20.0139C63.934 19.7109 64.3795 19.4878 64.8554 19.3573C65.3313 19.2269 65.8283 19.1917 66.3179 19.2537C66.8081 19.315 67.2813 19.4723 67.7106 19.7167C68.14 19.961 68.5169 20.2877 68.8198 20.6778C69.1227 21.068 69.3457 21.5141 69.4761 21.9906C69.6064 22.4671 69.6416 22.9645 69.5794 23.4546L67.1094 43.0934L80.6947 53.6521C81.4804 54.2637 81.992 55.1615 82.1175 56.1492C82.243 57.1369 81.9722 58.1341 81.3645 58.9227C80.7506 59.706 79.8547 60.2179 78.8683 60.3491C78.3801 60.4126 77.8842 60.3784 77.4094 60.2485C76.9346 60.1186 76.4904 59.8956 76.1025 59.5924L60.882 47.7726C60.3417 47.381 59.9163 46.8517 59.6502 46.2398C59.384 45.6279 59.2868 44.9559 59.3687 44.2936L62.1083 22.5501L62.1257 22.5153Z" fill="#293389"/>
</svg>
