<svg width="85" height="83" viewBox="0 0 85 83" fill="none" xmlns="http://www.w3.org/2000/svg">
<path d="M13.4346 0H73.0328C79.4182 0 84.5946 5.17639 84.5946 11.5618V70.834C84.5946 77.2194 79.4182 82.3958 73.0328 82.3958H24.9964C18.611 82.3958 13.4346 77.2194 13.4346 70.834V0Z" fill="#293389"/>
<path d="M13.4341 0.0337383V20.599H0V10.7837C2.86594 1.43591 10.1502 -0.277856 13.4341 0.0337383Z" fill="#131C65"/>
<path d="M0 21.1484V20.6197V20.5908H13.4356V21.1484H0Z" fill="#131C65"/>
<path d="M59.1431 59.5178C58.9865 60.5277 57.6992 61.588 56.677 61.5757H34.3175C33.7628 61.5846 33.132 61.0724 32.9967 60.5501L32.9766 26.842C33.0582 26.4539 33.3356 26.2235 33.6129 25.9697C40.0181 24.5224 46.4211 22.6625 52.8632 21.3506C53.7355 21.1728 54.3373 20.9289 55.1526 21.4915C56.4477 22.384 55.9411 24.4061 56.0451 25.756C57.1232 25.6375 58.1734 25.9987 58.7595 26.9371C58.8613 27.0993 59.1431 27.6574 59.1431 27.8106V36.6595C62.4872 35.351 66.3838 36.5969 68.1687 39.7374C69.8811 42.7504 69.2391 46.3484 66.7629 48.6971C66.5616 48.8883 65.98 49.1724 66.018 49.4319C66.0314 49.5225 66.8781 50.9898 66.9698 50.9976C67.5066 50.7147 68.0815 50.009 68.5557 50.7561C69.8486 53.3419 71.7074 55.8371 72.9701 58.4117C74.1031 60.7223 71.6414 62.5722 69.7748 60.9415L64.9555 52.6831C64.7229 51.9729 65.5941 51.8566 66.0136 51.5401L65.0886 49.8658C63.2298 50.6275 61.201 50.8377 59.312 50.0325L59.142 50.1219V59.5166L59.1431 59.5178ZM38.8829 25.756H54.9155L55.0407 25.6308V23.1982C55.0407 22.6032 54.4569 22.025 53.8373 22.157L38.8829 25.756ZM58.1209 49.4274C54.023 46.902 53.5868 41.1354 57.178 37.9211C57.3771 37.7433 58.103 37.3093 58.1388 37.1225V28.06C58.0023 27.3498 57.4107 26.7984 56.677 26.7581H34.4842L34.0469 26.8655L33.9395 27.3039L33.9608 60.2548C34.0603 60.464 34.2393 60.5959 34.482 60.5713H56.592C57.3402 60.5299 57.9978 60.0099 58.1388 59.2684L58.1198 49.4274H58.1209ZM68.1162 43.3421C68.1162 39.9186 65.3459 37.1427 61.9291 37.1427C58.5123 37.1427 55.742 39.9186 55.742 43.3421C55.742 46.7655 58.5123 49.5415 61.9291 49.5415C65.3459 49.5415 68.1162 46.7655 68.1162 43.3421ZM66.0918 52.5992L70.4917 60.2257C71.2712 61.0836 72.6066 60.2201 72.2208 59.1632L67.9753 51.7582C67.9137 51.6653 67.8433 51.6609 67.7437 51.6877C67.3109 51.8007 66.6041 52.503 66.0918 52.5992Z" fill="white"/>
<path d="M53.5827 40.0246C53.5827 44.1885 50.214 47.5639 46.0579 47.5639C41.9019 47.5639 38.5332 44.1885 38.5332 40.0246C38.5332 35.8607 41.9019 32.4854 46.0579 32.4854C50.214 32.4854 53.5827 35.8607 53.5827 40.0246ZM48.0923 37.2476C48.1203 36.3417 47.1361 33.7078 46.1194 33.6429C44.9496 33.568 44.0683 36.3103 43.99 37.2476H48.0923ZM40.2231 37.2476H42.8604C43.0773 36.9467 43.0695 36.5083 43.1769 36.1392C43.3994 35.372 43.6813 34.5835 44.1566 33.9326C44.1779 33.8051 44.16 33.7872 44.0314 33.8073C43.7562 33.8509 42.9778 34.2513 42.7083 34.4124C41.6536 35.0454 40.647 36.0822 40.222 37.2476H40.2231ZM51.9442 37.2476C51.4208 36.1292 50.5428 35.1103 49.4881 34.465C49.0586 34.2021 48.3999 33.8431 47.9257 33.8498C48.6325 34.8463 48.9379 36.0654 49.1806 37.2476H51.9431H51.9442ZM42.8179 38.2542H39.8462C39.3743 39.3491 39.4995 40.7203 39.8048 41.8611H42.6926C42.7284 41.8611 42.8335 41.7291 42.8145 41.6597L42.8179 38.2542ZM48.344 38.2542H43.8233V41.8611H48.2187C48.3663 41.5837 48.4122 40.9988 48.4312 40.6487C48.4748 39.8457 48.3552 39.0538 48.344 38.2542ZM52.3625 38.2542H49.3483V41.8611H52.2361C52.7617 40.7617 52.5884 39.4173 52.3613 38.2542H52.3625ZM42.9856 42.8676H40.2231C40.9143 44.4703 42.4421 45.7621 44.1152 46.224L43.4654 44.7779L42.9856 42.8676ZM48.0923 42.8676H43.99C44.1208 43.8183 44.9239 46.4477 46.1228 46.3974C47.1585 46.3526 48.0543 43.7736 48.0923 42.8676ZM51.9442 42.8676H49.1817C49.0564 43.4123 48.949 43.976 48.7656 44.5061C48.5486 45.1358 48.2019 45.7051 47.9257 46.3068C49.676 45.7386 51.1065 44.5061 51.9431 42.8676H51.9442Z" fill="white"/>
<path d="M39.0271 50.267L52.994 50.2446C53.6818 50.333 53.5599 51.2456 52.9078 51.2568H39.2586C38.6446 51.221 38.3963 50.4929 39.0271 50.267Z" fill="white"/>
<path d="M50.8341 54.589C50.7312 54.6863 50.5354 54.6863 50.399 54.6975C47.6197 54.938 44.5027 54.5096 41.6865 54.6964C40.9931 54.6863 40.926 53.7703 41.6004 53.6831L50.4806 53.6865C50.975 53.6518 51.1539 54.2848 50.8341 54.589Z" fill="white"/>
</svg>
