<svg width="60" height="53" viewBox="0 0 60 53" fill="none" xmlns="http://www.w3.org/2000/svg">
<path d="M21.6742 0.810299C18.0051 1.47984 14.0414 3.05995 11.1758 5.04179C9.35465 6.30053 6.11408 9.46075 4.85534 11.2551C-4.41108 24.2978 0.0614404 42.6431 14.2289 49.7403C21.4599 53.3826 29.7354 53.5165 36.9933 50.1152C40.823 48.2941 41.7604 47.2228 40.7427 45.7498C40.0464 44.7589 39.1626 44.7589 36.6451 45.8034C31.1549 48.0798 30.7264 48.1869 26.0128 48.1869C21.8617 48.2137 21.6474 48.1869 19.2103 47.3299C15.5144 46.0444 13.2648 44.625 10.4527 41.8129C8.33695 39.6972 7.8281 38.9741 6.62293 36.5637C4.61431 32.4929 4.10546 30.1094 4.23937 25.744C4.34649 22.7176 4.4804 21.9142 5.17672 19.8252C7.21212 13.9333 10.9615 9.62144 16.3714 6.88972C19.6923 5.22926 21.5938 4.82754 26.0128 4.82754C29.4676 4.82754 30.2979 4.90788 32.0387 5.44352C37.3146 7.10397 41.5193 10.2374 44.3582 14.6296C44.9474 15.5402 45.4295 16.3704 45.4295 16.4775C45.4295 16.5847 44.7063 16.8793 43.8226 17.1471C41.4122 17.8702 41.4926 18.0041 46.0186 20.8697C47.8666 22.0213 49.1253 22.6373 49.5003 22.5837C50.0091 22.5302 50.384 21.8606 51.6963 18.6736C53.4907 14.3082 53.4639 14.0136 51.4285 14.7099C50.7322 14.951 50.0091 15.1384 49.8216 15.1384C49.6342 15.1384 49.0985 14.4421 48.6432 13.5851C43.3673 4.23834 32.119 -1.09119 21.6742 0.810299Z" fill="#293389"/>
<path d="M25.0451 10.2371C24.7506 10.5585 24.6434 12.4332 24.5363 18.6465L24.4024 26.6542L19.5817 30.5375C16.9303 32.7069 14.5468 34.7155 14.3057 35.0101C13.6898 35.7064 13.6898 36.6437 14.3057 37.1794C15.377 38.1435 15.9662 37.8221 22.0992 32.8675L27.9911 28.1272V19.3964C28.0179 11.2816 27.9911 10.6388 27.5358 10.2371C26.8931 9.64791 25.5004 9.64791 25.0451 10.2371Z" fill="#293389"/>
<path d="M37.3128 28.1009C33.2956 29.6006 31.4744 33.9392 33.3492 37.5548C34.3936 39.6169 37.1789 41.3845 39.4018 41.3845C40.9551 41.3845 42.7495 40.5275 44.4635 38.9742C45.4544 38.0904 46.3114 37.3673 46.3918 37.3673C46.4989 37.3673 47.3291 38.0904 48.2665 38.9742C49.9537 40.5275 51.7213 41.3845 53.3282 41.3845C54.587 41.3845 56.7563 40.5007 57.774 39.5902C59.3809 38.1172 59.9968 36.7781 59.9968 34.5552C60.0236 32.9751 59.9165 32.4663 59.247 31.2611C57.9347 28.9311 55.2297 27.5117 52.6051 27.8063C50.9714 28.0205 49.9537 28.5561 47.9719 30.2702L46.365 31.6896L44.892 30.3505C44.0886 29.6274 42.937 28.7704 42.3746 28.4758C41.0087 27.7795 38.6519 27.592 37.3128 28.1009ZM42.1067 33.1358L43.5529 34.5017L42.9637 35.1712C41.8657 36.3496 40.2856 37.3673 39.5089 37.3673C38.4109 37.3673 37.3932 36.8317 36.9647 36.0014C35.8934 33.8857 37.0986 31.7431 39.4018 31.7431C40.5266 31.7431 40.7677 31.8771 42.1067 33.1358ZM55.3636 32.5198C56.7027 33.8857 56.3278 36.1889 54.6137 37.0727C53.2479 37.769 51.5339 37.0995 49.7663 35.1712L49.1771 34.5017L50.6233 33.1358C51.9624 31.8771 52.2034 31.7431 53.3282 31.7431C54.3459 31.7431 54.7209 31.8771 55.3636 32.5198Z" fill="#293389"/>
</svg>
