<svg width="85" height="83" viewBox="0 0 85 83" fill="none" xmlns="http://www.w3.org/2000/svg">
<path d="M13.4287 0H72.9963C79.3817 0 84.5581 5.17639 84.5581 11.5618V70.7986C84.5581 77.184 79.3817 82.3604 72.9963 82.3604H24.9905C18.6051 82.3604 13.4287 77.184 13.4287 70.7986V0Z" fill="#293389"/>
<path d="M13.4283 0.0337237V20.5901H0V10.7791C2.86471 1.43529 10.1458 -0.277736 13.4283 0.0337237Z" fill="#131C65"/>
<path d="M0 21.1394V20.6109V20.582H13.4298V21.1394H0Z" fill="#131C65"/>
<g clip-path="url(#clip0_836_509)">
<path d="M29.0919 31.9435C29.8909 22.844 39.6974 17.4203 47.7421 22.01C52.6702 24.8168 55.0325 30.695 53.6181 36.2186H65.6033C66.2832 36.2186 67.2212 37.4222 67.1567 38.1264L67.1815 48.4245C72.1393 52.6745 69.4594 60.9949 62.8738 61.3046C58.5909 61.5093 54.9035 57.7037 55.3799 53.3987H42.8339C42.7942 53.3987 42.3277 53.2888 42.2483 53.2639C41.3997 52.9992 40.9332 52.2051 40.8686 51.3461C40.7198 49.4383 40.9877 47.3407 40.8686 45.4129C35.3798 45.1432 30.4964 40.9781 29.3648 35.5743C29.2606 35.0799 29.1217 34.3707 29.0869 33.8813V31.9435H29.0919ZM31.7371 27.5886H36.6254C37.2855 25.501 38.7346 23.9228 39.9307 22.1648C39.9902 22.0749 40.149 21.8901 40.1093 21.7803C36.5907 22.2397 33.3996 24.4522 31.7321 27.5886H31.7371ZM51.3749 27.5886C49.9754 24.9866 47.499 22.9389 44.6602 22.1249C44.5262 22.0849 42.9183 21.6904 42.958 21.8202C44.2334 23.6781 45.752 25.4161 46.4865 27.5886H51.3749ZM45.0424 27.5886C44.293 25.5859 42.7893 23.9078 41.5535 22.1848C40.7297 23.3335 39.8016 24.4322 39.0423 25.6258C38.6651 26.2201 38.2433 26.9143 38.0646 27.5886H45.0374H45.0424ZM36.144 28.962H31.0969C30.3326 31.2843 30.0596 33.9162 30.9777 36.2236H36.0696C35.5038 33.8363 35.5237 31.3342 36.149 28.962H36.144ZM45.5932 28.972H37.5187C36.7991 31.3142 36.7842 33.8513 37.4344 36.2136H45.6726C46.3128 33.8263 46.3079 31.3392 45.5883 28.972H45.5932ZM52.0151 28.962H46.9679C47.6032 31.3442 47.5982 33.8164 47.0473 36.2236H52.1392C53.0474 33.9212 52.7794 31.2843 52.0201 28.962H52.0151ZM36.4269 37.5121H31.4145C32.948 41.038 36.3922 43.5651 40.1887 44.0445C40.3128 43.9796 40.1887 43.8997 40.154 43.8398C39.4195 42.5762 38.422 41.3826 37.6825 40.1191C37.1912 39.28 36.8289 38.3961 36.4269 37.5121ZM41.0324 37.5121H37.9058L38.6453 39.1502L40.8736 42.5163V38.0415C40.8736 37.9715 41.0572 37.5321 41.0324 37.5171V37.5121ZM65.8018 47.5105V37.9516C65.8018 37.7168 65.2758 37.4571 65.0425 37.5071H43.0771C42.829 37.4422 42.2384 37.6869 42.2384 37.9516V48.0749H58.4717C58.5015 48.0749 58.8191 47.8002 58.9383 47.7402C61.241 46.5716 63.4098 46.4168 65.8068 47.5105H65.8018ZM68.447 54.023C68.447 50.7418 65.8068 48.0848 62.5462 48.0848C59.2857 48.0848 56.6454 50.7418 56.6454 54.023C56.6454 57.3042 59.2857 59.9611 62.5462 59.9611C65.8068 59.9611 68.447 57.3042 68.447 54.023ZM56.9035 49.3684H42.2334V51.6657C42.2334 51.7406 42.685 52.0852 42.8339 52.0303H55.5685C55.7819 51.6058 55.901 51.1363 56.1144 50.7068C56.2037 50.522 56.9631 49.4183 56.9035 49.3634V49.3684Z" fill="white"/>
<path d="M37.5882 48.8037V52.03H39.5932V53.3984H36.3078V51.4656L32.1391 54.6519L36.3078 58.4825V56.6247H55.3005V57.9981H37.5882V61.3842L30.0547 54.6519L37.5882 48.8037Z" fill="white"/>
<path d="M62.5168 35.6541V32.268H55.425L55.3158 32.1332C55.3357 31.7486 55.1818 31.2043 55.425 30.8946H63.7625L63.8816 31.0145V32.6676L68.0504 28.9169L63.8816 25.7306V27.5835H54.0205V26.2949H62.5168V22.9888L70.1298 28.9169L62.5168 35.6541Z" fill="white"/>
<path d="M44.4619 38.9004C45.8862 38.9953 47.6232 38.7106 49.0128 38.8805C49.5835 38.9504 50.0302 39.4897 50.0947 40.0541C50.1989 41.013 50.1791 43.1106 50.0947 44.0894C50.0401 44.7137 49.6828 45.338 49.0128 45.4179C48.1195 45.5278 45.4942 45.5278 44.6009 45.4179C44.0301 45.348 43.5835 44.8086 43.519 44.2442C43.4197 43.3653 43.4098 40.8332 43.5239 39.9742C43.5934 39.4598 43.9904 39.0602 44.4569 38.8954L44.4619 38.9004ZM48.8093 40.174H44.7994V41.4625H46.3627C46.447 41.4625 46.9582 41.7371 47.0475 41.822C47.122 41.897 47.4445 42.4263 47.4445 42.4713V44.1244H48.8093V40.174ZM46.1641 42.8359H44.7994V44.1244H46.1641V42.8359Z" fill="white"/>
<path d="M58.889 39.5443C60.3183 39.6142 61.961 39.3845 63.3655 39.5194C64.6657 39.6442 64.631 41.2374 64.5218 42.2262C64.4474 42.9054 63.9511 43.4049 63.2811 43.4748C62.3282 43.5797 60.2389 43.5647 59.2712 43.4748C58.6607 43.4198 58.1198 43.0503 57.9858 42.426C57.9014 42.0315 57.9014 40.723 58.0255 40.3584C58.1396 40.0338 58.5515 39.6043 58.889 39.5343V39.5443ZM63.2364 40.8179H59.2265V42.1064H63.2364V40.8179Z" fill="white"/>
<path d="M52.3971 39.5446C52.8785 39.4647 55.4394 39.4647 55.8265 39.5996C56.7744 39.9342 56.7446 41.3076 56.6652 42.1416C56.5907 42.9057 56.0994 43.3952 55.3451 43.4701C54.6949 43.535 53.35 43.535 52.6999 43.4701C52.0497 43.4052 51.5287 43.0006 51.4145 42.3464C51.2557 41.4424 51.2309 39.7344 52.4021 39.5396L52.3971 39.5446ZM55.3004 40.8182H52.7346V42.1067H55.3004V40.8182Z" fill="white"/>
<path d="M52.7349 44.7686V46.0171L52.6009 46.127C52.2188 46.107 51.6778 46.2618 51.3701 46.0171V44.7686H52.7349Z" fill="white"/>
<path d="M60.5912 44.7687V46.0172C60.2736 46.252 59.693 46.1271 59.3059 46.1021C59.1917 46.0222 59.152 44.9185 59.3505 44.7637H60.5912V44.7687Z" fill="white"/>
<path d="M55.3009 44.7686H54.0205V46.142H55.3009V44.7686Z" fill="white"/>
<path d="M57.9454 44.7686H56.665V46.142H57.9454V44.7686Z" fill="white"/>
<path d="M65.9359 50.4219L66.9979 51.1011L61.916 58.3177L58.8291 55.1464L59.7472 54.2075C59.8812 54.2075 61.3502 55.9255 61.6678 56.1453C61.7373 56.1952 61.777 56.2651 61.8713 56.1852L65.9309 50.4219H65.9359Z" fill="white"/>
</g>
<defs>
<clipPath id="clip0_836_509">
<rect width="41.0375" height="41.0375" fill="white" transform="translate(29.0918 20.3467)"/>
</clipPath>
</defs>
</svg>
