<svg width="53" height="61" viewBox="0 0 53 61" fill="none" xmlns="http://www.w3.org/2000/svg">
<path d="M42.6922 16.6316C42.4034 16.9012 41.5946 17.5271 41.5657 17.9026C41.5657 17.9989 41.6812 18.9136 41.7005 18.9714C41.8449 19.2988 42.6441 19.7128 42.7789 20.0979C42.3456 20.1172 41.9027 20.0979 41.479 20.0883C41.1709 16.5642 39.9385 13.2328 37.9453 10.3346C36.4625 11.2108 34.9605 12.0581 33.314 12.5973C33.7569 15.0814 34.3154 17.556 34.3346 20.0979H32.5533C32.4185 17.7871 32.1297 15.4666 31.4749 13.252C28.6345 14.1186 25.6689 14.523 22.7033 14.6096L22.6166 20.0402C21.9523 20.2039 21.3649 20.4927 20.7391 20.7623V14.5711H18.9096C18.5534 14.5711 17.8697 14.4267 17.4557 14.3882C17.7542 13.7912 18.5341 13.4638 18.486 12.7032C18.5534 12.7032 18.6689 12.7898 18.8133 12.7995C19.4488 12.838 20.1036 12.7706 20.7391 12.7995V1.90954C17.0609 2.5354 14.596 5.94392 13.1421 9.13098C12.2563 8.89027 11.3512 9.82424 10.7927 10.4405C11.2934 8.51475 12.3526 6.72384 13.4406 5.06772L15.0197 3.03609C14.8656 2.89166 12.2178 4.23003 11.8615 4.4226C10.3691 5.26992 7.61531 7.30155 6.67171 8.69769C6.61393 8.78435 6.54654 8.86138 6.58505 8.97692C6.66208 9.23689 9.87802 10.6716 10.3306 10.9026C10.3306 10.9026 10.3306 11.0086 10.2921 11.0471C9.88765 11.4226 9.47363 11.7981 9.11737 12.2121C8.44337 11.9136 7.81751 11.6633 7.14351 11.3263C6.78725 11.1434 5.80513 10.4501 5.55479 10.3731C5.41036 10.3346 5.42962 10.3346 5.32371 10.4308C5.09262 10.6427 4.50528 11.7211 4.32233 12.0581C2.71436 14.9659 1.87667 18.1722 1.80927 21.5037H8.84777C8.88628 20.0498 8.96331 18.5959 9.14625 17.1516C9.17514 16.9109 9.29068 16.6316 9.31957 16.4294L10.9179 17.7389C10.7831 18.9907 10.6868 20.2327 10.735 21.4941H20.1132C19.988 21.8407 19.7666 22.1296 19.6414 22.4762C19.5451 22.7265 19.5355 23.0154 19.4585 23.2754H10.735C10.8409 25.5862 11.1105 27.8971 11.7749 30.1213C14.2975 29.5051 16.8491 28.9466 19.4585 28.8118V30.6894C18.0238 30.7375 16.5314 30.9205 15.1256 31.1901C14.7501 31.2575 12.4874 31.7389 12.3718 31.9026C12.3429 31.9507 12.3333 31.9892 12.3237 32.047C12.3044 32.2396 13.2577 34.4542 13.4213 34.8008C14.6538 37.3524 16.6951 40.135 19.4585 41.0979V43.2547C18.6593 43.2065 17.889 43.0525 17.1091 42.8792C17.3883 42.1666 16.7239 41.9933 16.5506 42.6962C-1.65702 38.1708 -6.04765 14.3786 9.464 3.79675C22.0678 -4.80158 39.1778 1.93843 42.7019 16.6316H42.6922ZM22.6263 1.90954V12.7898C25.4474 12.7898 28.2879 12.3373 30.9839 11.5189C29.7033 7.45561 27.1132 2.88203 22.6263 1.90954ZM15.1641 2.9398V3.03609C15.2219 3.0072 15.2219 2.97832 15.1641 2.9398ZM35.0664 7.00306C34.6427 6.62755 34.0458 6.15575 33.5932 5.80912C31.9949 4.59592 30.0114 3.479 28.0664 2.98795C30.204 5.20252 31.7253 7.98518 32.6689 10.9123C32.9192 11.1241 36.2892 9.32355 36.7899 9.03469C36.9729 8.76509 35.5671 7.58078 35.336 7.35932C35.2205 7.25341 35.1627 7.08972 35.076 7.01269L35.0664 7.00306ZM1.89593 23.2946C2.1559 26.7994 3.38836 30.208 5.41999 33.0388L9.94543 30.7279L8.78037 23.285H1.89593V23.2946ZM10.6098 32.4899C9.17514 32.8943 7.89454 33.6935 6.58505 34.3675L6.62356 34.6467C8.36634 36.6591 10.6098 38.4404 13.0169 39.6054C13.6235 39.9039 14.3649 40.2409 15.0197 40.3661C13.0843 38.0552 11.4282 35.4266 10.6098 32.4899Z" fill="#293389"/>
<path d="M12.8626 9.68939C12.6123 10.2864 12.3427 10.9507 12.3908 11.567C12.4101 11.8366 11.9287 12.0003 11.7361 12.1736C11.2065 12.655 11.1102 13.2231 11.2161 13.9163C11.245 14.0704 11.2258 14.2437 11.4472 14.1956C11.2354 15.0718 10.9947 16.3042 10.8888 17.1997L9.38672 15.7939C9.56003 14.7348 9.64669 13.666 10.0415 12.655C9.84889 12.6357 9.71409 12.4817 9.56966 12.4143C10.5133 11.4899 11.4087 10.5271 12.3908 9.65088L12.853 9.68939H12.8626Z" fill="#293389"/>
<path d="M14.0866 12.0387C14.4236 12.6742 14.7798 13.1364 14.645 13.9163C13.6822 13.7237 12.7482 13.5022 11.795 13.2615C11.6602 13.3 11.4965 14.0126 11.458 14.1955C11.2365 14.2533 11.2462 14.08 11.2269 13.9163C11.121 13.223 11.2076 12.6549 11.7468 12.1735C11.9394 12.0002 12.4208 11.8269 12.4016 11.5669C12.9697 11.6247 13.557 11.9135 14.0866 12.0387Z" fill="#293389"/>
<path d="M17.9269 12.6936C18.0713 13.0113 17.5032 13.666 17.2722 13.772C16.8485 13.9645 15.8664 13.4831 15.6834 14.0993C15.3368 14.0416 14.9998 13.9838 14.6532 13.9164C14.788 13.1365 14.4221 12.6743 14.0947 12.0388C15.3079 12.318 16.7041 12.5588 17.9365 12.6936H17.9269Z" fill="#293389"/>
<path d="M42.8847 17.479C42.1915 17.7101 42.6248 18.5863 43.164 18.7018C43.2025 19.0581 43.2217 19.4625 43.2602 19.8284C43.1062 19.8861 43.0099 19.9054 42.8558 19.8284C42.7499 19.7706 41.8641 18.904 41.8545 18.8366C41.8256 18.6441 41.9411 18.4611 41.9219 18.3071C41.9026 18.1626 41.7197 18.0375 41.7678 17.8449C41.816 17.6716 42.5959 17.0168 42.7884 16.8435C42.8366 17.0553 42.8366 17.2864 42.8847 17.4982V17.479Z" fill="#293389"/>
<path d="M18.4961 12.6935C18.5443 13.4542 17.7547 13.7912 17.4659 14.3785C16.8689 14.3111 16.2815 14.1956 15.6846 14.0993C15.8771 13.4831 16.8593 13.9645 17.2733 13.7719C17.5044 13.666 18.0821 13.0209 17.928 12.6935C18.111 12.7128 18.3035 12.6743 18.4865 12.6935H18.4961Z" fill="#293389"/>
<path d="M10.8981 17.1997C10.8789 17.373 10.9174 17.5849 10.8981 17.7582L9.2998 16.4487C9.32869 16.2176 9.35758 16.0154 9.39609 15.7939L10.8981 17.1997Z" fill="#293389"/>
<path d="M42.789 16.824C42.5964 16.9973 41.8165 17.6521 41.7683 17.8254C41.7202 18.018 41.9031 18.1431 41.9224 18.2876C41.9417 18.4416 41.8165 18.6246 41.855 18.8171C41.8646 18.8845 42.7504 19.7511 42.8564 19.8089C43.0104 19.8955 43.1067 19.8763 43.2608 19.8089C43.2608 19.9052 43.2608 20.0015 43.2608 20.0881C43.1067 20.0881 42.943 20.0881 42.789 20.0881C42.6542 19.703 41.855 19.2889 41.7106 18.9616C41.6817 18.9038 41.5661 17.9891 41.5758 17.8928C41.595 17.5173 42.4134 16.8914 42.7023 16.6218C42.7023 16.6507 42.7793 16.7181 42.7986 16.8048L42.789 16.824Z" fill="#293389"/>
<path d="M42.8849 17.479C42.9619 17.8545 43.116 18.2782 43.1641 18.7018C42.6249 18.5959 42.1917 17.7101 42.8849 17.479Z" fill="#293389"/>
<path d="M17.0897 42.8983C16.8394 42.8405 16.6853 42.7539 16.5312 42.7154C16.7046 42.0221 17.3689 42.1858 17.0897 42.8983Z" fill="#293389"/>
<path d="M13.1516 9.13096C13.0649 9.3139 12.9301 9.54499 12.8723 9.68942L12.4102 9.6509C11.428 10.5271 10.5326 11.49 9.58899 12.4143C9.45419 12.3565 9.28087 12.2988 9.11719 12.2314C9.47345 11.8173 9.8971 11.4418 10.2919 11.0663C10.34 11.0182 10.3208 10.9219 10.3304 10.9219C10.8118 10.6908 10.4941 10.7967 10.8022 10.4501C11.3606 9.83385 12.2561 8.89987 13.1516 9.14059V9.13096Z" fill="#293389"/>
<path d="M15.1641 2.93994C15.2218 2.96883 15.2218 2.99771 15.1641 3.03623V2.93994Z" fill="black"/>
<path d="M51.8883 45.6135C51.3972 45.6135 51.0698 45.0069 50.7328 44.6603C50.6269 44.5544 50.6654 44.4196 50.3958 44.487V38.7676H22.3478V59.4979H50.3958V50.0234C50.9928 49.8597 51.2046 49.1183 51.8016 48.8969C51.8016 52.0069 52.2349 56.0413 51.8883 59.0647C51.7727 60.0853 51.0217 60.9037 49.9818 61H22.7714C21.7026 60.9037 20.9035 60.0564 20.8457 58.978V23.5256C20.8746 22.5531 21.6449 21.7154 22.5788 21.5132C31.8415 21.5613 41.1235 21.4265 50.3766 21.5806C51.5127 21.985 51.8209 22.7745 51.8979 23.9011C51.8786 31.1418 51.8979 38.3825 51.8979 45.6232L51.8883 45.6135ZM50.3862 23.0056H22.3381V37.2655H50.3862V23.0056Z" fill="#293389"/>
<path d="M51.8879 46.3646C51.8879 46.9904 51.8879 47.6163 51.8879 48.2421H50.3955V45.1514L51.8879 46.3742V46.3646Z" fill="#293389"/>
<path d="M51.8878 48.2422C51.8878 48.5022 51.7915 48.7718 51.7915 48.8969C51.1945 49.1184 50.9827 49.8598 50.3857 50.0235V48.2422H51.8782H51.8878Z" fill="#293389"/>
<path d="M50.3955 44.4966C50.6651 44.4292 50.6266 44.564 50.7325 44.6699C51.0791 45.0166 51.3969 45.6232 51.8879 45.6232C51.8879 45.8735 51.8879 46.1239 51.8879 46.3742L50.3955 45.1514V44.4966Z" fill="#293389"/>
<path d="M41.008 29.1101C40.7673 29.0908 39.7178 29.3123 39.6022 29.1967C39.5541 29.1582 39.6022 28.4842 39.1208 28.128C38.052 27.3384 35.9337 28.3687 37.0699 29.1486C38.2061 29.9285 40.825 29.476 41.1717 31.5172C41.7494 34.8969 35.5293 35.3013 35.1249 32.0372C34.9901 30.9203 35.6545 31.5557 36.4152 31.2669C36.444 32.7882 38.0905 33.3081 39.3134 32.7112C39.7755 32.4897 39.9777 31.8157 39.5348 31.4498C38.572 30.6603 35.7412 31.1321 35.4042 29.1293C34.8168 25.6919 41.2102 25.6438 41.008 29.1005V29.1101Z" fill="#293389"/>
<path d="M25.0622 26.6741L26.9879 32.2105L29.0003 26.6741H30.5024L27.6812 34.0303C27.4886 34.2999 26.6991 34.1844 26.3717 34.1362C25.3029 31.7002 24.369 29.1679 23.4639 26.6741H25.0622Z" fill="#293389"/>
<path d="M33.314 26.6741H31.9082V34.1747H33.314V26.6741Z" fill="#293389"/>
<path d="M42.0371 34.1748L44.8583 26.6838L46.1196 26.6646L49.2585 34.1748H47.6602C47.5061 33.8186 47.0825 32.2588 46.8514 32.1047C46.4663 31.864 44.839 32.1047 44.2998 32.0277L43.491 34.1748H42.0371ZM46.3507 30.7952C46.1389 30.0827 45.9463 29.2354 45.5034 28.6384C45.359 29.3798 44.8968 30.0442 44.8487 30.7952H46.3507Z" fill="#293389"/>
<path d="M25.4093 42.2627L47.1506 42.2434C48.1616 42.359 48.075 43.6973 47.0544 43.7455H25.6596C24.7642 43.6396 24.5524 42.6093 25.3997 42.2627H25.4093Z" fill="#293389"/>
<path d="M44.1945 51.0536L45.321 52.4594C38.6676 52.5171 31.9854 52.4594 25.3321 52.4209C24.6484 52.209 24.8217 51.0343 25.5728 51.0536C31.7832 51.0921 37.9936 51.0151 44.1945 51.0536Z" fill="#293389"/>
<path d="M43.4441 46.6534C43.1071 47.1733 42.9915 47.5103 43.0686 48.1554C37.301 48.1843 31.5335 48.1362 25.766 48.1554C24.7454 48.1073 24.5528 46.8556 25.5734 46.6534C31.5335 46.6822 37.4936 46.6245 43.4441 46.6534Z" fill="#293389"/>
<path d="M46.0724 52.4691L44.8496 51.0633C45.5718 51.0633 46.5828 50.967 47.2471 51.0633C48.0463 51.1692 48.0367 52.3728 47.2471 52.4787C46.9101 52.5268 46.4383 52.4691 46.0724 52.4787V52.4691Z" fill="#293389"/>
<path d="M45.9752 46.6532C45.8404 47.1635 45.5131 47.5775 45.5997 48.1553C44.945 48.1649 44.2806 48.1553 43.6259 48.1553C43.5873 47.8953 43.4044 47.7701 43.4718 47.4909C43.5296 47.2598 44.1554 46.9421 44.1843 46.6532C44.7813 46.6532 45.3783 46.6436 45.9656 46.6532H45.9752Z" fill="#293389"/>
<path d="M45.6013 48.146C45.5147 47.5683 45.842 47.1542 45.9768 46.6439C46.7182 46.6632 48.1047 46.4128 47.8351 47.6068C47.6522 48.3867 46.2561 48.1363 45.6013 48.146Z" fill="#293389"/>
<path d="M44.8491 51.0535L46.0719 52.4592C45.8119 52.4592 45.5327 52.4592 45.3209 52.4592L44.1943 51.0535C44.4158 51.0535 44.6276 51.0535 44.8491 51.0535Z" fill="#293389"/>
<path d="M44.1955 46.6536C44.1569 46.9424 43.5407 47.2602 43.4829 47.4913C43.4155 47.7705 43.5889 47.8956 43.637 48.1556C43.4541 48.1556 43.2615 48.1556 43.0785 48.1556C43.0015 47.5105 43.1171 47.1735 43.4541 46.6536C43.7044 46.6536 43.9547 46.6536 44.2051 46.6536H44.1955Z" fill="#293389"/>
</svg>
