<?xml version="1.0" encoding="UTF-8"?>
<svg id="Layer_1" data-name="Layer 1" xmlns="http://www.w3.org/2000/svg" viewBox="0 0 20 20">
  <defs>
    <style>
      .cls-1 {
        fill: #f7b11a;
      }

      .cls-2 {
        fill: #2b3386;
      }
    </style>
  </defs>
  <path class="cls-1" d="M10.71,10.87c-.73,.56-1.47,1.11-2.24,1.62s-1.55,.97-2.39,1.3c-.85,.33-1.71,.62-2.63,.66-.52,.02-1.04-.07-1.47-.38-.35-.25-.6-.62-.71-1.03-.09-.36-.08-.75,.06-1.1-.01,.04,.04,.14,.05,.17,.25,.71,1,1.09,1.68,1.27,.88,.23,1.8,.18,2.67-.04,.89-.22,1.73-.63,2.56-1.02,.39-.19,.77-.38,1.14-.6,.44-.26,.87-.55,1.28-.85Z"/>
  <path class="cls-2" d="M19.71,1.72s-.02,.02-.03,.03c-.03,.03-.05,.07-.07,.1,0,0-.01,.02-.02,.03,0,0-.01,.02-.01,.02-.01,.02-.03,.04-.04,.06,0,.01-.01,.02-.02,.03-.04,.07-.09,.13-.13,.2s-.09,.13-.13,.19c-.23,.34-.47,.68-.71,1.01-.45,.63-.93,1.24-1.52,1.75-.26,.23-.59,.43-.94,.48-1.34,.18-2.7,.27-4.07,.51,1.1,.27,2.41,.58,3.54,.86-.54,.59-1.11,1.16-1.69,1.72-.22,.21-.45,.43-.68,.63-.23,.21-.46,.42-.7,.62-2.03,1.79-4.19,3.4-6.72,4.44-.92,.38-1.86,.7-2.88,.65-1.26-.05-1.98-.74-1.99-2,0-.68,.15-1.37,.23-2.03-.62,1.2-1,2.49-1,3.44,0,1.45,.8,2.32,2.24,2.16,1.03-.11,2.1-.37,3.04-.82,2.92-1.38,5.46-3.33,7.76-5.57,.96-.93,1.89-1.9,2.77-2.92,.54,1.05,1.15,2.26,1.68,3.27,0-.1-.01-.2-.02-.3-.05-.82-.15-1.64-.25-2.46-.05-.39-.08-.79-.14-1.18-.03-.22-.02-.47,.06-.68,.08-.21,.17-.41,.28-.61,.27-.48,.59-.92,.88-1.38,.22-.35,.43-.69,.64-1.04,.2-.34,.41-.67,.57-1.03,.02-.04,.04-.07,.05-.11,0-.02,.01-.04,.02-.06s0-.04,0-.06c0,.01-.02,.02-.04,.03Z"/>
</svg>